<svg width="10" height="10" viewBox="0 0 10 10" fill="none" xmlns="http://www.w3.org/2000/svg">
<path d="M6.54688 5L8.89062 2.65625C9.19531 2.375 9.19531 1.90625 8.89062 1.625L8.375 1.10938C8.09375 0.804688 7.625 0.804688 7.34375 1.10938L5 3.45312L2.63281 1.10938C2.35156 0.804688 1.88281 0.804688 1.60156 1.10938L1.08594 1.625C0.78125 1.90625 0.78125 2.375 1.08594 2.65625L3.42969 5L1.08594 7.36719C0.78125 7.64844 0.78125 8.11719 1.08594 8.39844L1.60156 8.91406C1.88281 9.21875 2.35156 9.21875 2.63281 8.91406L5 6.57031L7.34375 8.91406C7.625 9.21875 8.09375 9.21875 8.375 8.91406L8.89062 8.39844C9.19531 8.11719 9.19531 7.64844 8.89062 7.36719L6.54688 5Z" fill="#00A4A4"/>
</svg>
