<svg width="18" height="24" viewBox="0 0 18 24" fill="none" xmlns="http://www.w3.org/2000/svg">
<path d="M10.5 6.375V0H1.125C0.46875 0 0 0.515625 0 1.125V22.875C0 23.5312 0.46875 24 1.125 24H16.875C17.4844 24 18 23.5312 18 22.875V7.5H11.625C10.9688 7.5 10.5 7.03125 10.5 6.375ZM13.5469 16.5469H10.5V20.2969C10.5 20.6719 10.125 21.0469 9.75 21.0469H8.25C7.82812 21.0469 7.5 20.6719 7.5 20.2969V16.5469H4.40625C3.75 16.5469 3.42188 15.7031 3.89062 15.2344L8.39062 10.7344C8.71875 10.4531 9.23438 10.4531 9.5625 10.7344L14.0625 15.2344C14.5312 15.7031 14.2031 16.5469 13.5469 16.5469ZM17.6719 4.92188L13.0781 0.328125C12.8438 0.140625 12.5625 0 12.2812 0H12V6H18V5.71875C18 5.4375 17.8594 5.15625 17.6719 4.92188Z" fill="#485353"/>
</svg>
