<svg width="15" height="11" viewBox="0 0 15 11" fill="none" xmlns="http://www.w3.org/2000/svg">
<path d="M14.2266 3.97266C13.5977 4.46484 12.8047 5.06641 10.0156 7.08984C9.46875 7.5 8.45703 8.40234 7.5 8.40234C6.51562 8.40234 5.53125 7.5 4.95703 7.08984C2.16797 5.06641 1.375 4.46484 0.746094 3.97266C0.636719 3.89062 0.5 3.97266 0.5 4.10938V9.6875C0.5 10.4258 1.07422 11 1.8125 11H13.1875C13.8984 11 14.5 10.4258 14.5 9.6875V4.10938C14.5 3.97266 14.3359 3.89062 14.2266 3.97266ZM7.5 7.5C8.12891 7.52734 9.03125 6.70703 9.49609 6.37891C13.1328 3.75391 13.4062 3.50781 14.2266 2.85156C14.3906 2.74219 14.5 2.55078 14.5 2.33203V1.8125C14.5 1.10156 13.8984 0.5 13.1875 0.5H1.8125C1.07422 0.5 0.5 1.10156 0.5 1.8125V2.33203C0.5 2.55078 0.582031 2.74219 0.746094 2.85156C1.56641 3.50781 1.83984 3.75391 5.47656 6.37891C5.94141 6.70703 6.84375 7.52734 7.5 7.5Z" fill="#9BB0B0"/>
</svg>
