<svg width="22" height="19" viewBox="0 0 22 19" fill="none" xmlns="http://www.w3.org/2000/svg">
<path d="M20.8789 15.7539L12.4414 1.09375C11.8086 0.00390625 10.1562 -0.03125 9.52344 1.09375L1.08594 15.7539C0.453125 16.8438 1.26172 18.25 2.5625 18.25H19.4023C20.7031 18.25 21.5117 16.8789 20.8789 15.7539ZM11 12.6953C11.8789 12.6953 12.6172 13.4336 12.6172 14.3125C12.6172 15.2266 11.8789 15.9297 11 15.9297C10.0859 15.9297 9.38281 15.2266 9.38281 14.3125C9.38281 13.4336 10.0859 12.6953 11 12.6953ZM9.45312 6.89453C9.41797 6.64844 9.62891 6.4375 9.875 6.4375H12.0898C12.3359 6.4375 12.5469 6.64844 12.5117 6.89453L12.2656 11.6758C12.2305 11.9219 12.0547 12.0625 11.8438 12.0625H10.1211C9.91016 12.0625 9.73438 11.9219 9.69922 11.6758L9.45312 6.89453Z" fill="#FED15D"/>
</svg>
