<svg width="72" height="40" viewBox="0 0 72 40" fill="none" xmlns="http://www.w3.org/2000/svg">
<g clip-path="url(#clip0)">
<path d="M70.7741 39.0045V38.2544C70.7741 37.8075 70.5698 37.5833 70.1639 37.5833C69.758 37.5833 69.5391 37.8075 69.5391 38.2544V39.0045C69.5348 39.0872 69.5476 39.1699 69.5768 39.2475C69.606 39.3251 69.6509 39.3959 69.7087 39.4557C69.7693 39.5124 69.8409 39.5564 69.9191 39.5851C69.9973 39.6137 70.0806 39.6264 70.1639 39.6224C70.2461 39.6269 70.3284 39.6144 70.4055 39.5857C70.4826 39.557 70.5529 39.5127 70.6118 39.4557C70.6677 39.3949 70.7109 39.3237 70.7388 39.2463C70.7666 39.1688 70.7787 39.0866 70.7741 39.0045ZM71.1612 38.2544V38.9513C71.171 39.2175 71.0835 39.4783 70.9148 39.6856C70.7093 39.873 70.4402 39.9771 70.161 39.9771C69.8817 39.9771 69.6127 39.873 69.4072 39.6856C69.2332 39.4817 69.1418 39.2211 69.1506 38.9542V38.2572C69.1322 37.9771 69.2265 37.7012 69.413 37.4899C69.6208 37.3154 69.8848 37.2206 70.1571 37.2224C70.4294 37.2242 70.692 37.3227 70.8974 37.4999C71.0812 37.7077 71.1759 37.9784 71.1612 38.2544ZM68.1548 37.7485C67.9656 37.6509 67.7549 37.6015 67.5416 37.6048C67.4577 37.5966 67.373 37.6066 67.2934 37.6342C67.2137 37.6617 67.1411 37.7061 67.0806 37.7643C66.9819 37.8784 66.9302 38.0251 66.9357 38.1753V39.1151C66.9324 39.1879 66.9469 39.2604 66.9779 39.3265C67.009 39.3925 67.0556 39.4501 67.114 39.4945C67.2537 39.5932 67.4223 39.6437 67.5938 39.6382C67.7811 39.6389 67.9682 39.6249 68.1533 39.5965L68.1548 37.7485ZM67.0125 37.3347C67.1971 37.2634 67.3943 37.2296 67.5923 37.2355C67.7919 37.227 67.9895 37.2769 68.1606 37.3792V36.2296H68.5491V39.9241C68.2653 39.965 67.9791 39.9861 67.6924 39.9874C67.4458 39.9915 67.2018 39.9373 66.9806 39.8293C66.8447 39.7624 66.732 39.6568 66.6571 39.5259C66.5822 39.3951 66.5485 39.245 66.5602 39.095V38.0977C66.5458 37.9397 66.5817 37.7811 66.6628 37.6442C66.7439 37.5074 66.8662 37.3992 67.0125 37.3347ZM65.5528 39.6008V38.4024C65.3046 38.2788 65.036 38.2004 64.7599 38.171H64.6845C64.5754 38.1696 64.469 38.2051 64.383 38.2716C64.3361 38.3169 64.3002 38.3721 64.2779 38.433C64.2555 38.494 64.2474 38.5591 64.254 38.6237V39.0361C64.254 39.4375 64.5337 39.6377 65.0933 39.6367C65.2471 39.6357 65.4007 39.6237 65.5528 39.6008ZM63.8655 38.5949C63.8655 38.0704 64.1394 37.8075 64.6845 37.8075C64.7654 37.8086 64.8463 37.8144 64.9266 37.8247C65.1512 37.8546 65.3657 37.9363 65.5528 38.0632C65.5528 37.6982 65.2991 37.5172 64.7917 37.5172L64.8193 37.2384C65.039 37.2261 65.2588 37.2599 65.4643 37.3376C65.5332 37.373 65.6 37.4124 65.6644 37.4554C65.722 37.4936 65.7685 37.5461 65.7992 37.6077C65.8311 37.6724 65.8586 37.727 65.8804 37.7744C65.9047 37.836 65.9193 37.901 65.9239 37.967C65.934 38.0905 65.9398 38.2199 65.9398 38.3535V39.9256C65.5658 39.9601 65.2672 39.9787 65.0454 39.9787C64.2588 39.9787 63.8655 39.664 63.8655 39.0346V38.5949ZM63.2668 39.9256H62.8783V36.2282H63.2668V39.9256ZM60.7561 39.9256H60.3821V39.7301C60.3032 39.8154 60.2063 39.8823 60.0983 39.9263C59.9903 39.9702 59.8739 39.9901 59.7574 39.9845C59.0809 39.9845 58.7427 39.6621 58.7427 39.0174V37.2786H59.1297V39.0145C59.1297 39.4198 59.338 39.6224 59.7545 39.6224C60.171 39.6224 60.3744 39.4183 60.3647 39.0102V37.2786H60.7532L60.7561 39.9256ZM57.9483 38.5058V38.0992C57.9553 38.023 57.9426 37.9464 57.9114 37.8765C57.8802 37.8066 57.8315 37.7458 57.77 37.6997C57.6471 37.6196 57.5025 37.5785 57.3554 37.5819C57.2082 37.5788 57.0652 37.63 56.9539 37.7255C56.8968 37.7788 56.8524 37.8439 56.8238 37.9162C56.7952 37.9885 56.7832 38.0662 56.7886 38.1437V38.5662L57.9483 38.5058ZM56.7886 39.197C56.7886 39.4959 56.9684 39.6468 57.3279 39.6468C57.5869 39.6368 57.8392 39.5622 58.0614 39.4298L58.2063 39.7416C57.9452 39.9025 57.644 39.9881 57.3366 39.9888C56.7123 39.9888 56.3997 39.7321 56.3987 39.2186V38.1365C56.3916 38.0122 56.4125 37.8879 56.4599 37.7725C56.5073 37.6572 56.58 37.5538 56.6727 37.4698C56.8761 37.3041 57.1345 37.2196 57.3975 37.2327C57.6521 37.2176 57.9024 37.3022 58.0947 37.4683C58.1796 37.5537 58.2457 37.6557 58.2886 37.7677C58.3315 37.8798 58.3504 37.9996 58.344 38.1193V38.8378L56.793 38.9168L56.7886 39.197ZM54.0837 39.2559L54.4621 39.2387C54.4679 39.3018 54.4892 39.3625 54.524 39.4156C54.5589 39.4687 54.6063 39.5125 54.6621 39.5433C54.7856 39.613 54.9252 39.6496 55.0673 39.6496C55.2093 39.6496 55.349 39.613 55.4724 39.5433C55.5252 39.514 55.5689 39.4709 55.5988 39.4188C55.6287 39.3666 55.6437 39.3073 55.642 39.2473C55.6443 39.1883 55.6323 39.1296 55.6071 39.0761C55.5819 39.0227 55.5442 38.9759 55.4971 38.9398C55.3904 38.8599 55.2701 38.7995 55.1419 38.7616C54.997 38.7185 54.8607 38.6711 54.7186 38.6179C54.5773 38.5703 54.4488 38.4911 54.3432 38.3866C54.2794 38.3295 54.2287 38.2596 54.1944 38.1816C54.1602 38.1035 54.1432 38.019 54.1446 37.9339C54.1488 37.7464 54.2269 37.568 54.362 37.4367C54.507 37.2844 54.7447 37.2082 55.0709 37.2082C55.1799 37.2076 55.2885 37.2206 55.3941 37.247C55.4685 37.2645 55.5405 37.2906 55.6087 37.3246L55.6739 37.362L55.5507 37.6954C55.4212 37.6151 55.2726 37.57 55.1199 37.5647C54.9672 37.5594 54.8158 37.5941 54.681 37.6652C54.6385 37.6945 54.6038 37.7336 54.5801 37.7792C54.5563 37.8248 54.5442 37.8754 54.5447 37.9267C54.5451 37.9838 54.5614 38.0397 54.5918 38.0881C54.6223 38.1366 54.6657 38.1757 54.7172 38.2012C54.8398 38.2708 54.9695 38.3272 55.1042 38.3693C55.2492 38.4167 55.3941 38.467 55.5391 38.5231C55.6804 38.579 55.8047 38.67 55.9 38.7875C56.0036 38.9235 56.0549 39.0916 56.045 39.2617C56.0451 39.3598 56.0235 39.4567 55.9817 39.5456C55.9398 39.6345 55.8788 39.7132 55.8029 39.7761C55.6034 39.9361 55.3501 40.0152 55.0941 39.9974C54.8343 40.0116 54.5777 39.9348 54.3693 39.7804C54.2856 39.7187 54.2166 39.6394 54.1673 39.5483C54.118 39.4571 54.0894 39.3563 54.0837 39.2531V39.2559ZM51.8137 39.0073V38.2572C51.8137 37.8108 51.6107 37.5871 51.2049 37.5862C50.7874 37.5862 50.5801 37.8103 50.5801 38.2572V39.0073C50.5758 39.09 50.5886 39.1728 50.6178 39.2504C50.647 39.328 50.6918 39.3988 50.7497 39.4586C50.8103 39.5153 50.8819 39.5593 50.9601 39.588C51.0383 39.6166 51.1216 39.6293 51.2049 39.6252C51.2871 39.6297 51.3694 39.6172 51.4465 39.5886C51.5236 39.5599 51.5938 39.5156 51.6528 39.4586C51.7085 39.3972 51.7515 39.3254 51.7791 39.2475C51.8067 39.1695 51.8185 39.0869 51.8137 39.0045V39.0073ZM52.2022 38.2572V38.9542C52.2123 39.2207 52.1241 39.4817 51.9543 39.6885C51.8589 39.7888 51.7421 39.8666 51.6124 39.9163C51.4828 39.9661 51.3435 39.9864 51.2049 39.9759C51.0651 39.9867 50.9247 39.9665 50.7938 39.9168C50.6629 39.8671 50.5449 39.7891 50.4482 39.6885C50.2742 39.4846 50.1828 39.2239 50.1916 38.957V38.2601C50.1726 37.9802 50.2665 37.7042 50.4525 37.4928C50.6607 37.3185 50.9249 37.2237 51.1973 37.2256C51.4698 37.2274 51.7326 37.3257 51.9383 37.5028C52.1215 37.7098 52.2161 37.9794 52.2022 38.2544V38.2572ZM49.19 39.6037V38.4052C48.9418 38.2817 48.6732 38.2033 48.397 38.1739H48.3217C48.213 38.1724 48.1071 38.2079 48.0216 38.2745C47.9745 38.3196 47.9383 38.3747 47.9157 38.4357C47.8931 38.4967 47.8847 38.5619 47.8911 38.6265V39.039C47.8911 39.4404 48.1714 39.6406 48.7319 39.6396C48.8853 39.6375 49.0384 39.6246 49.19 39.6008V39.6037ZM47.5026 38.5978C47.5026 38.0733 47.7766 37.8103 48.3217 37.8103C48.4031 37.8115 48.4844 37.8172 48.5652 37.8276C48.7895 37.8572 49.0036 37.9389 49.19 38.0661C49.19 37.7011 48.9363 37.5201 48.4289 37.5201L48.4565 37.2413C48.6766 37.2291 48.8968 37.2629 49.103 37.3404C49.1717 37.3762 49.2385 37.4155 49.303 37.4583C49.3599 37.4969 49.4058 37.5493 49.4364 37.6106C49.4697 37.6753 49.4973 37.7299 49.5176 37.7773C49.5425 37.8387 49.5572 37.9037 49.561 37.9698C49.5712 38.0934 49.577 38.2227 49.577 38.3564V39.9284C49.203 39.9629 48.9058 39.9816 48.6826 39.9816C47.896 39.9816 47.5026 39.6669 47.5026 39.0375V38.5978ZM45.2007 38.5087V38.102C45.208 38.026 45.1956 37.9494 45.1646 37.8795C45.1337 37.8096 45.0852 37.7487 45.0239 37.7026C44.9005 37.6222 44.7554 37.5811 44.6078 37.5847C44.4608 37.5822 44.3179 37.6334 44.2063 37.7284C44.1493 37.7816 44.1048 37.8468 44.0763 37.9191C44.0477 37.9914 44.0357 38.0691 44.0411 38.1466V38.5691L45.2007 38.5087ZM44.0411 39.1999C44.0411 39.4988 44.2223 39.6497 44.5803 39.6497C44.8393 39.6398 45.0917 39.5652 45.3138 39.4327L45.4587 39.7445C45.1977 39.9056 44.8965 39.9912 44.589 39.9917C43.9637 39.9917 43.6511 39.7349 43.6511 39.2215V38.1394C43.644 38.0152 43.6648 37.891 43.7119 37.7757C43.7591 37.6604 43.8314 37.5569 43.9236 37.4726C44.1272 37.3072 44.3855 37.2227 44.6484 37.2355C44.9026 37.2207 45.1524 37.3053 45.3442 37.4712C45.4299 37.5561 45.4965 37.658 45.5397 37.7702C45.5829 37.8823 45.6017 38.0023 45.595 38.1222V38.8407L44.0425 38.9197L44.0411 39.1999ZM42.8568 37.7543C42.6677 37.6564 42.4569 37.607 42.2436 37.6106C42.1597 37.6024 42.075 37.6124 41.9953 37.6399C41.9157 37.6675 41.8431 37.7119 41.7826 37.7701C41.6839 37.8842 41.6321 38.0309 41.6377 38.1811V39.1209C41.6347 39.1936 41.6494 39.266 41.6804 39.332C41.7114 39.398 41.7579 39.4556 41.816 39.5002C41.9557 39.599 42.1243 39.6495 42.2958 39.6439C42.4831 39.6446 42.6702 39.6307 42.8553 39.6023L42.8568 37.7543ZM41.7145 37.3404C41.8991 37.2691 42.0963 37.2354 42.2943 37.2413C42.4939 37.2327 42.6915 37.2827 42.8626 37.385V36.2354H43.251V39.9299C42.9673 39.9707 42.681 39.9918 42.3943 39.9931C42.1478 39.9972 41.9038 39.943 41.6826 39.835C41.5467 39.7682 41.434 39.6625 41.3591 39.5317C41.2842 39.4008 41.2504 39.2507 41.2622 39.1007V38.1035C41.2465 37.9445 41.2818 37.7846 41.363 37.6466C41.4442 37.5086 41.5672 37.3995 41.7145 37.3347V37.3404ZM39.7894 37.0875H39.4995L39.7634 36.4811C39.7787 36.438 39.8075 36.4009 39.8455 36.375C39.8836 36.3492 39.9289 36.336 39.975 36.3374C39.9981 36.3369 40.0212 36.3403 40.0431 36.3475C40.0813 36.3593 40.1144 36.3833 40.1373 36.4158C40.1601 36.4484 40.1714 36.4875 40.1692 36.5271C40.1671 36.5692 40.1513 36.6095 40.1243 36.6421L39.7894 37.0875ZM40.6461 39.9284H40.2751V39.733C40.1957 39.8181 40.0985 39.885 39.9904 39.9289C39.8822 39.9729 39.7656 39.9928 39.6488 39.9874C38.9724 39.9874 38.6341 39.665 38.6341 39.0203V37.2786H39.0212V39.0145C39.0212 39.4198 39.2294 39.6224 39.6459 39.6224C40.0625 39.6224 40.2659 39.4183 40.2562 39.0102V37.2786H40.6433L40.6461 39.9284ZM37.6339 39.6066V38.4081C37.3857 38.2846 37.1172 38.2062 36.841 38.1768H36.7671C36.658 38.1753 36.5516 38.2108 36.4656 38.2774C36.4185 38.3225 36.3823 38.3776 36.3597 38.4386C36.3371 38.4995 36.3287 38.5648 36.3351 38.6294V39.0418C36.3351 39.4432 36.6154 39.6434 37.1759 39.6425C37.3294 39.6395 37.4824 39.6256 37.6339 39.6008V39.6066ZM35.9481 38.6007C35.9481 38.0767 36.2211 37.8142 36.7671 37.8132C36.848 37.8144 36.9289 37.8202 37.0092 37.8305C37.2335 37.8598 37.4477 37.9416 37.6339 38.069C37.6339 37.704 37.3803 37.5229 36.8729 37.5229L36.9004 37.2442C37.1206 37.2319 37.3409 37.2657 37.547 37.3433C37.6159 37.3788 37.6826 37.4181 37.747 37.4611C37.8043 37.4997 37.8507 37.5522 37.8818 37.6135C37.9137 37.6781 37.9412 37.7327 37.963 37.7802C37.9874 37.8417 38.0016 37.9067 38.005 37.9727C38.0166 38.0963 38.0224 38.2256 38.0224 38.3593V39.9313C37.6484 39.9658 37.3498 39.9845 37.1266 39.9845C36.3409 39.9845 35.9481 39.6698 35.9481 39.0404V38.6007ZM32.9243 38.9915L33.3272 38.9642C33.3378 39.0545 33.3666 39.1418 33.412 39.2208C33.4573 39.2998 33.5182 39.3689 33.5911 39.4241C33.7627 39.5606 33.9786 39.6306 34.1984 39.6209C34.4184 39.6294 34.6354 39.569 34.8189 39.4485C34.8988 39.3926 34.9632 39.3176 35.006 39.2304C35.0489 39.1432 35.0687 39.0467 35.0638 38.9499C35.0685 38.7989 35.0169 38.6516 34.9189 38.536C34.8169 38.4191 34.6874 38.3288 34.542 38.273L34.0491 38.0776C33.8694 38.0072 33.7056 37.9339 33.5548 37.8721C33.4054 37.8056 33.2756 37.7022 33.1779 37.5718C33.077 37.4318 33.026 37.2624 33.033 37.0904C33.0332 36.9675 33.0614 36.8463 33.1156 36.7358C33.1699 36.6253 33.2487 36.5284 33.3461 36.4524C33.6023 36.2566 33.922 36.1605 34.2448 36.1822C34.5159 36.1765 34.7849 36.231 35.0319 36.3417C35.0319 36.3417 34.9928 36.4682 34.9131 36.701C34.6969 36.6068 34.4635 36.5579 34.2274 36.5573C34.0272 36.5466 33.8285 36.5968 33.6577 36.701C33.5897 36.7438 33.534 36.8033 33.4961 36.8739C33.4583 36.9444 33.4395 37.0235 33.4418 37.1033C33.4418 37.3074 33.5804 37.4688 33.8578 37.5876C33.9795 37.6408 34.1144 37.6925 34.2593 37.7442C34.4043 37.796 34.5492 37.852 34.6942 37.9138C34.832 37.9751 34.9643 38.0477 35.0899 38.1308C35.2099 38.2144 35.309 38.324 35.3798 38.4512C35.4572 38.5911 35.4962 38.7487 35.4929 38.9082C35.4993 39.0531 35.4746 39.1978 35.4203 39.3325C35.3661 39.4673 35.2836 39.5891 35.1783 39.6899C34.9677 39.8873 34.6551 39.9859 34.2405 39.9859C33.894 40.0077 33.552 39.8994 33.2823 39.6827C33.1762 39.5977 33.0894 39.4914 33.0277 39.3708C32.966 39.2502 32.9308 39.118 32.9243 38.9829V38.9915Z" fill="#3C3C3B"/>
<path d="M34.0331 9.10792L34.613 9.08205L34.9174 9.07056L35.2798 9.09067C35.5715 9.09979 35.8621 9.12957 36.1495 9.17977L36.6496 9.26024L37.1744 9.40394L37.4498 9.47722C37.5426 9.50596 37.631 9.54333 37.7252 9.57638L38.2934 9.78905C39.5175 10.3077 40.6076 11.0936 41.4825 12.0882C41.7775 12.4171 42.0506 12.7646 42.3001 13.1286L42.6277 13.6761C42.6799 13.7666 42.7364 13.8543 42.7842 13.9448L42.9132 14.2179C42.9973 14.4004 43.0814 14.5771 43.1597 14.7495C43.2379 14.922 43.2858 15.0987 43.3438 15.2654C43.4549 15.5672 43.5441 15.8764 43.6105 16.1908L43.7033 16.586L43.7511 16.9266C43.8062 17.3404 43.8381 17.5761 43.8381 17.5761C43.8599 17.7405 43.8488 17.9075 43.8055 18.0676C43.7622 18.2277 43.6875 18.3778 43.5856 18.5093C43.38 18.7749 43.0763 18.9486 42.7415 18.9923C42.4066 19.0359 42.068 18.9459 41.8001 18.742C41.5322 18.5381 41.3569 18.2371 41.3129 17.9052C41.3056 17.8287 41.3056 17.7517 41.3129 17.6753V17.5747C41.3129 17.5747 41.3231 17.3965 41.3405 17.0846C41.3405 17.0056 41.3506 16.918 41.3564 16.8231C41.3622 16.7283 41.3477 16.6248 41.3419 16.517C41.3403 16.2686 41.3189 16.0207 41.2781 15.7755C41.2578 15.6319 41.2375 15.4968 41.2158 15.3445C41.194 15.1921 41.1404 15.0571 41.1027 14.8975C41.0824 14.82 41.0636 14.7409 41.0433 14.6619C41.023 14.5828 40.9882 14.5067 40.9607 14.4277C40.9041 14.2681 40.8447 14.1058 40.7853 13.9391C40.6384 13.6056 40.4704 13.2816 40.2823 12.9691C40.0849 12.6401 39.866 12.3242 39.6271 12.0236C39.3752 11.7275 39.104 11.4481 38.8153 11.1872C38.5313 10.9292 38.2312 10.6892 37.9166 10.4687L37.4425 10.1813C37.3643 10.1354 37.2874 10.0851 37.2092 10.0377L36.9642 9.94137L36.5032 9.72151L36.0524 9.55913C35.7901 9.45986 35.5207 9.38013 35.2464 9.32059L34.9014 9.23437L34.6057 9.19701L34.0331 9.1151" fill="#F39200"/>
<path d="M28.7987 17.5762L28.7581 17.3104C28.7388 17.208 28.7286 17.1041 28.7277 17C28.7176 16.8603 28.7176 16.7201 28.7277 16.5804C28.7277 16.5028 28.7378 16.4223 28.7436 16.339C28.7494 16.2556 28.7712 16.1708 28.7857 16.0817C28.8192 15.8932 28.8647 15.707 28.9219 15.5242C29.062 15.1168 29.2571 14.7301 29.5018 14.3746C29.7699 14.0065 30.0868 13.6759 30.444 13.3917C30.6174 13.2614 30.7984 13.1415 30.9861 13.0324L31.2557 12.8887L31.521 12.7723C31.6769 12.7022 31.8377 12.6437 32.0023 12.597C32.1285 12.5532 32.2579 12.5186 32.3893 12.4936L32.7358 12.4246L32.7749 12.416C32.9675 12.3727 33.1675 12.3734 33.3599 12.418C33.5522 12.4625 33.7318 12.5498 33.8852 12.6731C34.0385 12.7965 34.1616 12.9528 34.2452 13.1302C34.3287 13.3076 34.3705 13.5015 34.3675 13.6973C34.3644 13.8931 34.3166 14.0856 34.2276 14.2603C34.1385 14.4351 34.0106 14.5876 33.8535 14.7062C33.6964 14.8248 33.5141 14.9065 33.3205 14.9452C33.1269 14.9838 32.927 14.9784 32.7358 14.9293L32.5502 14.8862C32.4787 14.8662 32.4054 14.8532 32.3313 14.8474C32.2355 14.8314 32.1386 14.8232 32.0414 14.8229H31.8675L31.6819 14.8402C31.5444 14.8536 31.4079 14.8757 31.2731 14.9063C31.1251 14.9446 30.9799 14.9926 30.8383 15.05C30.6885 15.1124 30.5432 15.1849 30.4034 15.267C29.9742 15.5272 29.6099 15.8805 29.338 16.3002L29.2133 16.4927C29.18 16.5602 29.1481 16.6235 29.1162 16.6853C29.057 16.7984 29.0062 16.9155 28.964 17.0359C28.9239 17.1285 28.8928 17.2248 28.8712 17.3233L28.8031 17.5834" fill="#006B6C"/>
<path d="M20.8623 17.5761C20.8623 17.5761 20.8623 17.0861 20.8797 16.2268C20.9029 16.0112 20.9304 15.7741 20.9594 15.5083C20.9822 15.2272 21.0234 14.9478 21.0826 14.672C21.1464 14.3759 21.2146 14.0617 21.287 13.7293C21.3813 13.4031 21.4987 13.0654 21.6117 12.709C21.6422 12.6199 21.6712 12.5294 21.7016 12.4389C21.7321 12.3483 21.7784 12.2636 21.8176 12.1745L22.0568 11.6284C22.2261 11.2454 22.4197 10.8734 22.6366 10.5148C23.094 9.7275 23.6317 8.98885 24.2413 8.31041C24.397 8.12744 24.564 7.9542 24.7414 7.79166L25.2661 7.28009C25.4488 7.11484 25.6488 6.96683 25.8459 6.80876C26.0431 6.65069 26.2301 6.48544 26.4403 6.34605C27.2774 5.75688 28.1783 5.26236 29.1263 4.8717L29.8511 4.5843L30.5977 4.36301C31.0934 4.21336 31.5991 4.09812 32.111 4.01813L32.4894 3.94628C32.6169 3.93047 32.7445 3.92185 32.872 3.91035L33.6331 3.84425L33.823 3.82701L33.9172 3.81982H34.052H34.4071L35.1087 3.83132C35.2261 3.83132 35.3378 3.83132 35.4581 3.83132L35.8321 3.8773L36.5743 3.97071L36.9395 4.01813C37.0599 4.03681 37.1715 4.06986 37.286 4.09429L37.9615 4.25667C38.3951 4.35606 38.8206 4.48768 39.2342 4.6504L39.8329 4.86595C40.0242 4.94786 40.2069 5.04126 40.3881 5.12605L40.9186 5.38183C41.0902 5.45829 41.2559 5.54714 41.4144 5.64767L42.3015 6.19517C42.4376 6.27666 42.5674 6.36791 42.69 6.46819L43.0394 6.75415L43.6554 7.23267L44.7296 8.25581C44.9496 8.49084 45.0705 8.80048 45.0674 9.12112C45.0644 9.44177 44.9375 9.74907 44.713 9.97991C44.4885 10.2107 44.1833 10.3476 43.8602 10.3624C43.5371 10.3771 43.2205 10.2686 42.9756 10.0592C42.9509 10.0362 42.9292 10.0132 42.9074 9.98881L42.8248 9.89685L42.0058 8.98005L41.5246 8.54895L41.252 8.30035C41.1573 8.20782 41.055 8.12323 40.9462 8.04744L40.2388 7.53013C40.1144 7.43208 39.9809 7.34596 39.8401 7.27291L39.4053 7.02143C39.2603 6.93665 39.1154 6.84325 38.953 6.7599L38.4573 6.54004C38.1162 6.36864 37.7618 6.22449 37.3976 6.10895L36.8279 5.92358C36.7323 5.89484 36.6351 5.8546 36.538 5.83304L36.2481 5.77269L35.6538 5.64624L35.3508 5.5787C35.2435 5.56289 35.1232 5.55571 35.0087 5.54421L34.31 5.47811L33.9563 5.44506H33.9128H33.8911H33.8795C33.965 5.44506 33.8969 5.44506 33.9143 5.44506H33.6621H32.9851C32.8706 5.44506 32.7561 5.44506 32.643 5.44506L32.3009 5.48242C31.8391 5.51743 31.3804 5.58465 30.9282 5.6836L30.2396 5.8273L29.5714 6.04572C28.6754 6.33243 27.8147 6.71805 27.0056 7.19531C26.7998 7.30883 26.6171 7.45253 26.4258 7.57899C26.2344 7.70544 26.0373 7.83333 25.8561 7.97416L25.3284 8.41244C25.1493 8.5504 24.9798 8.70019 24.8211 8.86078C24.1936 9.45697 23.6292 10.1152 23.1367 10.8251C22.9017 11.1515 22.6877 11.4923 22.496 11.8454L22.2191 12.3584L22.0857 12.6056L21.9799 12.8599C21.8422 13.1947 21.7002 13.5152 21.5842 13.8256C21.4682 14.136 21.3957 14.4449 21.3102 14.728C21.2302 14.9929 21.1678 15.2626 21.1232 15.5356C21.0739 15.7885 21.029 16.0213 20.987 16.2311C20.9087 17.0933 20.8623 17.5747 20.8623 17.5747" fill="#006B6C"/>
<path d="M19.7142 8.02012C19.7142 8.02012 19.8085 7.87642 19.9839 7.62495C20.0723 7.49562 20.181 7.33755 20.31 7.15074L20.7884 6.53284C21.2293 5.98256 21.7032 5.45904 22.2075 4.96509C22.4974 4.67769 22.8294 4.39029 23.1758 4.08565C23.5382 3.79825 23.9079 3.48499 24.3355 3.20477C24.7428 2.90157 25.2052 2.62998 25.6662 2.34258C26.1489 2.08249 26.6447 1.80227 27.1824 1.57092C28.304 1.06157 29.4757 0.668613 30.6788 0.398335C31.9766 0.114979 33.3031 -0.0185907 34.6318 0.000289436L35.6248 0.0189703C35.9611 0.0362142 36.3133 0.0922567 36.6598 0.128181L37.1831 0.188535C37.3573 0.204516 37.5302 0.232364 37.7006 0.27188L38.7153 0.49174C38.8834 0.530538 39.0574 0.557841 39.2226 0.609573L39.7184 0.769078L40.7128 1.08522C41.0346 1.21311 41.3506 1.35393 41.6695 1.48757C41.9914 1.61167 42.3051 1.75565 42.6088 1.91867C43.219 2.22372 43.8088 2.56739 44.3744 2.94755C44.6542 3.1358 44.9383 3.31686 45.2094 3.51085L45.982 4.13451C46.5125 4.52968 46.9489 5.00819 47.4098 5.4436C47.6363 5.66163 47.8488 5.89344 48.0462 6.13767L48.6434 6.83748C49.0145 7.31313 49.3392 7.80601 49.6726 8.27447C49.9698 8.76161 50.2365 9.24587 50.5018 9.70427C50.7424 10.177 50.9366 10.6469 51.1425 11.0867C51.2433 11.3001 51.3295 11.5199 51.4005 11.7448C51.4744 11.9618 51.5455 12.1759 51.6179 12.3771L51.8209 12.9734C51.8745 13.1674 51.9151 13.3585 51.9658 13.5396L52.205 14.5455C52.3224 15.1548 52.3659 15.6448 52.4181 15.9739C52.4703 16.3029 52.4862 16.4825 52.4862 16.4825C52.5304 16.8122 52.4407 17.1458 52.2369 17.4099C52.033 17.674 51.7316 17.847 51.3991 17.8908C51.0665 17.9346 50.73 17.8457 50.4636 17.6436C50.1972 17.4415 50.0227 17.1427 49.9785 16.8131C49.9785 16.7929 49.9785 16.7699 49.9785 16.7498L49.9698 16.6291C49.9698 16.6291 49.9567 16.4754 49.9335 16.188C49.9103 15.9006 49.8944 15.4695 49.8248 14.9392C49.7765 14.6719 49.7243 14.3778 49.6683 14.0569C49.6393 13.896 49.6132 13.7264 49.5784 13.554L49.4334 13.0266L49.2769 12.4619C49.229 12.2603 49.165 12.0628 49.0855 11.8713C48.929 11.4775 48.7811 11.0522 48.5956 10.6225C48.3839 10.2072 48.1737 9.76032 47.9375 9.31629C47.6649 8.88519 47.4055 8.43254 47.0982 7.98707C46.9344 7.77152 46.7677 7.55598 46.601 7.33181C46.4385 7.10188 46.2608 6.88297 46.069 6.67654C45.6776 6.26269 45.3108 5.80285 44.8528 5.42205L44.1874 4.81564C43.9526 4.62452 43.7033 4.44777 43.4626 4.26096C42.9625 3.88278 42.4381 3.53718 41.8927 3.22633C41.6241 3.05889 41.3447 2.90913 41.0563 2.77799C40.7664 2.63429 40.4881 2.49059 40.1982 2.35551L39.3009 2.01207L38.8486 1.8382C38.7037 1.78072 38.5384 1.7491 38.3848 1.70312L37.4527 1.43728C37.2993 1.39188 37.1428 1.35731 36.9845 1.33381L36.5163 1.25047C36.2003 1.20017 35.8973 1.12833 35.5711 1.0924L34.5811 1.01624C33.327 0.926358 32.0666 0.980848 30.8252 1.17862C29.6566 1.3705 28.5112 1.68158 27.4071 2.10691C26.8737 2.30091 26.3794 2.53801 25.8952 2.76793C25.427 3.02228 24.966 3.25651 24.5515 3.52953C24.1369 3.80256 23.7426 4.0684 23.3701 4.32706C22.9975 4.58572 22.6714 4.86737 22.3684 5.13465C21.8414 5.59394 21.3423 6.08385 20.8739 6.60182C20.6825 6.82024 20.5115 7.01567 20.3636 7.18667L20.0041 7.64076L19.7142 8.02012Z" fill="#F39200"/>
<path d="M0 30.0852L1.76413 29.9501C1.78154 30.1286 1.84081 30.3005 1.93721 30.4522C2.03361 30.6039 2.16446 30.7312 2.31932 30.8238C2.69357 31.0715 3.1365 31.197 3.58625 31.183C4.02905 31.2028 4.4661 31.0776 4.82999 30.8267C4.98239 30.7224 5.1062 30.5822 5.19022 30.4186C5.27425 30.255 5.31584 30.0733 5.31125 29.8898C5.31243 29.7027 5.26859 29.518 5.18339 29.3511C5.09818 29.1841 4.97405 29.0397 4.82129 28.9299C4.46052 28.6559 4.05157 28.4508 3.61524 28.3249C3.13785 28.1802 2.65756 28.0183 2.17436 27.8392C1.68942 27.659 1.25325 27.3698 0.900187 26.9942C0.678136 26.7759 0.502926 26.5153 0.385096 26.2281C0.267266 25.9409 0.20925 25.633 0.214537 25.323C0.214537 24.6706 0.478843 24.0661 1.00746 23.5095C1.53607 22.953 2.39518 22.6742 3.5848 22.6732C3.9813 22.6703 4.3765 22.7186 4.76041 22.8169C5.0319 22.8785 5.29512 22.9716 5.54463 23.0943L5.77946 23.2293L5.25037 24.81C4.88507 24.5025 4.37579 24.3487 3.72251 24.3487C3.06924 24.3487 2.64113 24.4512 2.43819 24.6563C2.34191 24.7481 2.26542 24.8584 2.21335 24.9804C2.16128 25.1024 2.1347 25.2337 2.13523 25.3661C2.13523 25.7124 2.32657 25.9869 2.71506 26.1924C3.1337 26.4104 3.57012 26.593 4.01968 26.7385C4.50879 26.9012 4.9888 27.0897 5.45766 27.3032C5.943 27.5295 6.36136 27.8759 6.6724 28.3091C7.0058 28.7574 7.1725 29.3432 7.1725 30.0665C7.1725 30.7898 6.87534 31.4297 6.28101 31.9863C5.68669 32.5439 4.81694 32.8222 3.67178 32.8212C2.52661 32.8203 1.63561 32.5549 0.998758 32.0251C0.697997 31.795 0.452429 31.5017 0.27973 31.1663C0.107031 30.8308 0.0114956 30.4616 0 30.0852" fill="#006B6C"/>
<path d="M15.7554 32.5236H14.071L14.0116 32.1012C13.4792 32.5274 12.8113 32.752 12.1272 32.7349C9.66965 32.7349 8.44186 31.5637 8.44379 29.2214V22.8987H10.2268V29.0619C10.2268 30.3811 10.8602 31.0402 12.1272 31.0392C13.3545 31.0392 13.9686 30.361 13.9696 29.0044V22.9044H15.7525L15.7554 32.5236Z" fill="#006B6C"/>
<path d="M19.8114 36.1334L18.0284 36.5559V22.9045H19.7345L19.7737 23.327C20.2298 22.9438 20.87 22.7522 21.6944 22.7522C22.9081 22.7522 23.832 23.0976 24.4659 23.7883C25.0999 24.479 25.4169 25.3752 25.4169 26.4769V29.1454C25.4169 30.3103 25.0839 31.2031 24.4181 31.8239C23.7523 32.4447 22.87 32.7556 21.7712 32.7565C20.9749 32.7565 20.3216 32.5769 19.8114 32.2176V36.1334ZM23.6281 28.8953V26.3993C23.6281 25.7454 23.4643 25.2497 23.1381 24.9292C22.812 24.6088 22.3539 24.4407 21.7654 24.4407C21.1769 24.4407 20.7072 24.6002 20.3549 24.9206C20.0027 25.2411 19.8201 25.7009 19.8056 26.303V29.0678C19.8056 30.3869 20.4588 31.046 21.7654 31.0451C23.0072 31.0412 23.6281 30.3247 23.6281 28.8953Z" fill="#006B6C"/>
<path d="M29.1017 23.1917C29.7295 22.8882 30.4211 22.737 31.1195 22.7506C31.6226 22.7855 32.1225 22.8561 32.6155 22.9618L32.1806 24.6316C31.8578 24.4726 31.5031 24.3876 31.1427 24.383C30.816 24.3805 30.4912 24.432 30.1816 24.5353C29.4757 24.7926 29.1234 25.2395 29.1234 25.8804V32.5236H27.3405V22.9044H29.0249L29.1017 23.1917Z" fill="#006B6C"/>
<path d="M36.3713 31.1411C37.1038 31.1411 37.9595 30.8849 38.9385 30.3723L39.6053 31.851C38.6582 32.4365 37.5657 32.7494 36.4496 32.7549C34.1766 32.7549 33.0397 31.8203 33.0387 29.9513V26.0096C33.0387 24.9731 33.3687 24.167 34.0288 23.5912C34.6888 23.0154 35.561 22.728 36.6453 22.729C37.7295 22.729 38.5756 23.014 39.1835 23.584C39.7913 24.154 40.0952 24.9444 40.0952 25.955V28.7198L34.8434 29.0072V29.7559C34.8434 30.2674 34.9884 30.6267 35.3029 30.8307C35.6191 31.0387 35.9919 31.146 36.3713 31.1383V31.1411ZM38.292 27.1837V25.9378C38.292 25.4133 38.1224 25.0253 37.7817 24.7767C37.4133 24.5177 36.9691 24.3859 36.5177 24.4017C36.295 24.3919 36.0726 24.4269 35.8639 24.5044C35.6551 24.5819 35.4643 24.7005 35.3029 24.8529C35.1484 25.0077 35.0278 25.1926 34.9487 25.3959C34.8696 25.5991 34.8338 25.8164 34.8434 26.0341V27.3777L38.292 27.1837Z" fill="#006B6C"/>
<path d="M45.4645 32.5235H43.6018L40.507 22.9043H42.4465L44.5426 29.7013L46.6198 22.9043H48.5405L45.4645 32.5235Z" fill="#F39200"/>
<path d="M52.4007 19.8407C52.4004 19.9664 52.3745 20.0906 52.3247 20.2062C52.2749 20.3217 52.2021 20.4261 52.1108 20.5132C52.0248 20.6064 51.9202 20.681 51.8037 20.7322C51.6872 20.7834 51.5613 20.8101 51.4339 20.8107C51.3052 20.8097 51.1781 20.7829 51.0602 20.7318C50.9423 20.6806 50.8362 20.6063 50.7482 20.5132C50.6536 20.4279 50.5777 20.3241 50.5253 20.2084C50.4729 20.0927 50.4452 19.9675 50.4438 19.8407C50.4448 19.7153 50.4724 19.5915 50.5249 19.4774C50.5773 19.3632 50.6534 19.2613 50.7482 19.1783C50.8377 19.0878 50.9443 19.0159 51.062 18.9665C51.1797 18.9172 51.3061 18.8915 51.4339 18.8909C51.5604 18.8912 51.6856 18.9168 51.8019 18.9662C51.9182 19.0156 52.0233 19.0877 52.1108 19.1783C52.2023 19.2632 52.2752 19.3658 52.325 19.4797C52.3749 19.5936 52.4007 19.7165 52.4007 19.8407Z" fill="#006B6C"/>
<path d="M56.3784 23.1157C57.0201 22.8592 57.7058 22.7284 58.3976 22.7305C59.0149 22.7112 59.6274 22.8435 60.1806 23.1157V19.082H61.9447V32.5236C60.9124 32.6705 59.8711 32.7473 58.8282 32.7535C57.9325 32.7669 57.0463 32.5699 56.2421 32.1787C55.2226 31.6662 54.7128 30.7762 54.7128 29.5088V25.8804C54.7128 24.5392 55.268 23.6176 56.3784 23.1157ZM60.1806 24.9004C59.666 24.6217 59.0912 24.4703 58.5049 24.4592C57.9955 24.4489 57.4967 24.6038 57.0843 24.9004C56.6794 25.1964 56.477 25.696 56.477 26.3992V29.6022C56.477 30.2546 56.8423 30.7044 57.5743 30.9458C57.9763 31.0756 58.3967 31.1407 58.8195 31.1384C59.2775 31.1365 59.7339 31.085 60.1806 30.9846V24.9004Z" fill="#F39200"/>
<path d="M66.2167 24.8243C67.3531 24.8243 68.3331 25.0801 69.1564 25.5917C69.1564 24.5168 68.3461 23.9794 66.7255 23.9794L66.8632 22.7507C67.9262 22.7507 68.71 22.8724 69.2144 23.1157C69.4642 23.2423 69.7062 23.3834 69.9392 23.5382C70.1476 23.6788 70.3158 23.8704 70.4277 24.0943C70.5466 24.3257 70.6437 24.5254 70.7176 24.6993C70.8078 24.9231 70.8607 25.1599 70.8742 25.4005C70.9128 25.8489 70.9326 26.3159 70.9336 26.8016V32.5237C69.5749 32.6511 68.4906 32.7153 67.6808 32.7163C64.8193 32.7163 63.3885 31.5705 63.3885 29.279V27.6854C63.3885 26.4179 63.8394 25.5668 64.741 25.1318C65.202 24.9229 65.704 24.8178 66.2109 24.8243H66.2167ZM69.1506 31.0034V27.3405C68.4229 26.9299 67.6175 26.6726 66.7849 26.5846C66.6318 26.569 66.4778 26.5628 66.3239 26.5659C66.0569 26.5851 65.8013 26.6815 65.589 26.8433C65.315 27.0301 65.1773 27.3721 65.1773 27.8722V29.1382C65.1773 30.4573 66.0268 31.1169 67.7257 31.1169C68.2046 31.1147 68.6828 31.0782 69.1564 31.0077L69.1506 31.0034Z" fill="#F39200"/>
<path d="M52.2833 22.9043H50.5004V32.5235H52.2833V22.9043Z" fill="#F39200"/>
</g>
<defs>
<clipPath id="clip0">
<rect width="71.2" height="40" fill="white"/>
</clipPath>
</defs>
</svg>
