<svg width="533" height="296" viewBox="0 0 533 296" fill="none" xmlns="http://www.w3.org/2000/svg">
<path d="M15.7713 294.86H510.32C510.712 285.637 507.527 256.838 505.322 253.403C495.669 238.636 473.276 232.111 457.352 229.265C440.104 226.174 419.083 226.027 404.825 215.724C389.292 204.489 382.432 182.362 363.959 177.554C351.318 174.267 338.333 179.517 325.495 181.97C306.924 185.502 287.325 182.951 270.224 174.807C250.967 165.632 234.406 148.608 213.091 144.34C194.324 140.562 173.059 149.982 161.544 165.142C150.617 179.517 148.902 198.504 139.2 213.32C129.547 228.039 112.937 238.489 95.1499 239.176C85.6441 239.519 75.2563 237.606 67.3184 242.757C56.0976 250.018 54.9706 267.877 52.5207 274.5C47.7188 287.599 26.7471 275.579 15.7713 294.86Z" fill="#2BC9C9"/>
<path d="M139.396 159.353C133.026 147.578 116.955 140.513 96.6689 146.695C84.5171 150.374 77.0693 159.5 66.7794 165.632C58.8906 170.293 49.2867 173.139 41.4469 177.849C33.607 182.559 27.3841 190.261 30.2261 197.522C33.117 204.882 43.7988 208.708 53.6967 210.573C72.6593 214.154 93.386 213.811 110.879 207.237C124.99 201.889 136.75 191.831 140.817 180.204C143.365 172.746 142.679 165.387 139.396 159.353Z" fill="#2BC9C9"/>
<path d="M510.614 294.86H383.216C380.472 294.86 378.267 292.653 378.267 289.905V38.3668C378.267 35.6194 380.472 33.4116 383.216 33.4116H510.614C513.358 33.4116 515.563 35.6194 515.563 38.3668V289.905C515.563 292.653 513.358 294.86 510.614 294.86Z" fill="#007878"/>
<path d="M452.109 281.025C452.109 283.92 449.757 286.226 446.915 286.226C444.024 286.226 441.721 283.871 441.721 281.025C441.721 278.13 444.073 275.824 446.915 275.824C449.806 275.824 452.109 278.13 452.109 281.025Z" stroke="white" stroke-miterlimit="10" stroke-linejoin="round"/>
<path d="M511.643 52.1041V267.288H382.187V52.1041H511.643ZM511.643 51.6135H382.187C381.893 51.6135 381.697 51.8098 381.697 52.1041V267.288C381.697 267.582 381.893 267.778 382.187 267.778H511.692C511.986 267.778 512.182 267.582 512.182 267.288V52.1041C512.133 51.8098 511.937 51.6135 511.643 51.6135Z" fill="white"/>
<path d="M439.026 42.1936H464.065" stroke="white" stroke-width="2" stroke-miterlimit="10" stroke-linecap="round" stroke-linejoin="round"/>
<path d="M429.765 42.1936H434.371" stroke="white" stroke-width="2" stroke-miterlimit="10" stroke-linecap="round" stroke-linejoin="round"/>
<path d="M382.187 190.212C395.172 205.716 399.827 220.385 423.885 220.091C430.941 219.993 438.34 217.883 444.906 221.121C449.022 223.181 452.354 227.303 453.971 232.307C455.882 238.341 455.686 246.093 460.096 249.773C463.722 252.815 468.671 251.392 473.08 250.901C480.185 250.067 483.272 254.875 488.417 261.499C492.239 266.405 509.487 267.239 503.166 267.239C492.043 267.239 382.236 267.239 382.236 267.239L382.187 190.212Z" fill="#2BC9C9"/>
<path d="M471.512 200.466C475.873 200.466 480.234 202.331 483.272 206.01C485.526 208.758 488.564 211.554 491.945 211.554C492.337 211.554 492.778 211.505 493.219 211.407C497.776 210.475 499.54 204.882 503.509 202.478C505.42 201.3 507.625 201.006 509.928 201.006C510.516 201.006 511.104 201.006 511.692 201.055V237.41C501.304 237.41 421.827 237.41 417.76 237.41C416.045 237.41 417.27 235.349 417.858 234.662C419.573 232.601 421.876 232.503 424.228 232.062C426.531 231.62 429.03 231.081 430.647 229.167C431.97 227.597 432.411 225.34 433.195 223.329C434.616 219.698 437.262 216.706 440.447 215.087C441.427 214.596 442.456 214.203 443.534 214.203H443.583C445.935 214.203 447.993 216.068 450.345 216.068H450.394C452.697 216.068 454.706 214.351 456.127 212.339C457.548 210.328 458.577 207.973 460.096 205.961C462.889 202.281 467.201 200.466 471.512 200.466ZM471.512 199.976C466.809 199.976 462.497 202.085 459.655 205.765C458.822 206.844 458.136 208.022 457.499 209.199C456.911 210.18 456.323 211.211 455.686 212.143C454.755 213.468 452.795 215.675 450.345 215.675H450.296C449.218 215.675 448.189 215.234 447.111 214.792C445.984 214.302 444.808 213.811 443.534 213.811H443.485C442.456 213.811 441.427 214.105 440.202 214.743C436.87 216.411 434.126 219.502 432.705 223.231C432.509 223.77 432.313 224.359 432.117 224.899C431.627 226.42 431.137 227.793 430.206 228.922C428.785 230.639 426.58 231.179 424.081 231.669C423.738 231.718 423.395 231.767 423.101 231.866C421.092 232.209 419.083 232.552 417.466 234.417C417.466 234.417 415.996 236.183 416.486 237.311C416.633 237.606 416.976 237.998 417.76 237.998H511.692C511.986 237.998 512.182 237.802 512.182 237.508V201.153C512.182 200.908 511.986 200.662 511.741 200.662C511.104 200.613 510.516 200.613 509.977 200.613C507.184 200.613 505.028 201.104 503.313 202.183C501.598 203.263 500.275 204.882 499.001 206.452C497.286 208.561 495.669 210.524 493.219 211.063C492.827 211.162 492.435 211.162 492.043 211.162C489.446 211.162 486.653 209.346 483.713 205.814C480.626 202.036 476.216 199.976 471.512 199.976Z" fill="white"/>
<path d="M511.643 67.9019C511.496 67.9509 511.3 68.049 511.153 68.0981C507.38 69.7171 504.293 72.5627 501.451 75.5555C499.001 78.1557 496.551 80.9522 493.317 82.4731C488.858 84.6318 482.488 83.4053 477.686 83.7978C473.08 84.1903 462.791 89.6361 473.129 89.2927C485.967 88.8511 498.756 88.753 511.594 88.753V67.9019H511.643Z" fill="white"/>
<path d="M344.066 53.4778C344.066 48.915 335.393 50.5341 330.983 50.6322C329.268 50.6813 327.161 50.5831 326.328 48.6207C325.495 46.7073 326.475 44.3033 326.279 42.0955C325.936 37.68 321.477 36.2572 318.194 37.0912C314.911 37.9743 311.432 39.9859 308.345 38.2687C304.229 35.9628 304.376 31.6454 301.436 27.1808C298.398 22.6672 293.156 21.6369 288.795 23.5012C284.434 25.3655 280.955 29.6829 278.113 34.4419C275.32 39.1028 273.752 47.3941 266.353 49.651C261.894 51.0247 257.631 45.9223 253.221 46.4129C249.35 46.8054 244.499 48.9641 245.626 53.4778H344.066V53.4778Z" stroke="white" stroke-miterlimit="10" stroke-linejoin="round"/>
<path d="M216.031 29.5849C219.314 29.5849 213.238 23.7957 208.044 25.1694C206.623 25.5619 203.585 25.4637 202.164 24.9241C198.93 23.6975 198.881 19.4782 198.244 16.0439C197.558 12.6096 197.215 8.88096 194.912 6.23164C192.364 3.28795 187.856 2.55202 184.181 3.82762C180.507 5.15228 177.665 8.09597 174.725 10.6472C171.785 13.1984 168.061 15.5043 164.19 14.9646C161.348 14.5721 158.849 12.7568 156.056 12.07C150.47 10.6962 144.884 14.1796 140.621 18.0555C136.358 21.9313 132.389 23.9919 126.95 25.709C124.01 26.6412 116.857 28.064 109.409 26.445C105.881 25.66 103.725 23.5503 100.001 23.5503C94.562 23.5503 91.377 26.7884 88.5841 29.5849C93.141 29.5849 212.748 29.5849 216.031 29.5849Z" fill="#2BC9C9"/>
<path d="M180.653 111.763L181.535 119.515L172.667 150.865L179.379 153.171C179.379 153.171 194.471 125.893 195.745 119.564C197.019 113.235 193.148 105.042 193.148 105.042" fill="#F49F8E"/>
<path d="M0.826569 294.86H527.568" stroke="#020303" stroke-miterlimit="10" stroke-linejoin="round"/>
<path d="M490.181 189.624C490.181 190.654 489.348 191.439 488.368 191.439C487.339 191.439 486.555 190.605 486.555 189.624C486.555 188.593 487.388 187.808 488.368 187.808C489.397 187.808 490.181 188.593 490.181 189.624Z" fill="#EBEBEB"/>
<path d="M281.004 90.274C281.004 91.3043 280.171 92.0893 279.191 92.0893C278.162 92.0893 277.378 91.2552 277.378 90.274C277.378 89.2437 278.211 88.4587 279.191 88.4587C280.22 88.4587 281.004 89.2437 281.004 90.274Z" fill="#EBEBEB"/>
<path d="M361.264 29.5851C361.264 30.6153 360.431 31.4003 359.451 31.4003C358.422 31.4003 357.639 30.5663 357.639 29.5851C357.639 28.6038 358.471 27.7698 359.451 27.7698C360.431 27.7698 361.264 28.6038 361.264 29.5851Z" fill="#EBEBEB"/>
<path d="M36.9389 143.457C36.9389 144.487 36.1059 145.272 35.126 145.272C34.146 145.272 33.313 144.438 33.313 143.457C33.313 142.426 34.146 141.641 35.126 141.641C36.1059 141.641 36.9389 142.475 36.9389 143.457Z" fill="#EBEBEB"/>
<path d="M164.092 68.8341C164.092 69.8644 163.259 70.6494 162.279 70.6494C161.25 70.6494 160.466 69.8153 160.466 68.8341C160.466 67.8529 161.299 67.0188 162.279 67.0188C163.259 67.0188 164.092 67.8038 164.092 68.8341Z" fill="#EBEBEB"/>
<path d="M181.193 215.332C181.193 216.362 180.36 217.147 179.38 217.147C178.351 217.147 177.567 216.313 177.567 215.332C177.567 214.301 178.4 213.516 179.38 213.516C180.36 213.516 181.193 214.301 181.193 215.332Z" fill="#EBEBEB"/>
<path d="M38.7519 241.678C38.7519 242.708 37.9189 243.493 36.9389 243.493C35.9099 243.493 35.1259 242.659 35.1259 241.678C35.1259 240.697 35.9589 239.863 36.9389 239.863C37.9679 239.863 38.7519 240.697 38.7519 241.678Z" fill="#EBEBEB"/>
<path d="M26.9431 91.01C23.8072 89.4401 21.2592 86.5945 20.0832 83.2583C19.8382 82.6205 19.6912 81.9337 19.6422 81.2468C19.5932 79.9712 20.1812 78.6956 21.1612 77.9106C22.1412 77.0766 23.4642 76.7331 24.6891 76.9784C26.3551 77.3219 27.6291 78.5484 28.6581 79.8731C29.638 81.0506 30.569 82.5715 30.226 84.0924" fill="#F18671"/>
<path d="M60.8995 93.7084L52.5207 105.63L32.676 83.2583L24.0522 88.9985C24.0522 88.9985 38.6539 127.757 52.5207 127.757C62.8595 127.757 77.2653 102.589 77.2653 102.589" fill="#F18671"/>
<path d="M91.818 76.9295C91.818 76.9295 78.7842 75.1633 70.0624 81.6394C61.3405 88.1155 52.5207 103.079 52.5207 103.079L78.1963 118.485L91.818 99.8412" fill="#F39222"/>
<path d="M29.834 67.9021C28.2171 70.0608 23.8561 74.1329 21.7492 75.8501C20.2792 77.0766 18.2702 77.8616 16.9473 79.2353C15.9183 80.3147 16.2613 80.609 17.3883 81.4921C18.8582 82.6206 20.5242 83.5527 22.2392 84.2396C22.5332 84.3868 22.8762 84.4849 23.2192 84.4358C23.5132 84.3868 23.7582 84.2396 24.0031 84.0433C25.1791 83.1602 26.1591 82.0809 27.0901 80.9525C29.4421 78.1069 34.097 73.0536 36.0569 69.9136" fill="#007878"/>
<path d="M40.7609 72.9554C39.0459 75.065 36.0569 75.5066 34.048 73.8875C32.088 72.2685 31.892 69.2758 33.607 67.1171C35.3219 65.0074 38.3109 64.5658 40.3199 66.1849C42.3288 67.8039 42.5248 70.7967 40.7609 72.9554Z" fill="white"/>
<path d="M32.235 74.2802L26.8941 70.159L35.42 59.3164L41.0549 64.2226C41.6428 64.7132 41.5449 65.4982 41.2019 66.136C39.2909 69.5212 37.2329 72.3668 34.195 74.182C33.509 74.5255 32.774 74.7708 32.235 74.2802Z" fill="#BFE1DF"/>
<path d="M33.166 66.4301C30.765 69.3738 27.8741 71.0419 26.7471 70.1098C25.6201 69.1776 26.6491 66.0377 29.0501 63.094C31.451 60.1503 34.342 58.4822 35.469 59.4144C36.5959 60.2975 35.567 63.4374 33.166 66.4301Z" fill="#035D58"/>
<path d="M9.45038 64.5168C9.45038 64.5168 21.1122 66.8718 26.8451 69.1286C28.952 69.6192 31.304 67.1171 32.48 65.6452C35.5669 61.8184 35.1259 60.1503 35.1259 60.1503C30.52 54.6555 26.7961 43.2732 26.7961 43.2732" fill="white"/>
<path d="M22.1412 57.2066C16.5063 64.0752 8.96041 67.1661 5.18748 64.1243C1.46354 61.0825 2.98251 52.9874 8.61742 46.1187C14.2523 39.2501 21.7982 36.1593 25.5711 39.2011C29.2951 42.2429 27.7761 50.289 22.1412 57.2066Z" fill="#BFE1DF"/>
<path d="M20.4752 55.882C15.7223 61.7203 9.4504 64.4677 6.51045 62.0147C3.5705 59.6106 4.99148 52.8892 9.74439 47.1C14.4973 41.2617 20.7692 38.5142 23.7092 40.9673C26.6981 43.3713 25.2281 50.0437 20.4752 55.882Z" fill="#18B1A0"/>
<path d="M11.9984 53.0856C14.6933 55.2933 16.5553 57.452 17.6333 58.8748C18.6133 57.9917 19.5933 57.0105 20.5242 55.8821C21.4552 54.7537 22.2392 53.6252 22.8762 52.4478C21.2592 51.6628 18.8093 50.2891 16.1143 48.0813L11.9984 53.0856Z" fill="#035D58"/>
<path d="M15.3793 51.7116C14.2523 53.0854 12.6843 53.7232 11.9494 53.1344C11.2144 52.4966 11.5084 50.8776 12.6354 49.5039C13.7623 48.1301 15.3303 47.4923 16.0653 48.0811C16.8493 48.6698 16.5553 50.3379 15.3793 51.7116Z" fill="white"/>
<path d="M33.999 85.9076C33.656 82.6205 32.48 79.3824 30.3731 76.9294C28.5111 74.7707 26.6981 72.8573 23.8562 73.1516C23.4642 73.2007 22.9742 73.3969 23.0232 73.7894C23.0232 74.0347 23.2192 74.1819 23.4152 74.3291C24.7382 75.3103 26.0611 76.6841 26.4531 78.3521C26.6491 79.2352 26.6001 80.1183 26.6491 81.0015C26.8451 83.3073 28.0211 85.466 29.8341 86.8888" fill="#F18671"/>
<path d="M18.4172 78.0577C18.3682 77.4689 18.2212 77.0274 18.4172 76.4877C18.5152 76.2915 18.7602 75.9971 18.9562 75.8499C19.1522 75.7027 19.4462 75.6537 19.6912 75.7027C19.9362 75.7518 20.1812 75.8499 20.3772 75.9971C21.3572 76.5858 22.1902 77.4689 22.3372 78.5974C22.3372 78.6464 22.3372 78.7445 22.3372 78.7936C22.3372 78.8427 22.2882 78.8917 22.2392 78.9408C21.9452 79.137 21.6022 79.2352 21.2592 79.2352C20.4752 79.2352 19.1032 77.9105 19.0052 77.6652" fill="#F18671"/>
<path d="M19.6912 76.7332C19.6422 76.1445 19.7402 75.6048 19.9362 75.0651C20.0342 74.8689 20.1322 74.6236 20.2792 74.4764C20.4752 74.3292 20.7692 74.2801 21.0142 74.3292C21.2592 74.3783 21.5042 74.4764 21.7002 74.6236C22.6802 75.2123 23.5132 76.0954 23.6602 77.2238C23.6602 77.2729 23.6602 77.371 23.6602 77.4201C23.6602 77.4691 23.6112 77.5182 23.5622 77.5672C23.2682 77.7635 22.8762 77.7635 22.5822 77.7144C22.2392 77.6163 21.9452 77.4201 21.6512 77.2238C21.3572 77.0276 21.0142 76.7823 20.7202 76.586C20.5242 76.4388 20.3282 76.3407 20.2302 76.0954" fill="#F18671"/>
<path d="M20.9652 75.3594C20.9162 74.7707 21.0142 74.231 21.2102 73.6913C21.3082 73.4951 21.4062 73.2498 21.5532 73.1026C21.7492 72.9554 22.0432 72.9063 22.2882 72.9554C22.5332 73.0045 22.7782 73.1026 22.9742 73.2498C23.9542 73.8385 24.7872 74.7216 24.9342 75.85C24.9342 75.8991 24.9342 75.9972 24.9342 76.0463C24.9342 76.0954 24.8852 76.1444 24.8362 76.1935C24.5422 76.3897 24.1502 76.3897 23.8562 76.3407C23.5132 76.2425 23.2192 76.0463 22.9252 75.85C22.6312 75.6538 22.2882 75.4085 21.9942 75.2122C21.7982 75.0651 21.6022 74.9669 21.5042 74.7216" fill="#F18671"/>
<path d="M22.2882 73.9856C22.2392 73.3969 22.3372 72.8572 22.5332 72.3175C22.6312 72.1213 22.7292 71.876 22.8762 71.7288C23.0722 71.5816 23.3662 71.5326 23.6112 71.5816C23.8562 71.6307 24.1012 71.7288 24.2972 71.876C25.2771 72.4647 26.1101 73.3478 26.2571 74.4762C26.2571 74.5253 26.2571 74.6234 26.2571 74.6725C26.2571 74.7216 26.2081 74.7706 26.1591 74.8197C25.8651 75.0159 25.4731 75.0159 25.1791 74.9669C24.8361 74.8687 24.5421 74.6725 24.2481 74.4762C23.9542 74.28 23.6112 74.0347 23.3172 73.8385C23.1212 73.6913 22.9252 73.5931 22.8272 73.3478" fill="#F18671"/>
<path d="M26.7471 79.5295C26.7471 79.5295 26.7471 85.1226 28.4621 86.8397" stroke="#D8523A" stroke-width="0.75" stroke-miterlimit="10" stroke-linejoin="round"/>
<path d="M99.1189 294.321V292.849H76.2853C75.3543 292.849 74.4723 292.358 73.9823 291.524L73.8353 291.475V293.879C73.8353 293.977 73.8843 294.075 73.9333 294.124L73.9823 294.173C74.3743 294.566 74.9133 294.811 75.5013 294.811H98.5799C98.8739 294.86 99.1189 294.615 99.1189 294.321Z" fill="#020303"/>
<path d="M97.2079 265.423L98.4329 284.557L97.7959 292.309H75.6973C75.0603 292.309 74.5703 291.819 74.5703 291.181C74.5703 290.739 74.8643 290.298 75.3053 290.151L85.8891 283.773L81.9692 265.031" fill="#F18671"/>
<path d="M85.8891 283.772L74.6683 290.101C74.1783 290.298 73.8843 290.837 73.8843 291.426C73.8843 292.211 74.6683 292.849 75.3543 292.849H99.1679L98.4819 284.312C98.4329 284.312 91.083 286.716 85.8891 283.772Z" fill="#02706E"/>
<path d="M139.2 294.321V292.849H116.367C115.436 292.849 114.554 292.358 114.064 291.524H113.917V293.928C113.917 294.026 113.966 294.124 114.015 294.174L114.064 294.223C114.456 294.615 114.995 294.86 115.583 294.86H138.661C138.955 294.86 139.2 294.615 139.2 294.321Z" fill="#020303"/>
<path d="M137.289 265.423L138.514 284.557L137.877 292.309H115.779C115.142 292.309 114.652 291.819 114.652 291.181C114.652 290.739 114.946 290.298 115.387 290.151L125.97 283.773L122.05 265.031" fill="#F18671"/>
<path d="M125.97 283.772L114.75 290.101C114.26 290.298 113.966 290.837 113.966 291.426C113.966 292.211 114.75 292.849 115.436 292.849H139.249L138.563 284.312C138.514 284.312 131.213 286.716 125.97 283.772Z" fill="#02706E"/>
<path d="M91.867 144.438C91.867 144.438 89.858 159.892 91.867 174.022C93.876 188.152 118.964 277.738 118.964 277.738H145.717L130.919 176.426C130.919 176.426 132.046 161.021 122.932 147.97" fill="#02706E"/>
<path d="M70.6994 147.921C70.6994 147.921 69.5234 168.674 70.3564 191.537C71.6794 229.363 78.0492 277.689 78.0492 277.689H103.382L102.157 179.223C102.157 179.223 107.449 156.016 102.304 145.37" fill="#02706E"/>
<path d="M102.598 219.355C102.598 219.355 93.778 174.905 90.936 156.262L102.598 219.355Z" fill="#01443C"/>
<path d="M88.6821 156.262L90.593 167.889C90.838 168.871 91.524 169.655 92.455 169.999L93.288 170.342" stroke="#01443C" stroke-width="0.75" stroke-miterlimit="10"/>
<path d="M141.601 277.738L124.794 176.083C124.794 176.083 125.823 161.953 119.748 153.76" stroke="#01443C" stroke-width="0.75" stroke-miterlimit="10"/>
<path d="M109.458 156.311C109.458 156.311 111.908 161.119 114.211 161.904C116.514 162.689 124.01 164.455 124.01 164.455" stroke="#01443C" stroke-width="0.75" stroke-miterlimit="10"/>
<path d="M70.5034 164.455C70.5034 164.455 76.4813 162.689 78.1472 161.904C80.3032 160.923 80.4502 155.379 80.4502 155.379" stroke="#01443C" stroke-width="0.75" stroke-miterlimit="10"/>
<path d="M99.6579 277.738C99.6579 277.738 96.8159 200.761 96.8159 190.261L99.6579 277.738Z" fill="#01443C"/>
<path d="M82.7042 80.2165C82.7042 80.2165 72.0713 88.2626 70.5034 109.653C68.9844 130.308 68.5434 154.839 68.5434 154.839C93.484 162.64 130.625 154.594 130.625 154.594C130.625 154.594 124.108 100.086 113.966 83.9943L95.8359 75.752L82.7042 80.2165Z" fill="#F39222"/>
<path d="M111.908 104.845C111.908 104.845 119.454 114.805 127.881 126.138C134.545 135.116 164.386 156.311 164.386 156.311L169.482 147.382L145.521 117.994L127.44 92.2366" fill="#F18671"/>
<path d="M168.306 146.449C170.168 147.921 173.745 150.423 175.607 151.895C176.685 152.778 178.546 154.397 178.252 154.986C177.615 156.458 175.019 153.22 174.676 153.956C174.48 154.397 176.881 156.213 178.105 157.145C179.232 157.979 180.604 159.255 180.261 160.039C179.869 161.119 173.696 156.458 173.696 156.458C173.696 156.458 179.967 161.659 179.575 162.493C179.036 163.768 172.716 158.568 172.716 158.568C172.716 158.568 178.007 163.081 177.567 164.013C177.175 164.946 173.353 161.511 171.589 160.432C172.667 161.511 175.705 164.063 175.411 164.749C175.117 165.436 172.618 163.866 172.03 163.425C168.551 160.677 162.23 154.496 162.23 154.496" fill="#F18671"/>
<path d="M167.277 149.933C167.277 149.933 169.335 153.024 172.226 153.122" stroke="#D8523A" stroke-width="0.75" stroke-miterlimit="10" stroke-linejoin="round"/>
<path d="M98.0899 76.7823C98.0899 76.7823 114.995 75.801 122.344 83.1602C129.694 90.5195 134.447 99.9393 134.447 99.9393L115.975 115.541L106.126 98.3693" fill="#F39222"/>
<path d="M115.975 115.541L105.587 100.577" stroke="#020303" stroke-width="0.75" stroke-miterlimit="10" stroke-linejoin="round"/>
<path d="M86.4281 76.7332C86.7711 77.0766 85.5951 82.3262 93.876 82.3262C101.814 82.3262 103.872 76.8803 103.872 76.8803" stroke="#020303" stroke-width="0.75" stroke-miterlimit="10" stroke-linejoin="round"/>
<path d="M70.0134 113.627L72.1693 91.5005" stroke="#020303" stroke-width="0.75" stroke-miterlimit="10" stroke-linejoin="round"/>
<path d="M89.221 67.9511L97.8449 57.7954L101.324 67.8039L101.569 70.0117L101.275 77.7144C101.275 77.7144 94.366 82.6696 89.123 78.5975C88.829 78.3522 88.6821 78.0087 88.6821 77.6162L89.221 67.9511Z" fill="#F18671"/>
<path d="M91.181 50.6325C88.3391 53.7724 82.9982 64.8603 85.3991 69.2759C87.5551 73.2499 92.014 73.1027 94.905 71.778C97.4039 70.6005 104.068 61.0335 102.696 57.1086C101.275 53.2328 95.199 46.217 91.181 50.6325Z" fill="#F18671"/>
<path d="M102.01 50.5834C101.079 48.2775 98.3839 46.8547 95.6889 46.7075C94.317 46.6094 86.7711 47.885 86.3791 53.3308L95.9339 55.7348C96.4729 58.5313 96.9139 62.4563 98.1389 65.0565C98.2859 65.3509 101.079 70.9439 101.422 70.6495C107.204 66.9209 110.193 62.1128 108.674 57.5501C107.89 55.1461 105.881 51.1721 102.01 50.5834Z" fill="#020303"/>
<path d="M89.417 72.5138C89.417 72.5138 93.533 73.0044 95.9339 70.8948" stroke="#D8523A" stroke-width="0.75" stroke-miterlimit="10" stroke-linejoin="round"/>
<path d="M88.0451 58.5803C88.0451 58.5803 83.1452 61.1806 83.2922 62.4071C83.4391 63.6337 85.3011 63.879 85.3011 63.879" fill="#F18671"/>
<path d="M89.613 58.6295C89.417 58.8257 89.27 59.1201 89.172 59.3163C88.976 59.6598 89.27 60.0032 89.613 60.0523C90.299 60.1504 90.838 58.7767 90.103 58.4823C89.907 58.4332 89.76 58.5314 89.613 58.6295Z" fill="#020303"/>
<path d="M86.6731 65.5471L91.475 66.4793C91.475 66.4793 90.005 69.7664 87.2121 68.9324C85.5461 68.4417 86.6731 65.5471 86.6731 65.5471Z" fill="white"/>
<path d="M89.417 57.1085C90.348 57.5991 91.23 58.335 91.867 59.12C91.965 59.12 92.455 58.7766 92.455 58.4822C92.455 58.2369 91.23 56.9613 89.907 56.3235C89.907 56.2744 89.27 56.9122 89.417 57.1085Z" fill="#020303"/>
<path d="M97.2079 63.5355C97.8939 63.0449 98.7269 62.5543 99.4619 62.8486C99.8539 62.9958 100.099 63.3393 100.197 63.7317C100.883 65.6451 99.7559 68.0982 97.6979 68.687C96.8649 68.9323 95.9339 68.736 95.7869 67.7548L96.8649 63.9771C96.9139 63.7808 97.0609 63.6336 97.2079 63.5355Z" fill="#F18671"/>
<path d="M98.7269 68.1965C98.7269 68.1965 97.0119 69.1287 95.9339 68.0984" stroke="#D8523A" stroke-width="0.75" stroke-miterlimit="10" stroke-linejoin="round"/>
<path d="M532.37 294.861C532.37 295.008 416.731 295.106 274.095 295.106C131.409 295.106 15.7713 295.008 15.7713 294.861C15.7713 294.713 131.409 294.615 274.095 294.615C416.731 294.615 532.37 294.713 532.37 294.861Z" fill="#192E35"/>
<path d="M232.005 282.203C232.005 282.203 231.27 286.765 231.319 287.599L228.085 290.396L219.853 288.581L219.167 281.859L232.005 282.203Z" fill="#F9C4B0"/>
<path d="M219.656 287.55V288.286C219.656 288.286 207.26 293.094 207.064 295.449L231.612 295.596L231.318 287.403C227.692 289.071 223.87 289.267 219.656 287.55Z" fill="#D16426"/>
<g opacity="0.6">
<g opacity="0.6">
<g opacity="0.6">
<g opacity="0.6">
<g opacity="0.6">
<g opacity="0.6">
<g opacity="0.6">
<g opacity="0.6">
<g opacity="0.6">
<path opacity="0.6" d="M231.613 295.596L231.564 293.634L208.044 294.173C208.044 294.173 206.966 294.664 207.064 295.4L231.613 295.596Z" fill="white"/>
</g>
</g>
</g>
</g>
</g>
</g>
</g>
</g>
</g>
<path d="M205.251 282.203C205.251 282.203 204.516 286.765 204.565 287.599L201.331 290.396L193.099 288.581L192.413 281.859L205.251 282.203Z" fill="#F9C4B0"/>
<path d="M192.952 287.55V288.286C192.952 288.286 180.555 293.094 180.359 295.449L204.908 295.596L204.614 287.403C200.939 289.071 197.117 289.267 192.952 287.55Z" fill="#D16426"/>
<g opacity="0.6">
<g opacity="0.6">
<g opacity="0.6">
<g opacity="0.6">
<g opacity="0.6">
<g opacity="0.6">
<g opacity="0.6">
<g opacity="0.6">
<g opacity="0.6">
<path opacity="0.6" d="M204.908 295.596L204.859 293.634L181.339 294.173C181.339 294.173 180.261 294.664 180.359 295.4L204.908 295.596Z" fill="white"/>
</g>
</g>
</g>
</g>
</g>
</g>
</g>
</g>
</g>
<path d="M184.622 167.448H238.57L244.156 193.058L232.985 284.018H215.737L211.768 203.9L207.652 284.018H189.13L181.339 194.039L184.622 167.448Z" fill="#D16426"/>
<path d="M225.831 282.742C225.929 282.742 226.174 266.699 226.37 246.927C226.566 227.156 226.664 211.113 226.566 211.113C226.468 211.113 226.223 227.156 226.027 246.927C225.831 266.699 225.782 282.742 225.831 282.742Z" fill="#385A65"/>
<path d="M198.244 282.399C198.244 282.399 198.244 282.35 198.244 282.203C198.244 282.055 198.195 281.859 198.195 281.614C198.146 281.074 198.048 280.338 197.95 279.357C197.705 277.394 197.411 274.598 197.117 271.066C196.774 267.582 196.431 263.412 196.137 258.751C195.843 254.139 195.598 249.037 195.451 243.689C195.304 238.342 195.255 233.239 195.304 228.578C195.353 223.917 195.451 219.747 195.598 216.264C195.745 212.731 195.892 209.935 195.99 207.972C196.039 206.991 196.088 206.255 196.088 205.716C196.088 205.47 196.088 205.274 196.088 205.127C196.088 204.98 196.088 204.931 196.088 204.931C196.088 204.931 196.088 204.98 196.039 205.127C196.039 205.274 195.99 205.47 195.99 205.716C195.941 206.255 195.892 206.991 195.794 207.972C195.647 209.935 195.451 212.78 195.304 216.264C195.108 219.796 195.01 223.967 194.912 228.578C194.863 233.239 194.863 238.342 195.01 243.689C195.157 249.037 195.451 254.139 195.745 258.8C196.088 263.412 196.431 267.582 196.823 271.115C197.166 274.598 197.509 277.444 197.803 279.357C197.95 280.289 198.048 281.074 198.097 281.614C198.146 281.859 198.146 282.055 198.195 282.203C198.195 282.35 198.195 282.399 198.244 282.399Z" fill="#385A65"/>
<path d="M213.777 85.3679L234.357 86.4963L236.023 94.2481C236.023 94.2481 230.339 98.8108 229.751 99.0071C229.212 99.2033 216.227 101.019 216.227 101.019C216.227 101.019 202.262 94.4934 202.458 94.5915C202.752 94.6406 213.777 85.3679 213.777 85.3679Z" fill="#F9C4B0"/>
<path d="M205.202 91.5491C207.015 88.6054 204.614 84.9258 201.184 85.3673C198.783 85.6617 196.235 86.2995 194.177 87.6732C189.277 90.9113 181.976 108.328 180.849 111.076C180.751 111.321 180.653 111.566 180.604 111.811C180.065 114.363 177.077 129.375 176.342 135.508C176.244 136.391 176.097 137.225 175.999 137.961C175.607 140.218 177.175 142.377 179.429 142.671L181.731 143.015C183.446 143.26 185.161 142.377 185.945 140.807L189.473 133.889C189.718 133.398 189.865 132.908 189.914 132.368L191.384 114.755C191.433 114.117 191.629 113.48 191.972 112.94L205.202 91.5491Z" fill="#01443C"/>
<path d="M204.369 99.3013C204.418 99.3013 204.124 98.6144 203.879 97.486C203.634 96.3576 203.389 94.7876 203.585 93.0214C203.732 91.2552 204.222 89.7343 204.712 88.704C205.202 87.6737 205.594 87.0359 205.545 87.0359C205.545 87.0359 205.398 87.1831 205.202 87.4284C205.006 87.6737 204.761 88.1152 204.516 88.6059C203.977 89.6361 203.438 91.2061 203.291 93.0214C203.144 94.8367 203.389 96.4557 203.683 97.5841C203.83 98.1238 204.026 98.6144 204.173 98.9088C204.271 99.1541 204.369 99.3013 204.369 99.3013Z" fill="#192E35"/>
<path d="M232.985 94.7385C232.985 94.7385 225.145 99.3012 219.167 97.9766C213.189 96.6519 208.975 92.4817 208.975 92.4817L198.44 116.62L204.663 164.995L223.479 167.448L229.702 121.575L232.985 94.7385Z" fill="white"/>
<path d="M233.573 86.2019C233.818 86.3 237.64 87.6247 237.64 87.6247L245.234 137.03C245.234 137.03 251.114 157.586 250.575 166.467C250.036 175.347 245.283 202.87 245.283 202.87L210.788 199.24L212.209 145.223C212.209 145.223 209.71 129.67 217.109 120.251C224.459 110.831 233.573 86.2019 233.573 86.2019Z" fill="#01443C"/>
<path d="M213.777 85.1226C213.287 85.8094 205.741 114.51 206.574 120.545C207.407 126.58 211.768 139.237 211.768 139.237V199.043L181.339 196.247C181.339 196.247 178.84 174.414 181.339 163.964C183.838 153.514 187.464 141.102 187.464 141.102L189.865 104.6L205.202 85.1226H213.777Z" fill="#01443C"/>
<path d="M231.074 143.604C231.074 143.604 231.319 143.653 231.809 143.653C232.054 143.653 232.299 143.653 232.642 143.604C232.985 143.555 233.328 143.555 233.72 143.457C234.553 143.358 235.484 143.113 236.513 142.819C237.542 142.524 238.669 142.083 239.796 141.592C242.098 140.562 244.009 139.335 245.381 138.452C246.067 138.011 246.606 137.618 246.949 137.324C247.292 137.03 247.488 136.882 247.488 136.882C247.488 136.882 247.243 136.98 246.851 137.226C246.41 137.52 245.871 137.864 245.234 138.256C243.862 139.09 241.902 140.268 239.648 141.298C238.522 141.788 237.395 142.23 236.415 142.573C235.386 142.868 234.455 143.113 233.671 143.26C232.054 143.506 231.074 143.506 231.074 143.604Z" fill="#192E35"/>
<path d="M224.41 152.141C224.41 152.141 224.802 152.091 225.488 151.944C225.831 151.846 226.272 151.748 226.713 151.601C227.203 151.454 227.742 151.307 228.33 151.061C229.506 150.669 230.927 150.031 232.397 149.295C233.867 148.51 235.484 147.578 237.052 146.498C240.236 144.291 242.882 141.985 244.695 140.219C245.626 139.335 246.312 138.6 246.802 138.06C247.292 137.52 247.537 137.226 247.537 137.226C247.537 137.226 247.243 137.471 246.704 137.962C246.214 138.452 245.479 139.139 244.548 140.022C242.686 141.74 240.04 143.996 236.905 146.204C235.337 147.283 233.72 148.216 232.299 149.001C230.829 149.737 229.457 150.374 228.281 150.816C227.693 151.061 227.154 151.257 226.664 151.405C226.174 151.601 225.782 151.699 225.439 151.797C224.753 151.993 224.41 152.141 224.41 152.141Z" fill="#192E35"/>
<path d="M203.487 100.675C203.487 100.675 203.389 100.724 203.242 100.92C203.095 101.117 202.899 101.313 202.654 101.607C202.115 102.196 201.331 103.03 200.351 104.011C199.371 105.042 198.146 106.17 196.823 107.544C195.549 108.917 194.128 110.487 193.05 112.352C191.923 114.216 191.286 116.277 191.041 118.141C190.796 120.005 190.698 121.722 190.649 123.145C190.6 124.568 190.551 125.696 190.551 126.53C190.551 126.874 190.551 127.217 190.551 127.463C190.551 127.659 190.551 127.806 190.6 127.806C190.6 127.806 190.649 127.708 190.649 127.512C190.649 127.266 190.698 126.972 190.698 126.58C190.747 125.745 190.796 124.617 190.894 123.243C190.992 121.821 191.09 120.152 191.335 118.288C191.629 116.473 192.217 114.461 193.344 112.646C194.422 110.782 195.794 109.212 197.068 107.887C198.342 106.513 199.567 105.336 200.547 104.306C201.527 103.275 202.311 102.392 202.801 101.803C203.046 101.509 203.193 101.264 203.34 101.068C203.438 100.773 203.536 100.675 203.487 100.675Z" fill="#192E35"/>
<path d="M210.935 148.216C210.935 148.216 210.935 148.412 210.935 148.755C210.984 149.148 210.984 149.638 211.033 150.227C211.18 151.503 211.229 153.367 211.376 155.673C211.572 160.285 211.621 166.663 211.523 173.728C211.425 180.792 211.18 187.17 211.033 191.782C210.935 194.088 210.886 195.903 210.788 197.228C210.788 197.866 210.739 198.356 210.739 198.7C210.739 199.043 210.739 199.24 210.739 199.24C210.739 199.24 210.788 199.043 210.788 198.7C210.837 198.307 210.837 197.817 210.886 197.228C210.984 195.952 211.082 194.088 211.229 191.782C211.474 187.17 211.719 180.792 211.817 173.728C211.915 166.663 211.817 160.285 211.572 155.673C211.425 153.367 211.278 151.503 211.131 150.227C211.082 149.589 210.984 149.099 210.935 148.755C210.984 148.363 210.935 148.216 210.935 148.216Z" fill="#192E35"/>
<path d="M237.689 87.6738C237.689 87.6738 249.056 92.5309 252.584 100.234C256.112 107.936 263.315 132.418 263.462 136.932C263.609 141.445 255.279 155.526 255.279 155.526L242.049 147.136L244.548 140.955L240.53 114.314L237.689 87.6738Z" fill="#01443C"/>
<path d="M243.078 294.419C243.96 294.419 244.695 293.683 244.695 292.8C244.695 291.475 244.499 162.787 244.548 160.677C244.695 156.262 247.39 154.201 247.488 154.103C248.223 153.564 248.37 152.582 247.831 151.846C247.292 151.11 246.312 150.963 245.626 151.454C245.479 151.552 241.51 154.447 241.314 160.53C241.265 162.64 241.461 287.403 241.461 292.751C241.51 293.732 242.196 294.419 243.078 294.419Z" fill="#192E35"/>
<path d="M252.241 170.293C253.123 170.293 253.858 169.558 253.858 168.674C253.858 163.915 253.858 156.605 253.858 156.213C253.907 155.33 253.27 154.594 252.388 154.496C251.506 154.447 250.722 155.133 250.673 156.017C250.673 156.115 250.673 156.311 250.673 168.674C250.624 169.558 251.359 170.293 252.241 170.293Z" fill="#192E35"/>
<path d="M249.742 147.382C249.742 147.382 252.094 149.442 252.878 150.129C253.662 150.816 254.642 156.85 254.642 156.85C254.642 156.85 251.212 160.53 249.791 160.677C248.321 160.824 247.145 159.843 247.145 159.843C247.145 159.843 245.675 160.677 244.793 159.941C243.911 159.205 246.018 154.496 246.018 154.496C246.018 154.496 246.802 152.19 244.597 152.337L243.666 154.054L241.265 158.126C241.265 158.126 239.795 157.93 239.551 157.194C239.306 156.458 240.187 154.054 240.187 154.054C240.187 154.054 239.207 152.582 239.746 151.159C240.285 149.737 241.167 147.136 243.764 146.597C246.312 145.959 249.742 147.382 249.742 147.382Z" fill="#F9C4B0"/>
<path d="M247.243 159.254C247.292 159.303 247.684 158.764 248.419 158.028C249.154 157.292 250.183 156.311 251.555 155.428C251.898 155.182 252.192 154.888 252.388 154.544C252.584 154.201 252.633 153.76 252.584 153.367C252.486 152.631 252.094 152.091 251.751 151.65C251.408 151.257 251.114 150.914 250.967 150.718C250.771 150.472 250.673 150.374 250.673 150.374C250.624 150.423 250.918 151.012 251.555 151.797C251.849 152.239 252.192 152.729 252.29 153.416C252.339 153.76 252.29 154.054 252.094 154.348C251.947 154.643 251.653 154.888 251.31 155.133C249.987 156.016 248.909 157.047 248.223 157.832C247.537 158.617 247.243 159.205 247.243 159.254Z" fill="#F2947F"/>
<path d="M242.931 151.552C242.882 151.601 243.225 152.092 243.421 152.828C243.617 153.514 243.47 154.152 243.568 154.152C243.666 154.201 243.96 153.563 243.715 152.729C243.568 151.895 242.98 151.503 242.931 151.552Z" fill="#F2947F"/>
<path d="M260.375 134.576C260.375 134.576 260.032 134.527 259.444 134.576C259.15 134.576 258.807 134.576 258.366 134.626C257.925 134.675 257.484 134.724 256.945 134.822C256.406 134.92 255.867 135.067 255.23 135.214C254.936 135.312 254.642 135.411 254.299 135.509C254.005 135.607 253.662 135.705 253.319 135.901C252.045 136.441 250.722 137.275 249.448 138.354C248.223 139.385 247.194 140.562 246.263 141.641C245.381 142.721 244.646 143.702 243.96 144.536C243.323 145.37 242.784 146.057 242.441 146.498C242.049 146.94 241.853 147.234 241.902 147.234C241.902 147.234 242.147 147.038 242.539 146.597C242.931 146.155 243.47 145.517 244.156 144.683C244.842 143.849 245.577 142.868 246.508 141.838C247.39 140.758 248.419 139.63 249.644 138.649C250.869 137.618 252.143 136.784 253.417 136.245C253.711 136.097 254.054 135.999 254.348 135.852C254.642 135.754 254.936 135.607 255.23 135.558C255.818 135.411 256.357 135.214 256.896 135.165C257.386 135.067 257.876 135.018 258.268 134.92C258.66 134.871 259.052 134.871 259.346 134.822C260.032 134.626 260.375 134.576 260.375 134.576Z" fill="#192E35"/>
<path d="M242.931 111.763C242.931 111.763 242.98 112.155 243.078 112.891C243.176 113.627 243.372 114.658 243.617 115.933C244.107 118.582 244.793 122.115 245.528 125.991C246.263 129.916 246.851 133.497 247.243 136.097C247.439 137.373 247.586 138.403 247.684 139.188C247.782 139.924 247.831 140.317 247.88 140.317C247.88 140.317 247.88 139.924 247.831 139.188C247.782 138.452 247.684 137.422 247.488 136.097C247.194 133.497 246.606 129.916 245.871 125.991C245.136 122.066 244.401 118.533 243.862 115.933C243.617 114.707 243.372 113.676 243.225 112.891C243.078 112.155 242.98 111.763 242.931 111.763Z" fill="#192E35"/>
<path d="M239.796 295.596H245.871L244.744 290.788H241.167L239.796 295.596Z" fill="#385A65"/>
<path d="M232.054 61.1807C231.368 59.9541 230.045 59.071 228.673 59.2673C229.114 56.8142 227.105 54.263 224.655 54.0667C223.332 53.9686 221.96 54.4102 220.735 53.8214C220 53.478 219.461 52.7911 218.873 52.2024C216.325 49.8475 212.013 50.0928 209.416 52.3496C206.819 54.6064 205.888 58.4823 206.77 61.8675C207.162 63.4375 207.897 64.9093 207.897 66.5284C207.897 68.0493 207.26 69.4721 207.113 70.993C206.966 72.5139 207.652 74.3291 209.122 74.5745L223.969 78.6466C226.272 79.4315 229.065 78.4994 230.437 76.4879C231.417 75.1141 231.711 73.397 232.005 71.7289C232.397 69.5702 232.74 67.3624 232.789 65.1546C232.838 63.83 232.74 62.4072 232.054 61.1807Z" fill="#E1E0E0"/>
<path d="M235.337 67.0191C234.651 66.185 233.279 65.8416 232.397 66.4794C229.8 66.5285 227.448 66.3813 225.537 68.1475C223.626 69.9137 222.45 72.514 222.597 75.1142C222.744 77.7145 224.312 80.2166 226.664 81.345C229.016 82.4735 232.054 82.081 233.916 80.2657C235.778 78.4504 236.219 75.2614 234.749 73.1027C235.239 72.1215 235.778 71.1403 235.974 70.0609C236.17 69.0306 236.023 67.8531 235.337 67.0191Z" fill="#E1E0E0"/>
<path d="M221.225 94.9351C224.802 94.9841 227.742 92.1386 227.84 88.5571L228.477 67.1172C228.82 61.377 225.782 56.3727 220 56.1274H219.461C214.071 56.2746 209.71 60.4939 209.416 65.8416C209.122 70.8459 208.877 76.3408 208.975 79.0392C209.171 84.5831 214.708 85.319 214.708 85.319C214.708 85.319 214.708 86.5946 214.659 88.2137C214.659 91.8933 217.599 94.886 221.225 94.9351Z" fill="#F9C4B0"/>
<path d="M214.757 85.3681C214.757 85.3681 218.236 85.4663 221.911 83.0623C221.911 83.0623 220.245 87.1344 214.708 86.7419L214.757 85.3681Z" fill="#F2947F"/>
<path d="M218.628 76.4389C218.285 76.0955 217.746 75.9483 217.305 76.1445C216.864 76.3408 216.57 76.7823 216.57 77.2239C216.57 77.7145 216.864 78.1561 217.305 78.3523C217.599 78.4504 217.942 78.4504 218.285 78.4014C218.53 78.3523 218.775 78.2051 218.922 78.0089C219.118 77.7145 219.167 77.322 219.02 76.9786C218.873 76.6352 218.775 76.537 218.481 76.2917" fill="#F2947F"/>
<path d="M210.837 69.5701C210.837 70.0117 211.18 70.3551 211.621 70.3551C212.062 70.3551 212.405 70.0607 212.405 69.6192C212.405 69.1776 212.062 68.8342 211.621 68.8342C211.229 68.8342 210.837 69.1777 210.837 69.5701Z" fill="#192E35"/>
<path d="M210.69 68.589C210.788 68.6871 211.376 68.2455 212.209 68.1965C213.042 68.1474 213.679 68.589 213.777 68.4908C213.826 68.4418 213.728 68.2455 213.434 68.0493C213.14 67.853 212.699 67.6568 212.16 67.7059C211.621 67.7059 211.18 67.9512 210.935 68.1474C210.739 68.3437 210.641 68.5399 210.69 68.589Z" fill="#192E35"/>
<path d="M218.824 69.5701C218.824 70.0117 219.167 70.3551 219.608 70.3551C220.049 70.3551 220.392 70.0607 220.392 69.6192C220.392 69.1776 220.049 68.8342 219.608 68.8342C219.167 68.8342 218.824 69.1777 218.824 69.5701Z" fill="#192E35"/>
<path d="M218.872 68.589C218.97 68.6871 219.558 68.2455 220.391 68.1965C221.224 68.1474 221.861 68.589 221.959 68.4908C222.008 68.4418 221.91 68.2455 221.616 68.0493C221.322 67.853 220.881 67.6568 220.342 67.7059C219.803 67.7059 219.362 67.9512 219.117 68.1474C218.921 68.3437 218.823 68.5399 218.872 68.589Z" fill="#192E35"/>
<path d="M216.129 74.9669C216.129 74.9178 215.59 74.8197 214.757 74.7706C214.561 74.7706 214.316 74.7216 214.316 74.5744C214.267 74.4272 214.365 74.1819 214.463 73.9366C214.659 73.3969 214.855 72.8573 215.051 72.2685C215.884 69.9136 216.472 67.9511 216.374 67.902C216.276 67.853 215.541 69.7664 214.708 72.1213C214.512 72.7101 214.316 73.2497 214.12 73.7894C214.022 74.0347 213.924 74.3291 214.022 74.6235C214.071 74.7706 214.267 74.9178 214.365 74.9178C214.512 74.9669 214.61 74.9669 214.757 74.9669C215.59 75.016 216.129 75.016 216.129 74.9669Z" fill="#192E35"/>
<path d="M218.628 75.5066C218.481 75.5066 218.53 76.4388 217.746 77.0766C216.962 77.7634 215.982 77.6653 215.982 77.8125C215.982 77.8615 216.227 78.0087 216.619 78.0087C217.011 78.0087 217.599 77.8615 218.089 77.469C218.579 77.0766 218.775 76.5369 218.775 76.1444C218.824 75.7028 218.726 75.5066 218.628 75.5066Z" fill="#192E35"/>
<path d="M218.775 65.2528C218.873 65.4982 219.706 65.351 220.686 65.4491C221.666 65.5472 222.499 65.7925 222.646 65.5963C222.695 65.4982 222.548 65.3019 222.205 65.0566C221.862 64.8604 221.372 64.6641 220.735 64.566C220.147 64.5169 219.608 64.6151 219.216 64.7622C218.922 64.9585 218.726 65.1547 218.775 65.2528Z" fill="#E1E0E0"/>
<path d="M210.984 66.136C211.131 66.3323 211.719 66.087 212.405 66.087C213.091 66.0379 213.728 66.1851 213.826 65.9888C213.875 65.8907 213.777 65.6945 213.532 65.4982C213.287 65.302 212.846 65.2039 212.356 65.2039C211.866 65.2529 211.474 65.4001 211.229 65.5964C210.984 65.8417 210.886 66.0379 210.984 66.136Z" fill="#E1E0E0"/>
<path d="M228.134 71.2874C228.232 71.2383 231.907 70.0608 231.858 73.8386C231.809 77.6163 228.036 76.8313 228.036 76.6841C228.036 76.586 228.134 71.2874 228.134 71.2874Z" fill="#F9C4B0"/>
<path d="M229.212 75.3104C229.212 75.3104 229.261 75.3595 229.408 75.4085C229.506 75.4576 229.702 75.5066 229.898 75.4085C230.29 75.2613 230.633 74.6235 230.682 73.9367C230.682 73.5932 230.633 73.2498 230.486 73.0045C230.388 72.7101 230.192 72.5139 229.996 72.5139C229.8 72.4648 229.653 72.5629 229.604 72.7101C229.555 72.8083 229.555 72.9064 229.555 72.9064C229.555 72.9064 229.457 72.8573 229.506 72.7101C229.506 72.612 229.555 72.5629 229.653 72.4648C229.751 72.4158 229.898 72.3667 229.996 72.3667C230.29 72.3667 230.535 72.6611 230.682 72.9554C230.829 73.2498 230.927 73.6423 230.878 74.0348C230.829 74.8198 230.437 75.5066 229.898 75.6538C229.653 75.7029 229.408 75.6538 229.31 75.5557C229.212 75.3595 229.212 75.3104 229.212 75.3104Z" fill="#F2947F"/>
<path d="M209.661 69.3741C209.661 69.4232 209.857 69.5213 210.102 69.6194C210.347 69.7175 210.592 69.7666 210.592 69.7175C210.641 69.6685 210.445 69.4722 210.151 69.3741C209.906 69.276 209.661 69.276 209.661 69.3741Z" fill="#F2947F"/>
<path d="M209.367 69.9628C209.367 70.0119 209.661 70.061 209.955 70.061C210.298 70.061 210.543 70.061 210.543 69.9628C210.543 69.9138 210.298 69.8157 209.955 69.8157C209.612 69.8157 209.367 69.9138 209.367 69.9628Z" fill="#F2947F"/>
<path d="M222.548 69.6194C222.548 69.6684 222.94 69.7175 223.381 69.7175C223.822 69.7175 224.214 69.7175 224.214 69.6194C224.214 69.5703 223.871 69.4722 223.381 69.4722C222.891 69.4722 222.499 69.5703 222.548 69.6194Z" fill="#F2947F"/>
<path d="M222.597 70.4043C222.597 70.4533 222.94 70.4533 223.332 70.4533C223.724 70.4533 224.018 70.4533 224.067 70.4043C224.067 70.3552 223.773 70.208 223.332 70.208C222.891 70.208 222.548 70.3061 222.597 70.4043Z" fill="#F2947F"/>
<path d="M219.069 71.6308C219.069 71.6308 219.167 71.827 219.461 71.9742C219.706 72.1214 220.147 72.2686 220.637 72.2195C221.127 72.1705 221.519 71.9742 221.764 71.778C222.009 71.5817 222.107 71.3855 222.058 71.3855C222.009 71.3364 221.47 71.9251 220.588 71.9742C219.755 72.0233 219.118 71.5327 219.069 71.6308Z" fill="#F2947F"/>
<path d="M218.677 71.4346C218.628 71.4836 219.069 71.6799 219.608 71.6799C220.147 71.6799 220.539 71.4836 220.539 71.4346C220.539 71.3855 220.098 71.4836 219.608 71.4346C219.118 71.4836 218.726 71.3855 218.677 71.4346Z" fill="#F2947F"/>
<path d="M210.494 70.895C210.445 70.9441 211.033 71.2875 211.866 71.3366C212.65 71.4347 213.287 71.1894 213.287 71.1403C213.287 71.0913 212.65 71.1894 211.915 71.0913C211.082 71.0422 210.494 70.846 210.494 70.895Z" fill="#F2947F"/>
<path d="M210.886 71.1893C210.837 71.2384 211.278 71.729 212.062 71.8272C212.846 71.9743 213.434 71.68 213.434 71.6309C213.434 71.5818 212.846 71.729 212.111 71.5818C211.425 71.4837 210.935 71.1403 210.886 71.1893Z" fill="#F2947F"/>
<path d="M212.65 64.4678C212.65 64.5169 212.993 64.615 213.63 64.7132C214.218 64.8113 215.051 64.8603 215.982 64.8603C216.913 64.8113 217.746 64.6641 218.334 64.5169C218.922 64.3697 219.265 64.2225 219.265 64.2225C219.265 64.1735 217.795 64.5169 215.982 64.615C214.169 64.6641 212.65 64.3697 212.65 64.4678Z" fill="#F2947F"/>
<path d="M212.062 63.7811C212.062 63.8301 213.434 64.0754 215.149 64.0754C216.864 64.0754 218.236 63.8301 218.236 63.7811C218.236 63.732 216.864 63.8301 215.149 63.8301C213.483 63.8301 212.111 63.732 212.062 63.7811Z" fill="#F2947F"/>
<path d="M216.423 66.5284C216.472 66.5284 216.521 66.3322 216.521 66.1359C216.521 65.9397 216.521 65.7925 216.472 65.7434C216.423 65.7434 216.325 65.8906 216.325 66.0868C216.227 66.3812 216.325 66.5284 216.423 66.5284Z" fill="#F2947F"/>
<path d="M215.247 66.6758C215.247 66.7248 215.541 66.6758 215.639 66.3814C215.737 66.0871 215.59 65.8417 215.541 65.8908C215.492 65.8908 215.492 66.087 215.394 66.3324C215.345 66.4795 215.198 66.6267 215.247 66.6758Z" fill="#F2947F"/>
<path d="M218.775 75.2615C218.775 75.3106 219.02 75.3597 219.265 75.5559C219.51 75.7522 219.608 75.9975 219.657 75.9975C219.706 75.9975 219.706 75.654 219.412 75.3597C219.118 75.1144 218.775 75.1634 218.775 75.2615Z" fill="#F2947F"/>
<path d="M219.755 75.1633C219.755 75.2124 219.902 75.2614 220 75.4086C220.098 75.5558 220.147 75.6539 220.196 75.703C220.245 75.703 220.294 75.6539 220.294 75.5558C220.294 75.4577 220.294 75.3105 220.196 75.2124C220.098 75.1142 220 75.0652 219.902 75.0652C219.804 75.1142 219.755 75.1633 219.755 75.1633Z" fill="#F2947F"/>
<path d="M223.332 89.9798C223.332 89.9798 223.43 89.9798 223.577 89.8326C223.724 89.7345 223.871 89.4892 223.92 89.1457C223.969 88.8023 223.969 88.4098 223.871 88.0173C223.822 87.6248 223.724 87.1342 223.871 86.7417C223.969 86.5455 224.116 86.3492 224.214 86.1039C224.312 85.8586 224.263 85.5642 224.214 85.368C224.165 85.1717 224.116 84.9755 224.214 84.8283C224.263 84.6811 224.361 84.5339 224.459 84.3868C224.655 84.0924 224.704 83.798 224.606 83.6018C224.508 83.4055 224.41 83.4055 224.41 83.4055C224.41 83.4055 224.508 83.4546 224.508 83.6508C224.557 83.798 224.508 84.0433 224.312 84.2886C224.214 84.4358 224.116 84.5339 224.018 84.7302C223.92 84.9264 223.969 85.1717 224.018 85.368C224.067 85.5642 224.116 85.7605 224.018 85.9567C223.969 86.153 223.773 86.3492 223.675 86.5945C223.479 87.0851 223.577 87.6248 223.675 88.0173C223.773 88.4098 223.822 88.8023 223.773 89.0967C223.724 89.391 223.626 89.6364 223.528 89.7345C223.43 89.9307 223.332 89.9798 223.332 89.9798Z" fill="#F2947F"/>
<path d="M220.931 90.4706C220.931 90.4706 221.029 90.4706 221.225 90.3725C221.372 90.2744 221.568 90.0291 221.666 89.6856C221.862 89.0478 222.156 88.1647 222.303 87.1344C222.352 86.8891 222.352 86.6438 222.303 86.3985C222.303 86.1532 222.254 85.9079 222.303 85.7116C222.303 85.2701 222.744 85.1719 222.989 84.9266C223.136 84.8285 223.234 84.6323 223.234 84.4851C223.234 84.3379 223.185 84.1907 223.087 84.1416C222.94 83.9945 222.793 84.0926 222.793 84.0926C222.793 84.0926 222.891 84.0926 223.038 84.1907C223.087 84.2398 223.136 84.3379 223.087 84.4851C223.087 84.5832 222.989 84.7304 222.842 84.8285C222.744 84.9266 222.548 85.0248 222.401 85.1229C222.205 85.221 222.058 85.4663 222.058 85.7116C222.009 85.9569 222.058 86.2022 222.058 86.3985C222.058 86.6438 222.058 86.8891 222.009 87.1344C221.911 88.1156 221.617 88.9988 221.47 89.6366C221.372 89.9309 221.274 90.1762 221.127 90.2744C221.029 90.4215 220.931 90.4215 220.931 90.4706Z" fill="#F2947F"/>
<path d="M207.554 61.524C208.828 62.9468 210.788 63.7318 212.699 63.6337C214.61 63.5356 216.472 62.6034 217.648 61.0825C218.383 62.309 219.706 63.1431 221.127 63.2412C222.548 63.3393 224.018 62.6524 224.851 61.475C224.116 64.0752 224.361 66.9699 225.488 69.4229C225.733 69.9626 226.027 70.4532 226.468 70.7967C226.909 71.1401 228.036 71.4344 228.526 71.1891C229.016 70.9438 228.771 70.306 228.967 69.8154C230.29 66.2339 229.604 61.9656 227.252 59.0219C224.9 56.0291 220.882 54.4101 217.109 54.9007C213.336 55.3913 209.906 57.9916 208.338 61.475" fill="#E1E0E0"/>
<path d="M232.838 63.7319C232.789 63.6829 232.397 63.9772 231.613 64.2716C230.878 64.566 229.751 64.8113 228.526 64.7132C227.301 64.615 226.223 64.2716 225.537 63.8301C224.851 63.3885 224.704 62.8488 224.655 62.8979C224.606 62.8979 224.753 63.4866 225.439 63.9772C226.125 64.4679 227.252 64.9094 228.526 65.0075C229.8 65.1057 230.976 64.8113 231.711 64.4679C232.103 64.2716 232.397 64.1244 232.593 63.9772C232.74 63.8301 232.838 63.7319 232.838 63.7319Z" fill="#FBFBFB"/>
<path d="M232.397 65.5962C232.397 65.498 230.633 66.3321 228.379 66.1849C226.076 66.0868 224.459 65.1055 224.41 65.1546C224.41 65.1546 224.753 65.449 225.488 65.7434C226.174 66.0377 227.203 66.3321 228.379 66.4302C229.555 66.4793 230.584 66.3321 231.319 66.0868C232.005 65.8415 232.397 65.5962 232.397 65.5962Z" fill="#FBFBFB"/>
<path d="M207.113 59.2181C207.162 59.2181 207.064 58.8256 207.162 58.1878C207.26 57.55 207.505 56.5688 208.24 55.6366C208.926 54.7044 210.2 53.8704 211.768 53.7232C213.336 53.576 215.051 54.0176 216.619 54.9988C217.011 55.2441 217.354 55.4894 217.697 55.7838C218.04 56.0782 218.334 56.3725 218.677 56.6669C218.873 56.8141 219.069 56.9122 219.265 57.0103C219.51 57.0594 219.755 57.0594 219.951 56.9613C220.392 56.765 220.637 56.4216 220.931 56.1763C221.47 55.6366 222.205 55.3913 222.891 55.2932C223.577 55.2441 224.214 55.3913 224.753 55.6366C225.782 56.2253 226.223 57.1575 226.419 57.7953C226.566 58.4331 226.517 58.8256 226.566 58.8256C226.566 58.8256 226.566 58.7275 226.615 58.5803C226.615 58.384 226.615 58.1387 226.566 57.7953C226.419 57.1575 225.978 56.1272 224.9 55.4894C224.361 55.195 223.675 54.9988 222.94 55.0969C222.205 55.146 221.421 55.4403 220.833 55.98C220.539 56.2744 220.245 56.5688 219.902 56.7159C219.559 56.8631 219.167 56.7159 218.824 56.4706C218.481 56.2253 218.187 55.8819 217.844 55.5875C217.501 55.2932 217.109 54.9988 216.717 54.7535C215.149 53.7723 213.336 53.3307 211.719 53.4779C210.935 53.576 210.151 53.8213 209.563 54.1647C208.926 54.5572 208.436 54.9988 208.093 55.4894C207.358 56.4706 207.113 57.5009 207.064 58.1387C207.015 58.4822 207.064 58.7275 207.064 58.9237C207.113 59.12 207.113 59.2181 207.113 59.2181Z" fill="#FBFBFB"/>
<path d="M232.838 63.7319C232.789 63.7319 232.789 64.1735 232.691 64.9585C232.642 65.6944 232.495 66.7247 232.299 67.8531C232.103 68.9815 231.858 69.9627 231.613 70.6496C231.417 71.3365 231.221 71.778 231.221 71.778C231.27 71.778 231.515 71.3855 231.76 70.6987C232.005 70.0118 232.299 68.9815 232.544 67.8531C232.74 66.7247 232.838 65.6944 232.887 64.9585C232.887 64.1735 232.838 63.7319 232.838 63.7319Z" fill="#FBFBFB"/>
<path d="M248.615 93.3159C248.615 93.3159 248.419 93.414 248.125 93.6594C247.831 93.9047 247.439 94.2971 246.949 94.7878C246.508 95.2784 246.018 95.9652 245.528 96.7502C245.087 97.5352 244.646 98.4674 244.303 99.4486C244.009 100.43 243.813 101.46 243.715 102.343C243.617 103.226 243.617 104.06 243.715 104.747C243.764 105.434 243.862 105.974 243.96 106.366C244.058 106.759 244.107 106.955 244.156 106.955C244.205 106.955 244.009 106.121 243.96 104.796C243.911 104.109 243.96 103.324 244.058 102.441C244.156 101.558 244.352 100.626 244.695 99.6449C245.038 98.6636 245.43 97.7805 245.871 96.9955C246.312 96.2105 246.753 95.5727 247.194 95.0331C248.027 93.9047 248.664 93.365 248.615 93.3159Z" fill="#192E35"/>
<path d="M345.487 89.7832C345.487 89.7832 360.137 98.7615 363.175 102.588C370.672 112.155 381.354 143.456 381.354 143.456L373.318 147.234C373.318 147.234 354.258 115.884 352.984 115.197C348.084 112.499 331.277 107.004 331.277 107.004" fill="#F18671"/>
<path d="M327.063 78.1558C338.529 80.707 357.246 95.4745 357.246 95.4745L338.578 118.533L323.633 108.132" fill="#BFE1DF"/>
<path d="M387.871 275.923L386.744 274.5L364.792 291.77C363.91 292.506 362.685 292.653 361.607 292.26L361.411 292.358L363.224 294.664C363.273 294.762 363.371 294.811 363.518 294.811H363.616C364.302 294.91 364.988 294.713 365.576 294.321L387.773 276.806C388.067 276.61 388.116 276.168 387.871 275.923Z" fill="#020303"/>
<path d="M369.251 245.554L379.786 266.994L385.029 274.942L363.812 291.672C363.224 292.162 362.342 292.015 361.901 291.426C361.558 290.985 361.509 290.347 361.803 289.856L367.879 276.806L354.307 256.691" fill="#F18671"/>
<path d="M367.144 275.776L361.166 290.396C360.872 290.985 360.97 291.721 361.411 292.26C361.999 292.996 363.273 292.996 363.91 292.506L386.793 274.5L379.688 266.797C379.639 266.797 374.445 274.647 367.144 275.776Z" fill="#01443C"/>
<path d="M320.84 157.783C320.84 157.783 321.33 211.701 325.446 223.672C330.591 238.685 350.632 271.507 350.632 271.507L377.581 257.378L355.336 215.136C354.307 213.173 353.817 211.014 353.866 208.856C354.062 202.036 354.552 186.925 355.042 182.951C355.581 178.683 357.197 175.101 358.667 171.176C361.558 163.179 364.449 154.005 363.175 145.419" fill="#01443C"/>
<path d="M328.19 154.79C328.19 154.79 328.68 208.709 332.796 220.68C337.941 235.692 357.54 267.877 357.54 267.877" stroke="#020303" stroke-width="0.75" stroke-miterlimit="10" stroke-linejoin="round"/>
<path d="M298.104 294.223V292.407H270.175C268.999 292.407 267.97 291.819 267.382 290.788L267.186 290.739V293.683C267.186 293.781 267.235 293.879 267.284 293.977L267.333 294.075C267.823 294.566 268.46 294.86 269.195 294.86H297.467C297.859 294.86 298.104 294.566 298.104 294.223Z" fill="#020303"/>
<path d="M302.22 258.849L297.272 282.252L296.488 291.77H269.489C268.705 291.77 268.117 291.132 268.117 290.396C268.117 289.807 268.46 289.316 268.999 289.12L281.837 282.595L283.601 258.359" fill="#F18671"/>
<path d="M281.886 281.27L268.166 289.022C267.578 289.267 267.186 289.905 267.186 290.641C267.186 291.573 268.166 292.358 268.999 292.358H298.104L297.271 281.908C297.271 281.957 288.305 284.901 281.886 281.27Z" fill="#01443C"/>
<path d="M312.02 148.363L310.109 161.119C310.109 161.119 288.795 191.929 282.572 215.136C279.534 226.469 273.066 274.108 273.066 274.108H304.131C304.131 274.108 311.187 229.167 315.499 218.913C319.762 208.758 337.843 182.068 340.93 177.505C353.033 168.135 355.728 151.748 349.505 136.539" fill="#02706E"/>
<path d="M322.947 205.274L339.852 179.124C340.489 178.192 341.224 177.358 342.106 176.622C344.409 174.758 350.828 167.595 351.71 160.775" stroke="#020303" stroke-width="0.75" stroke-miterlimit="10" stroke-linejoin="round"/>
<path d="M317.606 148.363L316.087 158.666C315.842 160.236 315.254 161.757 314.372 163.081C309.619 170.244 293.45 195.413 288.158 215.086C285.12 226.42 278.652 274.058 278.652 274.058" stroke="#020303" stroke-width="0.75" stroke-miterlimit="10" stroke-linejoin="round"/>
<path d="M274.144 266.552H305.405" stroke="#020303" stroke-width="0.75" stroke-miterlimit="10" stroke-linejoin="round"/>
<path d="M344.066 159.99L329.023 160.187C329.023 160.187 327.161 170.244 327.7 170.833C328.533 171.667 332.747 175.641 334.315 175.641C335.883 175.641 340.391 171.716 341.322 170.833C342.253 169.95 344.066 159.99 344.066 159.99Z" stroke="#020303" stroke-width="0.75" stroke-miterlimit="10" stroke-linejoin="round"/>
<path d="M328.631 162.296H329.611" stroke="#020303" stroke-width="0.75" stroke-linejoin="round"/>
<path d="M330.591 162.296H342.155" stroke="#020303" stroke-width="0.75" stroke-linejoin="round" stroke-dasharray="4.09 4.09"/>
<path d="M342.645 162.296H343.625" stroke="#020303" stroke-width="0.75" stroke-linejoin="round"/>
<path d="M361.852 158.568L357.393 159.058C357.393 159.058 356.56 169.263 357.197 169.803L358.618 171.961" stroke="#020303" stroke-width="0.75" stroke-miterlimit="10" stroke-linejoin="round"/>
<path d="M357.246 161.216L358.226 161.069" stroke="#020303" stroke-width="0.75" stroke-linejoin="round"/>
<path d="M358.765 161.021L360.186 160.874" stroke="#020303" stroke-width="0.75" stroke-linejoin="round" stroke-dasharray="2.35 2.35"/>
<path d="M360.48 160.874L361.46 160.775" stroke="#020303" stroke-width="0.75" stroke-linejoin="round"/>
<path d="M347.202 265.62L374.543 251.49" stroke="#020303" stroke-width="0.75" stroke-miterlimit="10" stroke-linejoin="round"/>
<path d="M320.546 75.114C341.371 82.0317 352.739 110.438 365.821 148.363C365.821 148.363 335.54 157.586 306.63 155.673C307.12 139.286 305.258 100.626 305.258 100.626L311.236 76.9293" fill="#BFE1DF"/>
<path d="M348.966 105.63C348.966 105.63 339.068 85.7113 325.299 77.4199" stroke="#1E3450" stroke-width="0.75" stroke-miterlimit="10" stroke-linejoin="round"/>
<path d="M305.797 62.6524C305.797 64.3205 304.425 65.6942 302.759 65.6942C301.093 65.6942 299.721 64.3205 299.721 62.6524C299.721 60.9843 301.093 59.6106 302.759 59.6106C304.425 59.6106 305.797 60.9843 305.797 62.6524Z" stroke="white" stroke-width="0.5" stroke-miterlimit="10" stroke-linejoin="round"/>
<path d="M305.258 72.6119L307.708 59.5125L315.695 66.4792L316.969 68.2945L320.546 75.1631C320.546 75.1631 317.018 82.9148 310.452 81.9826C310.06 81.9335 309.766 81.6882 309.57 81.3448L305.258 72.6119Z" fill="#F18671"/>
<path d="M302.318 54.3119C300.554 58.1878 298.447 72.3666 301.485 74.3781C304.474 76.3896 309.913 75.5065 312.216 73.3969C314.225 71.5325 317.753 60.3956 315.254 57.0594C312.706 53.7232 304.768 48.8661 302.318 54.3119Z" fill="#F18671"/>
<path d="M318.586 55.7348C316.92 50.6324 313.98 49.7493 309.521 49.7493C305.503 49.7493 301.191 49.7493 298.105 52.3986C297.37 53.0364 296.831 53.7723 296.978 54.8026C297.173 56.3726 298.839 57.4029 300.309 57.6972C302.416 58.1388 304.523 58.5313 306.63 59.12C308.786 59.7088 309.717 61.8184 311.628 62.8487C311.971 63.0449 312.314 63.1921 312.657 63.3884C313.343 63.8299 313.882 64.5658 314.029 65.3508C314.176 65.9396 314.127 66.5774 314.274 67.2152C314.519 68.2455 315.401 68.687 316.185 69.2267C316.822 69.6682 318.145 70.3551 318.145 70.3551C318.145 70.3551 320.595 66.283 320.595 62.4071C320.546 60.3956 320.056 57.2557 318.586 55.7348Z" fill="#020303"/>
<path d="M307.12 75.7028C307.12 75.7028 311.53 75.2613 312.853 72.1704" stroke="#D8523A" stroke-width="0.75" stroke-miterlimit="10" stroke-linejoin="round"/>
<path d="M301.436 62.7505C301.436 62.7505 297.565 66.6754 298.055 67.8038C298.545 68.9322 300.407 68.6379 300.407 68.6379" fill="#F18671"/>
<path d="M303.2 62.4072C303.053 62.6525 303.053 62.9959 303.004 63.1921C302.906 63.5356 303.298 63.8299 303.641 63.7809C304.327 63.6828 304.425 62.1619 303.641 62.1128C303.445 62.1619 303.298 62.26 303.2 62.4072Z" fill="#020303"/>
<path d="M301.044 69.8644L305.895 69.3247C305.895 69.3247 305.503 72.9062 302.563 72.9553C300.848 72.9553 301.044 69.8644 301.044 69.8644Z" fill="white"/>
<path d="M302.514 61.0335C303.543 61.2297 304.621 61.6713 305.454 62.211C305.552 62.1619 305.895 61.7203 305.797 61.426C305.699 61.1807 304.18 60.3466 302.71 60.1013C302.759 60.1013 302.367 60.8372 302.514 61.0335Z" fill="#020303"/>
<path d="M306.728 62.9959C306.728 64.664 305.356 66.0377 303.69 66.0377C302.024 66.0377 300.652 64.664 300.652 62.9959C300.652 61.3278 302.024 59.9541 303.69 59.9541C305.356 59.9541 306.728 61.3278 306.728 62.9959Z" stroke="white" stroke-width="0.5" stroke-miterlimit="10" stroke-linejoin="round"/>
<path d="M300.75 62.2109L299.771 61.9656" stroke="white" stroke-width="0.5" stroke-miterlimit="10" stroke-linejoin="round"/>
<path d="M306.728 62.7996L312.853 64.3204" stroke="white" stroke-width="0.5" stroke-miterlimit="10" stroke-linejoin="round"/>
<path d="M311.922 64.8111C312.461 64.1733 313.098 63.4374 313.882 63.4865C314.274 63.5355 314.617 63.7808 314.862 64.0752C316.087 65.6942 315.744 68.3926 313.98 69.521C313.245 70.0116 312.314 70.1098 311.873 69.2267L311.775 65.3017C311.677 65.1055 311.824 64.9583 311.922 64.8111Z" fill="#F18671"/>
<path d="M314.715 68.8342C314.715 68.8342 313.392 70.257 312.02 69.5702" stroke="#D8523A" stroke-width="0.75" stroke-miterlimit="10" stroke-linejoin="round"/>
<path d="M298.987 94.886C298.987 94.886 291.049 115.688 289.873 117.356C288.501 119.368 264.442 143.113 264.442 143.113L268.852 151.944C268.852 151.944 299.427 134.037 303.445 128.935C307.169 124.176 313.49 107.838 313.49 107.838" fill="#F18671"/>
<path d="M324.711 79.5297C317.9 76.4879 309.08 76.9785 301.485 89.2929C296.439 97.5352 289.873 110.978 289.873 110.978L313.441 123.145L325.887 97.2409" fill="#BFE1DF"/>
<path d="M324.074 101.117L313.49 123.194L289.922 111.027" stroke="#1E3450" stroke-width="0.75" stroke-miterlimit="10" stroke-linejoin="round"/>
<path d="M314.666 78.3031C314.666 78.3031 319.419 77.2237 323.78 79.1371" stroke="#1E3450" stroke-width="0.75" stroke-miterlimit="10" stroke-linejoin="round"/>
<path d="M291.882 107.004L315.499 118.975" stroke="#1E3450" stroke-width="0.75" stroke-miterlimit="10" stroke-linejoin="round"/>
<path d="M266.108 141.494C266.108 141.494 263.168 144.193 259.836 144.978C259.836 144.978 259.934 146.695 259.983 147.038C259.591 147.431 256.553 148.903 255.426 149.295C253.956 149.786 251.996 150.669 252.045 151.454C252.143 152.533 260.473 149.639 260.473 149.639C260.473 149.639 251.849 152.975 251.947 153.858C252.143 155.133 260.816 151.797 260.816 151.797C260.816 151.797 253.515 154.741 253.613 155.673C253.76 156.605 259.052 154.348 261.404 153.711C259.836 154.496 255.622 156.115 255.72 156.802C255.818 157.488 259.101 156.605 259.885 156.36C264.638 154.594 273.262 149.295 273.262 149.295" fill="#F18671"/>
<path d="M401.199 256.004L399.68 283.233C399.68 283.233 385.715 292.898 385.715 293.045C385.715 293.192 398.602 293.683 398.602 293.683L404.286 290.886H413.743C414.38 290.886 414.869 290.298 414.722 289.66L413.547 284.557L417.417 262.774" fill="#F49F8E"/>
<path d="M386.646 291.132C388.655 289.954 395.662 285.539 395.662 285.539L404.237 290.886H414.968V294.86H403.894V292.456H402.914C402.669 292.456 402.424 292.554 402.228 292.702L399.778 294.517C399.484 294.713 399.141 294.86 398.798 294.86H385.666C383.951 294.86 383.559 292.947 386.646 291.132Z" fill="#0A1B1B"/>
<path d="M407.128 291.622L414.282 287.207L413.89 285.539L406.148 290.886L407.128 291.622Z" fill="#0A1B1B"/>
<path d="M451.815 240.108L471.268 259.193C471.268 259.193 469.308 276.07 469.455 276.168C469.602 276.266 478.421 266.895 478.421 266.895L480.087 260.763L486.31 253.649C486.751 253.158 486.604 252.373 486.016 252.079L481.41 249.577L467.642 232.307" fill="#F49F8E"/>
<path d="M468.622 274.255C469.063 271.949 470.386 263.755 470.386 263.755L480.038 260.812L487.143 252.717L490.132 255.317L482.831 263.657L481.067 262.087L480.43 262.823C480.283 263.019 480.185 263.265 480.136 263.51L479.891 266.552C479.842 266.895 479.744 267.239 479.499 267.484L470.827 277.345C469.651 278.768 467.936 277.787 468.622 274.255Z" fill="#0A1B1B"/>
<path d="M482.488 259.193L483.909 250.901L482.39 250.067L481.263 259.438L482.488 259.193Z" fill="#0A1B1B"/>
<path d="M414.87 144.193C414.87 144.193 399.582 188.054 397.622 206.844C395.662 225.586 393.947 274.058 393.947 274.058H422.023C422.023 274.058 425.943 212.781 428.589 203.41C430.059 198.258 431.823 188.74 435.302 171.961C439.957 159.99 442.309 155.477 440.153 145.517" fill="#F39222"/>
<path d="M426.531 143.702C426.531 143.702 426.531 157.684 425.306 164.259C423.689 171.225 414.967 195.854 419.671 209.003C424.326 222.151 458.969 258.064 458.969 258.064L474.256 238.685L445.2 200.613L452.697 170.588C452.697 170.588 460.047 157.439 453.187 144.143" fill="#F39222"/>
<path d="M426.531 151.012C426.531 151.012 426.531 157.685 425.306 164.259C423.689 171.226 414.967 195.854 419.671 209.003C420.749 212.045 423.297 216.117 426.531 220.581" stroke="#92312D" stroke-width="0.75" stroke-miterlimit="10" stroke-linejoin="round"/>
<path d="M417.172 134.429L414.918 144.242C429.373 149.393 453.187 144.242 453.187 144.242L445.641 127.266" fill="#F49F8E"/>
<path d="M471.905 241.678L442.652 205.568C441.574 204.244 441.133 202.527 441.476 200.859L447.111 172.059C447.258 171.176 447.552 170.342 447.944 169.508C449.512 166.074 451.57 154.79 449.904 149.393" stroke="#92312D" stroke-width="0.75" stroke-miterlimit="10" stroke-linejoin="round"/>
<path d="M413.497 148.363C413.497 148.363 425.943 155.182 454.902 148.363" stroke="#92312D" stroke-width="0.75" stroke-miterlimit="10" stroke-linejoin="round"/>
<path d="M422.611 150.816L421.239 150.62C420.798 150.571 420.504 150.178 420.553 149.835L421.19 146.597C421.239 146.204 421.68 145.959 422.121 146.008L425.404 146.302" stroke="#92312D" stroke-width="0.75" stroke-miterlimit="10" stroke-linejoin="round"/>
<path d="M414.869 144.193C429.324 149.344 453.138 144.193 453.138 144.193" stroke="#92312D" stroke-width="0.75" stroke-miterlimit="10" stroke-linejoin="round"/>
<path d="M423.64 149.442C424.317 149.442 424.865 148.981 424.865 148.412C424.865 147.843 424.317 147.382 423.64 147.382C422.964 147.382 422.415 147.843 422.415 148.412C422.415 148.981 422.964 149.442 423.64 149.442Z" fill="#F8F3F1"/>
<path d="M434.028 146.499L434.616 151.307" stroke="#92312D" stroke-width="0.75" stroke-miterlimit="10" stroke-linejoin="round"/>
<path d="M446.474 145.37L447.797 149.835" stroke="#92312D" stroke-width="0.75" stroke-miterlimit="10" stroke-linejoin="round"/>
<path d="M441.378 150.816C441.378 150.816 443.093 156.9 450.296 158.42" stroke="#92312D" stroke-width="0.75" stroke-miterlimit="10" stroke-linejoin="round"/>
<path d="M423.64 150.963C423.64 150.963 422.954 161.609 422.954 162.885C422.954 164.455 425.11 165.191 425.11 165.191" stroke="#92312D" stroke-width="0.75" stroke-miterlimit="10" stroke-linejoin="round"/>
<path d="M411.587 154.103C411.587 154.103 415.458 154.054 418.348 150.325" stroke="#92312D" stroke-width="0.75" stroke-miterlimit="10" stroke-linejoin="round"/>
<path d="M417.858 274.059L423.15 215.675" stroke="#92312D" stroke-width="0.75" stroke-miterlimit="10" stroke-linejoin="round"/>
<path d="M373.318 147.283L377.042 154.544C377.042 154.544 381.795 156.703 381.942 156.605C382.089 156.458 385.029 153.318 385.029 153.171C385.029 153.023 380.913 142.181 380.913 142.181" fill="#F18671"/>
<path d="M413.154 94.9839L404.433 121.379L383.216 146.106L388.361 151.061C388.361 151.061 413.497 132.663 417.319 127.463C421.141 122.213 430.941 94.9348 430.941 94.9348" fill="#F49F8E"/>
<path d="M385.029 144.683C383.51 145.91 380.57 148.019 379.051 149.246C378.169 149.982 376.65 151.306 376.846 151.699C377.336 152.68 379.492 150.129 379.737 150.62C379.884 150.914 377.924 152.435 376.895 153.22C376.013 153.907 374.837 154.937 375.082 155.477C375.376 156.163 380.423 152.239 380.423 152.239C380.423 152.239 375.278 156.556 375.572 157.096C376.013 157.93 381.207 153.612 381.207 153.612C381.207 153.612 376.895 157.341 377.189 157.979C377.483 158.617 380.619 155.82 382.04 154.839C381.158 155.722 378.659 157.832 378.855 158.273C379.1 158.715 381.158 157.341 381.599 156.998C384.441 154.692 389.684 149.687 389.684 149.687" fill="#F49F8E"/>
<path d="M379.786 150.669C379.786 150.669 382.04 150.865 384.098 149.982" stroke="#E17B6D" stroke-width="0.75" stroke-miterlimit="10" stroke-linejoin="round"/>
<path d="M375.278 151.012C375.866 152.484 376.307 153.907 376.993 155.329C377.189 155.673 377.532 156.114 377.875 155.918C378.218 155.771 378.169 155.28 378.12 154.937C377.973 154.25 377.63 152.533 377.63 152.533" fill="#F18671"/>
<path d="M382.285 156.605C381.354 156.065 380.374 155.575 379.394 155.035C379.247 154.937 379.051 154.888 378.904 154.839C378.708 154.839 378.512 154.888 378.463 155.035C378.365 155.231 378.463 155.428 378.561 155.575C379.051 156.458 380.08 156.949 381.011 157.341C381.256 157.439 381.501 157.488 381.746 157.488C381.991 157.488 382.236 157.292 382.285 157.047" fill="#F18671"/>
<path d="M383.216 155.918C382.383 155.231 381.452 154.741 380.57 154.103C380.423 154.005 380.276 153.907 380.129 153.858C379.933 153.808 379.737 153.858 379.639 154.005C379.541 154.152 379.541 154.397 379.639 154.593C379.982 155.575 380.864 156.212 381.795 156.752C381.991 156.899 382.236 156.997 382.481 156.997C382.726 156.997 383.51 156.997 383.461 156.016" fill="#F18671"/>
<path d="M384.049 154.937C383.216 154.25 382.677 153.907 381.795 153.22C381.648 153.122 381.501 153.024 381.354 152.974C381.158 152.925 380.962 152.974 380.864 153.122C380.766 153.269 380.766 153.514 380.864 153.71C381.207 154.692 382.089 155.329 383.02 155.869C383.216 156.016 383.461 156.114 383.706 156.114C383.951 156.114 384.588 156.114 384.441 155.084" fill="#F18671"/>
<path d="M385.029 154.152C384.245 153.416 383.902 153.024 383.069 152.288C382.922 152.189 382.775 152.042 382.628 151.993C382.481 151.944 382.236 151.944 382.138 152.091C381.991 152.239 382.04 152.484 382.089 152.631C382.334 153.612 383.216 154.348 384.049 154.937C384.245 155.084 384.49 155.231 384.735 155.231C384.98 155.28 385.764 154.986 385.323 153.858" fill="#F18671"/>
<path d="M425.845 84.5828C425.845 84.5828 416.29 85.5149 410.705 92.8742C405.756 99.3993 403.061 114.216 403.061 114.216L413.4 121.968L422.219 107.2" fill="#FDE1CB"/>
<path d="M416.143 96.5539C408.892 107.74 408.892 137.569 408.892 137.569C408.892 137.569 427.805 144.438 456.519 136.833C456.519 136.833 450.541 106.072 447.699 103.324C444.857 100.577 428.05 82.0317 428.05 82.0317L418.348 89.7834L416.143 96.5539Z" fill="#FDE1CB"/>
<path d="M463.232 157.832C463.281 159.794 463.134 163.425 463.134 165.338C463.134 166.466 463.281 168.527 463.722 168.576C464.8 168.772 464.114 165.485 464.653 165.632C464.996 165.681 464.947 168.184 464.947 169.459C464.947 170.588 465.045 172.158 465.633 172.305C466.368 172.501 466.417 166.123 466.417 166.123C466.417 166.123 466.613 172.844 467.25 172.943C468.181 173.139 467.985 166.368 467.985 166.368C467.985 166.368 468.23 172.059 468.916 172.207C469.602 172.354 469.307 168.135 469.454 166.417C469.601 167.644 469.699 170.931 470.238 171.029C470.728 171.127 470.924 168.674 470.924 168.036C470.875 164.357 470.14 157.145 470.14 157.145" fill="#F49F8E"/>
<path d="M456.323 100.773C456.323 100.773 464.359 117.405 465.927 121.133C470.386 131.927 470.239 158.322 470.239 158.322L463.379 158.469C463.379 158.469 455.833 128.247 455.098 127.266C452.207 123.636 442.456 108.427 442.456 108.427" fill="#F49F8E"/>
<path d="M429.667 84.5828C429.667 84.5828 443.975 85.1224 451.766 90.8626C459.557 96.5538 465.976 114.363 465.976 114.363L445.788 123.096L437.752 105.63" fill="#FDE1CB"/>
<path d="M437.703 105.63L445.788 123.096L465.927 114.363" stroke="#5B646E" stroke-width="0.75" stroke-miterlimit="10" stroke-linejoin="round"/>
<path d="M427.021 74.4761L431.823 83.0618C431.823 83.0618 432.117 86.8886 427.462 88.5567C424.179 89.7342 423.297 86.349 423.297 86.349L421.239 76.5857" fill="#F49F8E"/>
<path d="M416.438 63.3883C412.861 68.6379 411.146 80.8051 418.299 80.8542C424.032 80.9033 427.952 76.4877 428.54 71.8269C429.373 64.8601 420.014 58.1387 416.438 63.3883Z" fill="#F49F8E"/>
<path d="M422.023 80.1673C422.023 80.1673 424.13 79.3823 426.286 76.9292" stroke="#E17B6D" stroke-width="0.75" stroke-miterlimit="10" stroke-linejoin="round"/>
<path d="M417.564 70.404C417.613 70.7475 417.417 71.0909 417.074 71.1399C416.731 71.189 416.388 70.9928 416.339 70.6493C416.29 70.3059 416.486 69.9625 416.829 69.9134C417.123 69.8153 417.466 70.0606 417.564 70.404Z" fill="#2E0F2B"/>
<path d="M415.849 68.736C416.486 68.3926 417.319 68.2945 418.005 68.4907C418.691 68.687 419.132 69.1776 419.524 69.7173C419.573 69.7663 419.671 69.7173 419.622 69.6682C419.377 68.9814 418.74 68.4907 418.054 68.2454C417.27 68.0001 416.388 68.0982 415.702 68.5398C415.702 68.6379 415.751 68.7851 415.849 68.736Z" fill="#2E0F2B"/>
<path d="M414.526 69.7173C414.526 69.7173 411.685 73.8384 412.028 74.3781C412.665 75.2612 414.135 75.0159 414.135 75.0159" fill="#F49F8E"/>
<path d="M418.152 76.2423L414.331 75.6536C414.331 75.6536 414.429 78.5973 415.654 78.8426C418.103 79.2841 418.152 76.2423 418.152 76.2423Z" fill="white"/>
<path d="M430.549 57.1084C427.07 55.3912 422.66 55.7837 419.622 58.384C417.27 58.384 413.987 59.7087 412.86 62.9467C412.223 64.8111 412.174 67.0679 413.938 68.9322C414.183 68.0491 415.457 64.6148 416.731 63.5355C417.956 64.4676 419.818 66.5282 420.406 67.3132C421.631 68.9813 422.709 70.6984 423.591 72.5628C424.522 74.4762 425.649 76.2914 426.629 78.2048C427.658 80.1182 428.834 81.9826 430.402 83.5525C432.705 85.8584 435.693 87.3793 438.78 88.4587C441.867 89.5381 445.101 90.1268 448.286 90.8627C450.344 91.3533 452.451 91.9421 454.117 93.2667C455.195 94.1498 456.518 95.8179 457.302 96.9463C458.282 93.8555 458.184 90.7646 457.351 88.3115C456.518 85.9075 454.852 85.0735 454.362 84.0922C453.235 81.7373 454.068 80.9032 453.725 78.4011C453.431 76.3405 452.255 74.4762 450.638 73.2006C448.678 71.6306 446.228 71.3362 443.778 70.8947C441.72 70.5512 439.564 69.8644 437.898 68.5888C436.281 67.3623 436.134 64.0751 435.35 62.2598C434.419 60.2483 432.655 58.1387 430.549 57.1084Z" fill="#01443C"/>
<path d="M422.17 72.8081C422.709 71.7287 423.836 71.7287 424.375 71.925C425.649 72.4156 426.041 73.9365 425.747 75.2612C425.453 76.733 424.522 77.2236 423.836 77.3218C423.15 77.4199 422.464 76.6349 422.366 75.5555" fill="#F49F8E"/>
<path d="M409.97 119.515C409.97 119.515 411.048 102.441 413.449 97.437" stroke="#5B646E" stroke-width="0.75" stroke-miterlimit="10" stroke-linejoin="round"/>
<path d="M173.745 148.854C172.863 150.62 171.099 153.76 170.266 155.526C169.776 156.556 168.943 158.42 169.286 158.666C170.168 159.353 171.05 156.115 171.491 156.458C171.736 156.654 170.609 158.862 170.021 159.99C169.482 161.021 168.894 162.394 169.335 162.836C169.923 163.327 172.863 157.685 172.863 157.685C172.863 157.685 170.021 163.768 170.511 164.161C171.246 164.749 174.137 158.617 174.137 158.617C174.137 158.617 171.785 163.817 172.324 164.259C172.863 164.7 174.529 160.824 175.411 159.353C174.97 160.53 173.598 163.523 173.99 163.817C174.382 164.112 175.656 162.051 175.95 161.462C177.567 158.175 180.213 151.405 180.213 151.405" fill="#F49F8E"/>
</svg>
