<svg width="633" height="579" viewBox="0 0 633 579" fill="none" xmlns="http://www.w3.org/2000/svg">
<path d="M239 546C286.496 546 325 540.851 325 534.5C325 528.149 286.496 523 239 523C191.504 523 153 528.149 153 534.5C153 540.851 191.504 546 239 546Z" fill="#CE5700"/>
<path d="M443 493C490.496 493 529 487.851 529 481.5C529 475.149 490.496 470 443 470C395.504 470 357 475.149 357 481.5C357 487.851 395.504 493 443 493Z" fill="#CE5700"/>
<path d="M325 426C358.689 426 386 423.314 386 420C386 416.686 358.689 414 325 414C291.311 414 264 416.686 264 420C264 423.314 291.311 426 325 426Z" fill="#CE5700"/>
<path d="M424.891 383.452H410.956V476.766H424.891V383.452Z" fill="#385A65"/>
<path d="M507.008 372.284H401.066V385.176H507.008V372.284Z" fill="#385A65"/>
<path d="M491.573 423.251H418.748V436.143H491.573V423.251Z" fill="#385A65"/>
<path d="M498.541 383.452H484.605V476.766H498.541V383.452Z" fill="#385A65"/>
<path d="M506.933 385.026C506.933 385.176 483.182 385.325 453.887 385.325C424.592 385.325 400.841 385.176 400.841 385.026C400.841 384.876 424.592 384.726 453.887 384.726C483.182 384.726 506.933 384.876 506.933 385.026Z" fill="#192E35"/>
<path d="M424.966 447.086C424.816 447.086 424.667 440.19 424.667 431.646C424.667 423.101 424.816 416.206 424.966 416.206C425.116 416.206 425.266 423.101 425.266 431.646C425.266 440.115 425.116 447.086 424.966 447.086Z" fill="#192E35"/>
<path d="M484.605 446.486C484.455 446.486 484.306 440.04 484.306 432.095C484.306 424.15 484.455 417.705 484.605 417.705C484.755 417.705 484.905 424.15 484.905 432.095C484.905 440.04 484.755 446.486 484.605 446.486Z" fill="#192E35"/>
<path d="M507.532 375.807C507.532 375.807 507.157 375.732 506.408 375.507C505.659 375.357 504.61 375.132 503.186 375.057C500.339 374.907 496.219 375.507 491.498 377.306C489.101 378.205 486.628 379.329 483.856 380.454C481.084 381.578 478.162 382.777 474.79 383.452C471.494 384.126 467.897 384.051 464.301 383.302C460.705 382.627 457.108 381.353 453.587 379.854C449.991 378.355 446.544 376.856 443.173 375.582C439.801 374.308 436.355 373.408 433.058 372.959C426.39 372.059 420.321 372.959 415.526 374.308C410.656 375.657 406.985 377.68 404.587 379.105C403.988 379.479 403.463 379.854 403.014 380.154C402.564 380.454 402.19 380.753 401.89 380.978C401.29 381.428 400.991 381.653 400.991 381.653C400.991 381.653 401.29 381.428 401.89 380.978C402.19 380.753 402.564 380.454 403.014 380.154C403.463 379.854 403.988 379.479 404.587 379.105C406.985 377.606 410.581 375.582 415.526 374.233C420.396 372.809 426.465 371.984 433.133 372.809C436.43 373.183 439.876 374.158 443.323 375.432C446.769 376.706 450.215 378.28 453.737 379.704C457.333 381.203 460.855 382.402 464.451 383.152C467.972 383.826 471.569 383.901 474.865 383.302C478.162 382.627 481.084 381.503 483.856 380.379C486.628 379.254 489.101 378.055 491.498 377.231C496.219 375.432 500.414 374.832 503.261 375.057C504.685 375.132 505.734 375.357 506.483 375.582C507.157 375.657 507.532 375.807 507.532 375.807Z" fill="#192E35"/>
<path d="M427.963 378.805C427.963 378.805 426.989 379.479 424.966 380.079C423.018 380.678 419.946 381.128 416.425 380.079L416.275 380.004L416.35 379.929C417.998 378.28 420.246 376.781 422.943 375.807C425.641 374.832 428.712 374.382 431.859 374.757C432.833 374.907 433.807 375.057 434.706 375.357C435.605 375.657 436.579 375.956 437.329 376.481C438.078 377.006 438.602 377.98 438.453 378.955C438.228 379.929 437.329 380.454 436.579 380.753C433.358 381.878 430.286 382.477 427.664 382.777C425.116 383.077 422.943 383.077 421.52 383.077C420.096 383.002 419.272 382.927 419.272 382.927C419.272 382.927 419.497 382.927 419.872 382.927C420.321 382.927 420.845 382.927 421.52 383.002C422.943 383.002 425.041 383.002 427.664 382.627C430.211 382.327 433.283 381.728 436.504 380.529C437.254 380.229 438.078 379.704 438.228 378.88C438.378 378.055 437.928 377.156 437.179 376.631C436.43 376.106 435.53 375.807 434.631 375.507C433.732 375.207 432.758 375.057 431.784 374.907C428.712 374.532 425.641 374.982 423.018 375.882C420.396 376.856 418.148 378.28 416.5 379.929V379.779C419.946 380.828 423.018 380.454 424.966 379.854C425.94 379.554 426.69 379.254 427.214 379.029C427.738 378.955 427.963 378.805 427.963 378.805Z" fill="#192E35"/>
<path d="M499.965 381.428C500.04 381.428 499.965 381.878 500.414 382.552C500.864 383.152 501.988 383.826 503.411 383.751C504.086 383.677 504.91 383.452 505.509 382.927C506.108 382.402 506.558 381.503 506.408 380.604C506.183 379.704 505.359 379.03 504.385 378.805C503.411 378.58 502.287 378.655 501.238 378.73C499.066 378.88 496.968 379.104 495.095 379.629C493.297 380.154 491.723 380.903 490.524 381.653C489.326 382.402 488.501 383.227 487.977 383.826C487.677 384.126 487.527 384.351 487.378 384.576C487.228 384.726 487.153 384.801 487.153 384.801C487.153 384.801 487.378 384.426 487.902 383.751C488.427 383.152 489.251 382.252 490.449 381.503C491.648 380.678 493.222 379.929 495.095 379.404C496.968 378.88 499.066 378.58 501.238 378.43C502.362 378.355 503.411 378.28 504.46 378.505C505.509 378.73 506.483 379.479 506.633 380.454C506.858 381.428 506.333 382.402 505.659 382.927C504.985 383.452 504.16 383.677 503.411 383.751C501.913 383.826 500.789 383.077 500.339 382.477C500.115 382.177 499.965 381.803 499.965 381.653C499.965 381.578 499.965 381.428 499.965 381.428Z" fill="#192E35"/>
<path d="M505.584 371.834C505.584 371.834 505.359 371.834 505.059 371.834C504.61 371.834 504.085 371.834 503.486 371.834C502.812 371.909 501.913 371.909 500.939 371.984C499.965 372.134 498.841 372.209 497.642 372.509C495.17 373.033 492.322 373.858 489.251 374.907C486.104 375.957 482.732 377.231 478.986 378.13C475.315 379.105 471.644 379.479 468.347 379.254C465.05 379.03 462.128 378.13 459.881 377.156C457.558 376.181 455.91 375.057 454.786 374.158C453.662 373.333 453.137 372.734 453.137 372.734C453.137 372.734 453.287 372.809 453.587 373.108C453.887 373.333 454.336 373.708 454.861 374.083C455.985 374.907 457.708 375.957 459.956 377.006C462.278 377.98 465.125 378.805 468.422 379.105C471.719 379.329 475.315 378.88 478.986 377.98C482.657 377.006 486.104 375.807 489.251 374.757C492.397 373.708 495.244 372.884 497.717 372.434C498.916 372.134 500.04 372.059 501.089 371.909C502.063 371.834 502.962 371.834 503.636 371.759C504.31 371.759 504.835 371.834 505.209 371.834C505.359 371.834 505.584 371.834 505.584 371.834Z" fill="#192E35"/>
<path d="M486.104 476.991C486.104 476.991 486.104 476.691 486.029 476.017C486.029 475.417 486.029 474.518 486.104 473.318C486.328 470.995 487.153 467.697 488.651 463.8C490.15 459.902 492.397 455.405 493.821 450.083C494.495 447.385 494.945 444.537 495.169 441.539C495.319 438.541 495.169 435.393 494.57 432.32C494.046 429.172 493.147 426.174 491.948 423.401C490.824 420.628 489.55 418.004 488.726 415.381C487.902 412.758 487.602 410.059 487.902 407.586C488.202 405.113 489.026 402.939 490 401.065C491.948 397.318 494.345 394.844 495.994 393.195C497.642 391.546 498.691 390.722 498.691 390.722C498.691 390.722 498.466 390.947 498.017 391.397C497.567 391.846 496.893 392.446 496.069 393.27C494.42 394.919 492.098 397.393 490.15 401.14C489.176 403.014 488.426 405.188 488.052 407.586C487.677 409.984 487.977 412.683 488.876 415.306C489.7 417.929 490.974 420.553 492.098 423.326C493.221 426.099 494.195 429.097 494.72 432.245C495.319 435.393 495.394 438.541 495.319 441.539C495.169 444.537 494.72 447.46 493.971 450.083C492.472 455.405 490.225 459.902 488.726 463.8C487.153 467.697 486.328 470.995 486.104 473.318C485.954 474.443 485.954 475.417 485.954 476.017C486.104 476.691 486.104 476.991 486.104 476.991Z" fill="#192E35"/>
<path d="M484.306 418.754C484.306 418.754 484.381 418.904 484.53 419.204C484.68 419.578 484.905 419.953 485.205 420.478C485.804 421.602 486.628 423.251 487.602 425.275C488.576 427.373 489.625 429.847 490.449 432.695C491.348 435.543 491.948 438.841 491.873 442.364C491.798 445.886 491.124 449.109 490.3 452.032C489.475 454.955 488.426 457.429 487.602 459.527C486.703 461.626 485.954 463.275 485.43 464.399C485.205 464.924 484.98 465.374 484.83 465.748C484.68 466.048 484.605 466.198 484.605 466.198C484.605 466.198 484.68 466.048 484.83 465.748C484.98 465.374 485.205 464.924 485.43 464.399C485.954 463.275 486.703 461.551 487.602 459.453C489.251 455.255 491.648 449.334 491.798 442.364C491.873 438.916 491.273 435.618 490.449 432.77C489.625 429.922 488.576 427.373 487.602 425.35C486.703 423.251 485.879 421.602 485.28 420.478C485.055 419.953 484.83 419.503 484.605 419.129C484.381 418.904 484.306 418.754 484.306 418.754Z" fill="#192E35"/>
<path d="M494.795 413.357C494.795 413.357 494.72 413.282 494.645 413.057C494.57 412.833 494.57 412.458 494.87 412.083C495.095 411.708 495.769 411.558 496.293 411.783C496.893 412.008 497.342 412.608 497.642 413.282C497.867 414.032 498.092 414.856 498.017 415.756C497.942 416.655 497.867 417.629 497.267 418.529C496.968 418.979 496.593 419.353 495.994 419.503C495.394 419.653 494.87 419.203 494.57 418.754C493.971 417.779 493.596 416.73 493.221 415.681C492.547 413.432 492.472 411.184 492.847 409.235C493.147 407.286 493.821 405.562 494.57 404.288C495.319 403.014 496.144 402.04 496.668 401.44C497.267 400.84 497.642 400.541 497.642 400.541C497.642 400.541 497.567 400.615 497.417 400.765C497.267 400.915 497.043 401.14 496.743 401.44C496.218 402.04 495.394 403.014 494.645 404.288C493.896 405.562 493.221 407.286 492.922 409.235C492.622 411.184 492.697 413.432 493.371 415.606C493.671 416.73 494.121 417.779 494.645 418.679C494.945 419.128 495.394 419.428 495.844 419.353C496.293 419.278 496.668 418.904 496.968 418.529C497.492 417.704 497.642 416.73 497.642 415.906C497.642 415.006 497.492 414.182 497.267 413.507C497.043 412.833 496.593 412.233 496.069 412.083C495.544 411.858 494.945 412.008 494.72 412.308C494.495 412.608 494.42 412.982 494.495 413.207C494.72 413.282 494.795 413.357 494.795 413.357Z" fill="#192E35"/>
<path d="M500.115 449.709C500.115 449.709 500.04 449.784 499.965 449.934C499.815 450.158 499.665 450.383 499.515 450.608C499.141 451.208 498.616 452.107 498.017 453.231C496.818 455.48 495.469 458.778 494.57 462.525C493.671 466.348 493.446 469.871 493.521 472.419C493.521 473.693 493.596 474.743 493.671 475.417C493.671 475.717 493.746 476.017 493.746 476.242C493.746 476.466 493.746 476.541 493.746 476.541C493.746 476.541 493.446 474.967 493.371 472.419C493.296 469.871 493.521 466.273 494.345 462.525C495.245 458.703 496.668 455.48 497.867 453.231C499.141 450.983 500.115 449.709 500.115 449.709Z" fill="#192E35"/>
<path d="M484.081 431.795C484.081 431.795 480.934 432.995 475.69 434.194C470.445 435.318 462.953 436.367 454.711 435.843C450.59 435.618 446.694 435.093 443.248 434.344C439.726 433.669 436.654 432.62 434.107 431.945C431.485 431.196 429.387 430.896 427.888 430.821C427.139 430.821 426.54 430.821 426.165 430.821C425.79 430.821 425.566 430.821 425.566 430.821C425.566 430.821 426.39 430.671 427.888 430.746C429.387 430.746 431.56 431.121 434.182 431.795C436.804 432.47 439.876 433.444 443.323 434.194C446.769 434.943 450.665 435.468 454.786 435.693C463.027 436.218 470.445 435.168 475.69 434.119C478.312 433.519 480.41 432.995 481.833 432.545C482.508 432.32 483.032 432.17 483.482 432.02C483.931 431.87 484.081 431.795 484.081 431.795Z" fill="#192E35"/>
<path d="M466.848 427.673C466.848 427.673 465.8 428.198 463.777 428.722C461.754 429.247 458.682 429.697 455.01 428.947C454.561 428.872 454.111 428.722 453.662 428.423C453.212 428.198 452.763 427.823 452.538 427.373C452.313 426.849 452.463 426.249 452.838 425.874C453.287 425.5 453.812 425.35 454.336 425.2C456.509 424.825 458.832 424.6 461.304 424.525C466.249 424.45 471.718 425.05 477.188 426.774C478.237 427.074 479.286 427.448 480.26 427.823L480.485 427.898L480.26 427.973C475.39 430.147 470.445 431.496 465.949 432.095C461.379 432.695 457.258 432.695 453.887 432.395C450.44 432.095 447.743 431.496 445.945 431.046C444.072 430.521 443.098 430.222 443.098 430.222C443.098 430.222 443.322 430.296 443.847 430.446C444.296 430.596 445.046 430.821 445.945 430.971C447.818 431.421 450.515 431.945 453.887 432.245C457.258 432.545 461.379 432.545 465.874 431.945C470.37 431.346 475.315 429.997 480.11 427.823V428.048C479.136 427.673 478.162 427.298 477.113 426.999C471.718 425.275 466.249 424.675 461.304 424.75C458.832 424.825 456.509 425.05 454.336 425.35C453.812 425.425 453.287 425.649 452.913 425.949C452.538 426.324 452.463 426.849 452.613 427.298C453.062 428.198 454.111 428.573 454.936 428.797C458.607 429.547 461.679 429.097 463.702 428.648C464.751 428.423 465.5 428.123 466.024 427.973C466.624 427.748 466.848 427.673 466.848 427.673Z" fill="#192E35"/>
<path d="M426.015 428.647C426.015 428.647 426.24 428.497 426.615 428.273C426.989 428.048 427.514 427.823 428.263 427.523C429.686 426.923 431.709 426.399 434.107 426.249C436.43 426.174 438.527 426.549 440.026 426.923C440.775 427.148 441.374 427.373 441.749 427.523C442.124 427.673 442.349 427.823 442.349 427.823C442.349 427.823 442.124 427.748 441.749 427.598C441.374 427.448 440.775 427.223 440.026 427.073C438.602 426.699 436.504 426.324 434.182 426.474C431.859 426.549 429.836 427.148 428.413 427.673C427.738 427.973 427.139 428.198 426.764 428.348C426.24 428.572 426.015 428.647 426.015 428.647Z" fill="#192E35"/>
<path d="M418.073 450.533C418.073 450.533 417.848 450.233 417.399 449.709C417.024 449.184 416.35 448.36 415.825 447.16C415.601 446.561 415.376 445.811 415.376 444.987C415.376 444.162 415.676 443.263 416.275 442.513C416.874 441.764 417.773 441.089 418.897 441.239C419.422 441.314 419.946 441.614 420.396 441.989C420.77 442.363 421.07 442.888 421.295 443.488C421.744 444.612 421.819 445.886 421.969 447.16C422.044 448.435 422.044 449.784 421.969 451.133C421.819 452.482 421.595 453.906 421.295 455.405C421.145 456.155 420.92 456.829 420.696 457.579C420.471 458.328 420.171 459.003 419.722 459.677C419.272 460.352 418.523 460.876 417.699 460.876C416.8 460.876 416.125 460.277 415.676 459.602C415.226 458.928 414.852 458.178 414.627 457.354C414.402 456.529 414.177 455.78 413.952 454.88C413.203 451.583 413.053 447.985 413.503 444.462C413.952 440.864 415.001 437.492 415.975 434.269C417.024 431.046 418.073 427.973 418.822 424.975C420.321 418.904 420.321 413.282 419.647 408.635C418.972 403.988 417.774 400.391 416.799 397.917C416.275 396.718 415.9 395.744 415.526 395.144C415.226 394.544 415.076 394.17 415.076 394.17C415.076 394.17 415.226 394.469 415.601 395.069C415.9 395.669 416.35 396.568 416.874 397.842C417.848 400.241 419.122 403.913 419.796 408.56C420.471 413.207 420.471 418.904 419.047 424.975C418.298 427.973 417.249 431.121 416.275 434.344C415.226 437.567 414.252 440.939 413.803 444.462C413.353 447.985 413.503 451.508 414.252 454.805C414.402 455.63 414.627 456.454 414.926 457.204C415.151 458.028 415.451 458.778 415.9 459.377C416.35 460.052 417.024 460.577 417.773 460.577C418.523 460.577 419.197 460.127 419.647 459.452C420.096 458.853 420.396 458.103 420.621 457.429C420.845 456.679 421.07 456.005 421.22 455.255C421.595 453.831 421.819 452.407 421.894 451.058C422.044 449.709 422.044 448.36 421.969 447.085C421.894 445.811 421.744 444.612 421.37 443.488C420.995 442.438 420.171 441.464 419.122 441.314C418.073 441.164 417.174 441.839 416.575 442.513C415.975 443.263 415.751 444.087 415.751 444.912C415.751 445.736 415.975 446.411 416.2 447.01C416.725 448.21 417.324 449.034 417.773 449.634C417.848 450.233 418.073 450.533 418.073 450.533Z" fill="#192E35"/>
<path d="M424.442 453.456C424.442 453.456 424.667 454.955 424.367 457.354C424.142 459.752 423.318 463.05 421.595 466.348C419.797 469.571 417.549 472.194 415.451 473.393C414.402 473.993 413.428 474.218 412.679 474.218C412.004 474.218 411.63 474.143 411.63 474.143C411.63 474.143 412.004 474.218 412.679 474.143C413.353 474.143 414.327 473.918 415.376 473.318C417.474 472.119 419.647 469.496 421.445 466.348C423.168 463.125 423.992 459.827 424.292 457.504C424.442 456.304 424.442 455.33 424.517 454.656C424.517 454.356 424.517 454.131 424.517 453.906C424.367 453.531 424.442 453.456 424.442 453.456Z" fill="#192E35"/>
<path d="M412.154 385.101C412.154 385.101 412.079 385.251 412.004 385.55C411.855 385.85 411.705 386.3 411.555 386.899C411.255 388.099 410.956 389.897 411.18 392.146C411.405 394.395 412.154 396.943 413.353 399.641C414.477 402.339 416.05 405.263 417.099 408.485C417.624 410.134 417.998 411.783 418.148 413.357C418.298 415.006 418.223 416.505 417.998 418.004C417.624 420.927 416.725 423.476 415.9 425.574C415.076 427.673 414.177 429.247 413.653 430.371C413.053 431.496 412.679 432.095 412.679 432.095C412.679 432.095 412.754 431.945 412.904 431.645C413.053 431.271 413.278 430.896 413.578 430.371C414.177 429.247 414.926 427.673 415.826 425.574C416.65 423.476 417.549 420.927 417.923 418.004C418.148 416.58 418.148 415.006 418.073 413.432C417.923 411.858 417.549 410.209 417.024 408.56C415.975 405.337 414.402 402.414 413.278 399.716C412.079 397.018 411.405 394.395 411.18 392.146C410.956 389.897 411.255 388.099 411.555 386.899C411.78 385.7 412.154 385.101 412.154 385.101Z" fill="#192E35"/>
<path d="M423.543 414.706C423.543 414.706 423.543 414.557 423.618 414.407C423.618 414.182 423.768 413.882 423.768 413.507C423.917 412.683 423.992 411.483 423.992 410.059C423.992 407.136 423.093 403.089 421.52 398.817C419.946 394.619 418.298 390.797 417.549 387.949C416.725 385.101 416.5 383.302 416.5 383.302C416.5 383.302 416.5 383.377 416.575 383.602C416.65 383.826 416.65 384.126 416.8 384.501C416.95 385.325 417.249 386.45 417.699 387.874C418.523 390.722 420.171 394.47 421.745 398.667C423.318 402.939 424.142 406.986 424.142 409.984C424.142 411.483 423.992 412.683 423.842 413.507C423.693 414.257 423.543 414.706 423.543 414.706Z" fill="#192E35"/>
<path d="M399.118 416.73L393.049 464.399L413.878 467.697L426.839 419.354L399.118 416.73Z" fill="#F9BE9D"/>
<path d="M393.648 458.104L393.348 459.453C393.348 459.453 368.099 464.699 366.975 469.046L413.578 476.841L415.826 461.476C408.408 463.425 401.066 462.526 393.648 458.104Z" fill="#02706E"/>
<path d="M428.188 417.255L431.56 458.853L450.665 456.08L451.939 415.231L428.188 417.255Z" fill="#F9BE9D"/>
<path d="M450.74 447.91C450.74 447.91 437.928 458.253 430.81 450.683L429.387 454.731L423.767 483.212C423.393 485.086 424.442 486.96 426.24 487.559C427.664 488.009 429.162 487.559 430.136 486.51C435.306 480.963 454.261 460.427 453.812 457.804L453.212 450.983C453.063 449.484 452.089 448.285 450.74 447.91Z" fill="#02706E"/>
<path d="M509.555 329.636C509.555 329.636 519.82 366.213 491.798 372.584L447.069 373.033L420.096 445.137L393.199 443.263L403.014 362.24C404.213 352.122 411.63 343.802 421.595 341.629L479.511 328.962L509.555 329.636Z" fill="#02706E"/>
<path d="M425.566 168.491C405.187 164.968 403.313 183.406 403.463 188.728C403.613 194.049 405.411 198.696 407.284 203.643C409.157 208.59 407.959 215.336 406.385 220.432C404.587 226.354 398.743 231.75 400.766 237.596C402.414 242.168 408.483 244.417 409.232 249.214C409.832 253.036 406.76 256.334 405.636 260.007C403.538 266.977 408.408 273.873 412.979 279.569C414.852 281.893 417.174 284.441 420.171 284.441C424.292 284.516 426.764 280.019 428.638 276.346C433.807 266.153 441.524 257.159 450.89 250.563" fill="#01443C"/>
<path d="M379.712 281.293L367.725 269.151C367.5 268.926 367.2 268.851 366.9 268.926L352.965 272.523C352.29 272.673 352.066 273.498 352.59 273.948L375.592 297.932C375.592 297.932 392.824 293.21 392.3 292.985C391.85 292.76 379.712 281.293 379.712 281.293Z" fill="#192E35"/>
<path d="M363.304 287.739L363.529 287.064C363.829 286.315 364.503 285.865 365.327 285.94C368.099 286.09 374.543 286.464 374.543 286.689C374.543 286.989 375.142 288.638 373.119 289.163C371.096 289.687 367.5 289.238 367.5 289.238L370.497 292.61L371.471 291.336C371.771 291.036 372.145 290.887 372.595 290.962L377.839 291.561C377.839 291.561 378.289 293.66 376.716 293.96C375.142 294.259 373.194 294.109 373.194 294.109L372.595 298.007L378.139 302.279L376.116 305.427L368.774 301.68L367.575 297.932C367.425 297.482 367.5 297.033 367.65 296.658L368.024 295.833L366.601 294.859C366.001 294.484 365.702 293.735 365.852 293.06L366.001 292.011L363.679 289.837C363.229 289.238 363.004 288.413 363.304 287.739Z" fill="#F9BE9D"/>
<path d="M387.654 298.757L383.983 295.609L373.194 294.035L372.595 297.932L368.773 301.605L383.309 308.95L387.654 298.757Z" fill="#F9BE9D"/>
<path d="M382.41 282.117C383.159 282.192 383.908 281.892 384.507 281.443L385.107 280.918C386.081 279.644 387.654 279.044 389.228 279.419L397.544 282.642L406.46 289.912L402.04 301.155L386.605 297.182C384.957 296.733 383.533 295.683 382.709 294.184L381.211 291.561C381.211 291.561 375.966 289.537 376.416 286.614L364.952 284.216C364.952 284.216 364.203 282.642 366.001 281.892C367.425 281.218 378.663 281.892 382.41 282.117Z" fill="#F9BE9D"/>
<path d="M384.882 288.263C384.882 288.413 380.387 287.589 374.917 286.464C369.448 285.34 365.027 284.291 365.027 284.141C365.027 283.991 369.523 284.815 374.992 285.94C380.462 287.064 384.882 288.113 384.882 288.263Z" fill="#F3986E"/>
<path d="M385.407 293.585C385.332 293.735 384.433 293.21 383.309 292.61C382.185 292.011 381.211 291.636 381.286 291.486C381.361 291.336 382.41 291.561 383.534 292.161C384.732 292.76 385.482 293.51 385.407 293.585Z" fill="#F3986E"/>
<path d="M374.842 300.63C374.768 300.705 373.719 299.656 372.145 298.007L372.07 297.932V297.782C372.22 296.808 372.37 295.684 372.67 294.409C372.745 294.11 372.969 293.81 373.269 293.735C373.569 293.585 373.794 293.585 374.018 293.585C374.468 293.585 374.917 293.51 375.367 293.51C375.816 293.51 376.191 293.435 376.641 293.51C376.94 293.585 377.315 293.435 377.465 293.285C377.839 292.91 377.914 292.386 377.839 292.011C377.839 291.636 377.69 291.486 377.764 291.486C377.764 291.486 377.989 291.636 378.064 292.011C378.139 292.386 378.214 292.985 377.69 293.585C377.39 293.885 376.94 293.96 376.566 293.96C376.191 293.96 375.816 294.035 375.367 294.035C374.917 294.11 374.468 294.11 374.018 294.185C373.494 294.26 373.269 294.334 373.119 294.709C372.894 295.834 372.67 297.033 372.445 297.932L372.37 297.707C373.943 299.431 374.917 300.555 374.842 300.63Z" fill="#F3986E"/>
<path d="M366.676 287.739C367.575 289.088 373.569 289.313 374.093 289.238C374.693 289.088 375.142 289.238 375.517 289.463C376.041 289.837 375.966 290.587 375.367 290.887L369.972 293.135L366.676 287.739Z" fill="#F9BE9D"/>
<path d="M374.243 291.112C374.243 291.187 373.943 291.187 373.494 291.187C373.269 291.187 372.969 291.187 372.595 291.187C372.445 291.187 372.295 291.187 372.07 291.261C371.995 291.261 371.92 291.336 371.845 291.336C371.845 291.336 371.771 291.336 371.771 291.411C371.771 291.411 371.771 291.486 371.771 291.336L371.696 291.486C371.396 292.011 370.946 292.611 370.572 293.21C368.998 295.384 367.5 297.033 367.425 296.883C367.275 296.808 368.624 295.084 370.122 292.91C370.497 292.311 370.946 291.786 371.321 291.187L371.246 291.336C371.321 291.112 371.396 291.112 371.471 291.037C371.546 290.962 371.621 290.962 371.621 290.962C371.771 290.887 371.845 290.887 371.92 290.887C372.145 290.887 372.295 290.887 372.52 290.887C372.894 290.887 373.194 290.962 373.419 290.962C374.018 290.962 374.243 291.037 374.243 291.112Z" fill="#F3986E"/>
<path d="M374.692 289.163C374.692 289.313 372.52 289.388 369.897 289.388C369.223 289.388 368.624 289.388 368.174 289.537C367.725 289.687 367.35 290.062 367.125 290.362C366.676 291.036 366.451 291.561 366.376 291.486C366.301 291.486 366.376 290.962 366.825 290.137C367.05 289.762 367.425 289.238 368.024 289.013C368.624 288.713 369.298 288.713 369.972 288.788C372.595 288.863 374.692 289.013 374.692 289.163Z" fill="#F3986E"/>
<g opacity="0.3">
<g opacity="0.3">
<path opacity="0.3" d="M449.241 314.122C451.489 314.347 454.861 313.447 456.284 311.798C457.783 310.074 459.431 308.35 460.405 306.327C462.428 302.054 466.174 296.358 467.972 292.835C468.122 293.885 464.975 304.078 464.751 309.025C464.601 311.723 464.751 314.646 466.474 316.82C467.598 318.319 469.396 319.218 470.595 320.567C473.067 323.191 473.292 327.613 471.194 330.536C470.07 332.035 468.122 333.159 466.399 332.485C465.425 332.11 464.751 331.286 464.301 330.386C463.852 329.487 463.627 328.512 463.252 327.538C461.829 323.491 459.056 319.893 455.385 317.644C453.587 316.52 451.489 314.871 449.541 313.972" fill="#020203"/>
</g>
</g>
<path d="M382.56 310.824L405.486 318.469C413.653 321.242 422.719 319.293 429.012 313.297L437.104 305.577L413.128 299.056L400.242 300.48L388.329 296.658L382.56 310.824Z" fill="#F39222"/>
<path d="M493.147 297.333C489.251 292.761 487.153 286.839 487.527 280.843C487.527 280.468 487.602 280.094 487.602 279.719C489.101 266.003 491.723 243.742 486.478 232.649C483.032 225.379 461.529 221.931 461.529 221.931L436.654 227.028L425.266 237.072C423.468 238.646 422.269 240.819 421.894 243.218L411.48 308.425L432.608 306.926L434.257 288.039L436.579 312.997C436.579 312.997 456.659 328.662 463.177 331.51C469.696 334.434 481.084 326.339 489.85 329.936C498.616 333.534 510.004 329.936 510.004 329.936C510.529 319.518 499.365 304.678 493.147 297.333Z" fill="#F39222"/>
<path d="M473.891 229.576L441.899 287.589L407.359 288.188L401.515 302.954L446.17 313.222C451.264 314.122 455.16 313.447 458.457 309.4L487.827 254.61C487.827 254.535 490.225 230.251 473.891 229.576Z" fill="#F39222"/>
<g opacity="0.3">
<path opacity="0.3" d="M386.83 300.63C386.83 300.63 392.449 302.129 396.046 303.029C397.619 303.479 398.668 305.053 398.368 306.701C398.069 308.5 399.267 310.149 401.066 310.449C408.933 311.498 428.263 314.122 428.562 313.822C429.012 313.372 432.309 309.999 432.309 309.999L401.515 302.879L402.04 301.08L388.179 297.482L386.83 300.63Z" fill="#020203"/>
</g>
<path d="M435.231 287.664C435.231 287.664 435.081 287.364 434.781 286.764C434.482 286.09 434.182 285.19 433.732 284.141L433.807 284.216C432.534 283.167 430.96 281.518 429.836 279.269C428.638 277.021 428.113 274.172 428.113 271.174C428.113 268.626 428.338 266.228 428.413 264.054C428.488 261.88 428.413 259.932 428.038 258.283C427.439 254.985 426.09 253.411 426.165 253.336C426.165 253.336 426.24 253.411 426.39 253.636C426.54 253.861 426.765 254.16 426.989 254.535C427.439 255.36 428.038 256.634 428.413 258.208C428.787 259.857 428.937 261.88 428.862 264.054C428.787 266.228 428.563 268.701 428.563 271.174C428.563 274.097 429.087 276.871 430.136 279.044C431.185 281.218 432.609 282.867 433.882 283.916V283.991C434.257 285.04 434.557 285.94 434.781 286.689C435.156 287.289 435.231 287.664 435.231 287.664Z" fill="#D67827"/>
<path d="M484.905 298.382C484.905 298.382 484.98 298.757 485.055 299.506C485.13 300.256 485.13 301.305 484.98 302.654C484.755 305.277 483.781 309.025 481.459 312.473C479.211 315.92 476.139 318.244 473.816 319.518C472.618 320.193 471.644 320.567 470.969 320.867C470.295 321.092 469.845 321.242 469.845 321.167C469.771 321.092 471.419 320.567 473.667 319.218C475.914 317.869 478.836 315.546 481.009 312.173C483.257 308.8 484.231 305.202 484.531 302.654C484.905 300.031 484.755 298.382 484.905 298.382Z" fill="#D67827"/>
<path d="M478.612 230.551C478.612 230.551 478.462 230.551 478.237 230.551C478.012 230.551 477.638 230.551 477.188 230.626C476.214 230.701 474.865 230.926 473.142 231.675C469.771 233.174 465.8 237.296 463.252 243.592C458.008 254.535 450.74 269.825 442.199 287.664L442.124 287.814H441.974C431.335 288.039 419.647 288.188 407.434 288.413L407.659 288.263C406.235 291.861 404.737 295.684 403.163 299.506C402.714 300.705 402.264 301.83 401.74 303.029L401.515 302.654C419.422 306.776 436.205 310.674 450.815 314.047H450.74C452.988 313.522 455.086 312.548 456.734 311.049C457.558 310.299 458.157 309.475 458.757 308.5C459.281 307.526 459.881 306.626 460.405 305.727C462.503 302.054 464.526 298.532 466.474 295.159C470.22 288.563 473.517 282.717 476.214 277.92C478.911 273.123 481.084 269.376 482.508 266.827C483.257 265.553 483.781 264.579 484.156 263.904C484.306 263.604 484.456 263.305 484.605 263.155C484.68 263.005 484.755 262.93 484.755 262.93C484.755 262.93 484.755 263.005 484.605 263.23C484.53 263.454 484.381 263.679 484.231 263.979C483.856 264.654 483.332 265.628 482.582 266.977C481.159 269.6 479.061 273.348 476.364 278.145C473.667 282.942 470.445 288.788 466.699 295.384C464.826 298.682 462.803 302.204 460.705 305.952C460.18 306.851 459.581 307.826 459.056 308.725C458.532 309.7 457.858 310.599 456.959 311.348C455.235 312.922 453.137 313.897 450.74 314.421H450.665H450.59C435.98 311.049 419.122 307.226 401.29 303.104L400.991 303.029L401.141 302.729C401.59 301.605 402.04 300.406 402.564 299.206C404.063 295.384 405.636 291.561 407.06 287.964L407.134 287.814H407.284C419.497 287.589 431.185 287.439 441.824 287.214L441.599 287.364C450.216 269.526 457.558 254.31 462.803 243.367C465.5 236.997 469.546 232.874 472.917 231.45C474.641 230.701 476.064 230.476 477.038 230.476C477.488 230.476 477.862 230.476 478.162 230.476C478.462 230.551 478.612 230.551 478.612 230.551Z" fill="#D67827"/>
<path d="M461.004 322.741C455.984 316.745 448.492 312.248 440.625 312.623C434.781 312.922 427.289 315.696 422.494 318.469C408.783 326.264 411.33 343.952 411.33 343.952L426.24 437.867L453.887 434.269L450.89 343.952L466.249 332.26L461.004 322.741Z" fill="#02706E"/>
<path d="M466.624 332.11C466.624 332.11 466.549 332.185 466.399 332.335C466.174 332.485 465.949 332.785 465.575 333.01C464.825 333.609 463.776 334.509 462.428 335.633C459.656 337.956 455.76 341.179 451.039 345.227L451.114 345.077C451.564 354.071 452.013 365.538 452.388 378.055C452.838 392.821 453.212 406.162 453.512 415.831C453.662 420.628 453.812 424.525 453.887 427.298C453.887 428.648 453.961 429.622 453.961 430.446C453.961 430.746 453.961 431.046 453.961 431.271C453.961 431.421 453.961 431.571 453.961 431.571C453.961 431.571 453.961 431.496 453.887 431.271C453.887 431.046 453.887 430.821 453.812 430.446C453.737 429.697 453.737 428.648 453.662 427.298C453.512 424.525 453.362 420.628 453.137 415.831C452.763 406.162 452.313 392.821 451.864 378.055C451.489 365.538 451.039 353.996 450.74 345.077V345.002L450.815 344.927C455.61 341.029 459.581 337.731 462.353 335.483C463.702 334.359 464.751 333.534 465.575 332.935C465.949 332.635 466.174 332.41 466.399 332.26C466.549 332.185 466.624 332.11 466.624 332.11Z" fill="#385A65"/>
<path d="M453.886 429.997C453.886 429.997 453.886 430.072 453.886 430.296C453.886 430.521 453.886 430.746 453.886 431.121C453.886 431.871 453.886 432.995 453.961 434.344V434.419H453.886C448.642 435.093 438.902 436.443 426.24 438.091H426.015V437.867C424.217 426.774 422.119 413.507 419.796 399.267C416.724 379.854 413.952 362.241 411.929 349.424C410.805 343.053 411.18 337.731 411.929 334.134C412.304 332.335 412.679 330.986 413.053 330.161C413.428 329.262 413.727 328.887 413.727 328.887C413.727 328.887 413.653 329.037 413.578 329.262C413.503 329.487 413.353 329.787 413.128 330.236C412.828 331.136 412.379 332.485 412.079 334.209C411.48 337.731 411.105 342.978 412.304 349.349C414.327 362.091 417.174 379.704 420.321 399.192C422.568 413.432 424.666 426.774 426.389 437.792L426.165 437.567C438.752 435.993 448.567 434.794 453.812 434.119L453.737 434.194C453.737 432.77 453.737 431.721 453.812 430.971C453.812 430.596 453.812 430.371 453.812 430.147C453.886 430.147 453.886 429.997 453.886 429.997Z" fill="#385A65"/>
<path d="M445.42 329.712C445.495 329.637 446.02 330.311 446.769 331.585C447.518 332.785 448.342 334.584 449.017 336.607C449.691 338.706 449.991 340.655 450.066 342.004C450.14 343.428 450.066 344.252 449.991 344.327C449.841 344.327 449.766 340.805 448.492 336.757C447.293 332.635 445.27 329.787 445.42 329.712Z" fill="#385A65"/>
<path d="M459.881 227.103C461.978 225.004 460.78 223.805 459.955 221.706L445.121 177.335C438.677 162.795 419.796 171.414 419.796 171.414C410.881 174.712 409.607 184.755 411.705 191.576C414.027 199.221 417.099 208.365 420.021 213.612C425.94 224.105 435.006 222.381 435.006 222.381L438.752 232.499C440.101 236.097 444.371 237.446 447.593 235.348L459.881 227.103Z" fill="#F9BE9D"/>
<path d="M416.949 199.071C417.174 199.821 418.073 200.27 418.897 199.971C419.722 199.746 420.171 198.921 419.871 198.097C419.647 197.347 418.748 196.898 417.923 197.197C417.099 197.497 416.65 198.322 416.949 199.071Z" fill="#192E35"/>
<path d="M415.601 197.197C415.826 197.347 416.65 196.148 418.148 195.548C419.647 194.949 421.07 195.323 421.22 195.099C421.295 194.949 420.995 194.724 420.321 194.574C419.722 194.424 418.748 194.349 417.774 194.724C416.8 195.099 416.125 195.773 415.826 196.298C415.526 196.748 415.451 197.122 415.601 197.197Z" fill="#192E35"/>
<path d="M431.335 194.499C431.559 195.248 432.459 195.698 433.283 195.398C434.107 195.174 434.556 194.349 434.257 193.525C434.032 192.775 433.133 192.325 432.309 192.625C431.559 192.85 431.11 193.674 431.335 194.499Z" fill="#192E35"/>
<path d="M430.735 191.576C430.96 191.726 431.784 190.527 433.283 189.927C434.781 189.327 436.205 189.702 436.355 189.477C436.43 189.327 436.13 189.103 435.456 188.953C434.856 188.803 433.882 188.728 432.908 189.103C431.934 189.477 431.26 190.152 430.96 190.677C430.66 191.126 430.585 191.501 430.735 191.576Z" fill="#192E35"/>
<path d="M429.761 205.067C429.761 204.992 428.712 205.142 427.064 205.517C426.689 205.592 426.24 205.667 426.09 205.442C425.865 205.217 425.865 204.692 425.94 204.168C425.94 203.044 425.94 201.919 426.015 200.72C426.015 195.848 425.94 191.951 425.715 191.951C425.491 191.951 425.341 195.923 425.266 200.72C425.266 201.919 425.266 203.044 425.266 204.168C425.266 204.692 425.191 205.292 425.641 205.817C425.865 206.042 426.24 206.191 426.465 206.117C426.764 206.117 426.989 206.042 427.139 205.967C428.787 205.517 429.761 205.142 429.761 205.067Z" fill="#192E35"/>
<path d="M435.006 222.456C435.006 222.456 442.723 220.132 448.492 212.937C448.492 212.937 447.743 221.931 436.13 225.079L435.006 222.456Z" fill="#F3986E"/>
<path d="M434.706 204.467C434.482 204.542 435.081 206.191 434.107 207.915C433.133 209.639 431.26 210.089 431.335 210.314C431.335 210.464 431.859 210.464 432.608 210.239C433.358 210.014 434.332 209.339 434.931 208.29C435.53 207.241 435.53 206.116 435.381 205.442C435.156 204.767 434.781 204.393 434.706 204.467Z" fill="#192E35"/>
<path d="M437.329 195.473C437.329 195.698 437.179 195.848 436.954 195.848C436.729 195.848 436.579 195.698 436.654 195.473C436.654 195.249 436.804 195.099 437.029 195.099C437.179 195.099 437.329 195.249 437.329 195.473Z" fill="#192E35"/>
<path d="M466.998 223.43L474.266 225.079L473.891 222.456C473.891 222.456 473.142 211.063 464.001 202.969C454.861 194.799 467.223 191.651 459.281 180.933C456.659 177.41 453.737 174.187 449.99 171.864C449.316 171.489 448.717 170.964 448.117 170.44C446.544 169.091 445.195 167.442 443.547 166.317C442.273 165.418 440.775 164.743 439.202 164.743C438.302 164.369 437.328 164.069 436.279 163.919C431.859 163.244 427.439 165.043 423.318 166.767C419.272 168.491 408.558 168.041 411.929 179.059C412.604 177.26 415.376 175.686 417.549 177.485C419.047 178.759 419.796 179.884 420.171 181.757C420.62 184.306 421.37 187.154 424.516 187.828C425.266 187.978 426.09 187.978 426.839 187.828C429.461 187.229 431.484 183.331 436.504 184.231C436.504 184.231 441.299 185.73 441.599 188.728C441.899 191.726 440.176 197.422 443.172 200.046C446.169 202.744 446.619 202.669 446.544 204.992C446.544 205.517 446.544 205.892 446.469 206.192C446.094 209.864 446.769 227.628 461.454 222.006C461.604 221.931 466.998 223.43 466.998 223.43Z" fill="#01443C"/>
<path d="M460.78 223.43C460.78 223.43 460.855 223.505 460.93 223.73C461.005 223.955 461.079 224.18 461.154 224.555C461.154 224.929 461.154 225.454 460.93 225.979C460.705 226.503 460.33 227.028 459.806 227.478C458.832 228.377 457.558 229.427 456.134 230.401C454.636 231.375 452.988 232.425 451.339 233.549C450.515 234.074 449.691 234.673 448.792 235.123C447.893 235.573 446.994 235.872 446.17 236.097C445.271 236.322 444.446 236.547 443.697 236.622C442.798 236.697 442.049 236.397 441.524 236.022C440.326 235.273 439.726 234.298 439.352 233.699C438.977 233.024 438.977 232.574 438.977 232.574C439.052 232.574 439.127 232.949 439.576 233.549C439.951 234.148 440.625 235.048 441.749 235.647C442.274 235.947 443.023 236.172 443.697 236.097C444.446 236.022 445.271 235.797 446.095 235.573C446.919 235.348 447.818 234.973 448.642 234.598C449.466 234.223 450.29 233.624 451.19 233.099C452.913 231.975 454.561 230.926 456.06 229.951C457.558 228.977 458.757 228.002 459.806 227.103C460.855 226.279 461.229 225.229 461.229 224.555C460.855 223.805 460.705 223.43 460.78 223.43Z" fill="#192E35"/>
<path d="M339.853 415.98V97.6616H335.882V416.055L303.365 418.529H335.882H339.853H372.445L339.853 415.98Z" fill="#CE5700"/>
<path d="M315.428 69.9297L300.743 135.362H374.992L358.284 70.1545L315.428 69.9297Z" fill="#FFB270"/>
<path d="M328.989 161.82C328.84 161.82 328.69 153.8 328.69 143.907C328.69 134.013 328.84 125.993 329.064 125.993C329.214 125.993 329.364 134.013 329.364 143.907C329.364 153.8 329.139 161.82 328.989 161.82Z" fill="#E1E0E0"/>
<path d="M328.989 161.745C328.989 161.67 329.514 161.745 329.739 162.42C329.813 162.72 329.888 163.169 329.514 163.619C329.214 164.069 328.54 164.144 328.015 163.994C327.491 163.844 327.116 163.319 327.116 162.795C327.116 162.27 327.491 161.97 327.716 161.745C328.315 161.371 328.765 161.67 328.765 161.745C328.765 161.82 328.39 161.745 328.015 162.12C327.865 162.27 327.716 162.57 327.716 162.795C327.716 163.019 327.94 163.319 328.24 163.469C328.54 163.619 328.914 163.544 329.064 163.319C329.214 163.094 329.289 162.795 329.289 162.57C329.289 161.97 328.914 161.82 328.989 161.745Z" fill="#E1E0E0"/>
<path d="M146.7 456.229H130.217V477.965H146.7V456.229Z" fill="#192E35"/>
<path d="M337.905 456.229H321.422V477.591H337.905V456.229Z" fill="#192E35"/>
<path d="M342.101 390.122L340.528 357.893C339.554 340.504 334.833 330.911 323.52 329.936C315.803 329.936 308.835 332.485 304.19 339.38C306.138 278.67 279.39 254.16 250.619 254.16H211.359C182.139 254.16 148.798 277.62 159.063 340.804V352.572C159.063 340.579 149.772 330.836 138.384 330.836H136.885C129.093 330.836 121.151 344.327 121.151 352.497V390.197C116.881 393.495 114.184 398.742 114.184 404.513V427.673C114.184 432.32 117.78 436.068 122.2 436.068H121.151V463.875H344.798V436.967C349.069 435.768 352.291 431.645 352.291 426.699V407.511C352.291 400.016 348.245 393.345 342.101 390.122Z" fill="#02706E"/>
<path d="M162.21 367.862C162.06 367.862 161.985 367.862 161.985 367.787C161.985 367.787 162.06 367.712 162.21 367.712C162.359 367.712 162.434 367.712 162.434 367.787C162.359 367.787 162.285 367.862 162.21 367.862Z" fill="#192E35"/>
<path d="M344.873 437.267C344.873 437.417 294.974 437.492 233.387 437.492C171.8 437.492 121.901 437.417 121.901 437.267C121.901 437.117 171.8 437.042 233.387 437.042C294.974 437.042 344.873 437.117 344.873 437.267Z" fill="#192E35"/>
<path d="M158.763 385.401C158.763 385.401 158.613 385.401 158.388 385.401C158.089 385.401 157.714 385.326 157.265 385.251C156.74 385.176 156.141 385.101 155.466 385.101C154.792 385.026 153.968 384.951 153.069 384.951C151.271 384.876 149.173 384.801 146.85 384.876C144.528 384.951 141.98 385.176 139.283 385.55C136.586 385.925 134.113 386.525 131.865 387.124C129.618 387.724 127.595 388.399 125.947 388.998C125.122 389.298 124.373 389.598 123.699 389.823C123.025 390.047 122.5 390.347 122.05 390.497C121.601 390.647 121.301 390.797 121.002 390.947C120.777 391.022 120.627 391.097 120.627 391.097C120.627 391.097 120.777 391.022 121.002 390.872C121.301 390.722 121.601 390.572 122.05 390.347C122.5 390.122 123.025 389.823 123.699 389.598C124.373 389.298 125.122 388.998 125.947 388.698C127.595 388.024 129.618 387.349 131.865 386.75C134.113 386.15 136.661 385.55 139.358 385.176C142.055 384.801 144.602 384.576 147 384.501C149.323 384.426 151.495 384.501 153.219 384.651C154.118 384.726 154.867 384.801 155.616 384.876C156.291 384.951 156.89 385.026 157.414 385.101C157.864 385.176 158.239 385.251 158.538 385.326C158.613 385.326 158.763 385.326 158.763 385.401Z" fill="#192E35"/>
<path d="M237.807 409.01C237.732 409.01 238.107 407.511 238.107 405.038C238.107 402.564 237.658 399.117 236.009 395.744C234.361 392.371 232.038 389.897 230.165 388.473C228.292 386.974 226.869 386.45 226.944 386.375C226.944 386.375 227.318 386.45 227.918 386.75C228.517 387.049 229.341 387.499 230.39 388.249C232.338 389.673 234.81 392.146 236.459 395.594C238.107 399.042 238.557 402.564 238.482 405.038C238.407 406.312 238.332 407.286 238.182 407.961C237.957 408.635 237.807 409.01 237.807 409.01Z" fill="#192E35"/>
<path d="M283.81 400.016C283.736 400.016 283.661 399.416 283.361 398.442C283.061 397.393 282.612 395.969 281.788 394.245C280.963 392.521 279.765 390.647 278.116 388.848C276.468 387.049 274.295 385.4 271.823 384.201C269.275 383.077 266.653 382.477 264.255 382.402C261.858 382.327 259.685 382.702 257.962 383.152C256.239 383.677 254.89 384.276 253.991 384.726C253.092 385.176 252.567 385.55 252.567 385.475C252.567 385.475 252.642 385.4 252.867 385.25C253.092 385.101 253.392 384.876 253.841 384.576C254.74 384.051 256.089 383.377 257.812 382.852C259.535 382.327 261.783 381.953 264.181 381.953C266.578 382.028 269.275 382.552 271.898 383.751C274.445 384.951 276.618 386.675 278.341 388.548C279.989 390.422 281.263 392.371 282.012 394.095C282.836 395.819 283.286 397.318 283.511 398.367C283.661 398.892 283.661 399.341 283.736 399.566C283.81 399.866 283.81 400.016 283.81 400.016Z" fill="#192E35"/>
<path d="M286.657 382.028C286.657 382.178 282.087 382.252 276.393 382.252C270.774 382.252 266.128 382.178 266.128 382.028C266.128 381.878 270.699 381.803 276.393 381.803C282.087 381.803 286.657 381.878 286.657 382.028Z" fill="#192E35"/>
<path d="M340.678 391.247C340.678 391.247 340.528 391.172 340.228 391.022C339.853 390.797 339.479 390.572 338.879 390.272C338.28 389.972 337.606 389.523 336.782 389.148C335.957 388.698 335.058 388.174 333.934 387.724C332.886 387.199 331.687 386.675 330.488 386.15C329.214 385.55 327.866 385.101 326.442 384.576C323.52 383.527 320.298 382.552 316.852 381.803C313.405 381.053 310.034 380.604 306.962 380.379C305.464 380.304 303.965 380.154 302.616 380.154C301.268 380.079 299.994 380.154 298.795 380.154C297.671 380.154 296.623 380.304 295.649 380.304C294.749 380.379 293.925 380.454 293.326 380.529C292.727 380.604 292.202 380.604 291.827 380.678C291.453 380.678 291.303 380.678 291.303 380.678C291.303 380.678 291.453 380.603 291.827 380.603C292.202 380.529 292.727 380.454 293.326 380.379C294 380.304 294.749 380.154 295.649 380.079C296.548 380.004 297.597 379.854 298.795 379.854C299.994 379.779 301.268 379.779 302.616 379.779C303.965 379.779 305.464 379.854 306.962 379.929C310.034 380.154 313.405 380.603 316.927 381.353C320.448 382.103 323.67 383.077 326.592 384.126C328.015 384.651 329.439 385.176 330.713 385.775C331.986 386.3 333.11 386.899 334.159 387.424C335.208 387.949 336.107 388.473 336.931 388.923C337.756 389.373 338.43 389.823 339.029 390.122C339.554 390.422 340.003 390.722 340.303 390.947C340.603 391.097 340.752 391.247 340.678 391.247Z" fill="#192E35"/>
<path d="M306.138 336.907C306.138 336.907 306.063 337.057 305.838 337.282C305.613 337.507 305.314 337.881 304.939 338.331C304.19 339.23 303.066 340.58 301.867 342.378C300.668 344.177 299.395 346.426 298.196 348.974C296.997 351.597 295.798 354.521 294.674 357.594C292.427 363.815 291.303 369.811 290.778 374.158C290.554 376.331 290.404 378.13 290.329 379.329C290.329 379.929 290.254 380.379 290.254 380.754C290.254 381.053 290.254 381.278 290.179 381.278C290.104 381.278 290.179 381.128 290.179 380.754C290.179 380.454 290.179 379.929 290.179 379.329C290.179 378.13 290.254 376.331 290.479 374.158C290.928 369.811 291.977 363.74 294.225 357.444C295.349 354.296 296.548 351.373 297.746 348.749C299.02 346.126 300.294 343.877 301.567 342.154C302.841 340.355 303.965 339.081 304.789 338.181C305.164 337.731 305.538 337.432 305.763 337.207C306.063 336.982 306.138 336.832 306.138 336.907Z" fill="#192E35"/>
<path d="M202.968 324.015C202.968 324.015 203.043 323.94 203.118 323.79C203.193 323.64 203.418 323.49 203.642 323.341C204.167 323.041 204.991 322.666 206.04 322.816C206.564 322.891 207.164 323.041 207.688 323.415C208.213 323.79 208.737 324.315 209.037 324.989C209.636 326.339 209.561 328.287 208.438 329.636C207.239 330.911 205.441 331.135 204.092 330.611C203.418 330.386 202.818 329.861 202.444 329.337C202.069 328.812 201.844 328.212 201.769 327.613C201.545 326.488 201.844 325.589 202.069 324.989C202.219 324.69 202.369 324.54 202.444 324.39C202.519 324.24 202.593 324.24 202.593 324.24C202.593 324.24 202.444 324.54 202.219 325.064C201.994 325.589 201.844 326.488 202.069 327.538C202.294 328.587 202.968 329.711 204.242 330.161C205.441 330.611 207.089 330.386 208.138 329.262C209.187 328.062 209.262 326.339 208.737 325.139C208.213 323.865 207.089 323.191 206.115 323.041C205.141 322.891 204.317 323.116 203.792 323.415C203.193 323.79 202.968 324.015 202.968 324.015Z" fill="#192E35"/>
<path d="M205.441 311.873C205.515 311.948 204.916 312.323 204.242 313.147C203.567 313.972 202.818 315.396 202.743 317.045C202.668 318.694 203.268 320.193 203.867 321.092C204.467 321.991 204.991 322.441 204.991 322.516C204.991 322.591 204.317 322.216 203.642 321.317C202.968 320.418 202.219 318.844 202.294 317.045C202.369 315.246 203.193 313.747 204.017 312.922C204.766 312.098 205.366 311.873 205.441 311.873Z" fill="#192E35"/>
<path d="M206.789 332.035C206.714 332.11 206.265 331.81 205.44 331.51C204.616 331.21 203.417 330.836 202.144 330.836C200.795 330.836 199.596 331.136 198.772 331.435C197.948 331.735 197.499 332.035 197.424 331.96C197.424 331.885 197.798 331.51 198.622 331.135C199.447 330.761 200.645 330.386 202.069 330.386C203.492 330.386 204.691 330.761 205.515 331.21C206.414 331.585 206.789 331.96 206.789 332.035Z" fill="#192E35"/>
<path d="M136.361 384.051C136.361 384.051 136.586 383.751 137.11 383.227C137.635 382.777 138.384 382.102 139.433 381.428C141.531 380.079 144.752 378.655 148.498 378.505C152.245 378.28 155.616 379.404 157.789 380.528C158.913 381.128 159.737 381.653 160.261 382.102C160.786 382.552 161.086 382.777 161.086 382.777C161.011 382.852 159.812 381.878 157.639 380.828C155.466 379.779 152.17 378.805 148.498 378.954C144.827 379.179 141.605 380.453 139.508 381.728C137.56 383.002 136.436 384.126 136.361 384.051Z" fill="#192E35"/>
<path d="M154.642 379.03C154.492 379.03 154.268 374.682 154.118 369.361C153.968 364.039 153.893 359.692 154.043 359.692C154.193 359.692 154.417 364.039 154.567 369.361C154.717 374.682 154.792 379.03 154.642 379.03Z" fill="#192E35"/>
<path d="M303.141 379.854C303.141 379.854 303.141 379.704 303.141 379.404C303.141 379.03 303.216 378.58 303.291 378.055C303.441 376.856 303.515 375.207 303.665 373.033C303.74 370.935 303.815 368.386 303.89 365.613C303.965 362.84 304.115 359.692 304.489 356.469C304.864 353.246 305.613 350.248 306.512 347.55C307.486 344.927 308.685 342.678 309.884 340.954C311.083 339.23 312.356 338.031 313.256 337.356C313.705 336.982 314.08 336.757 314.304 336.607C314.529 336.457 314.679 336.382 314.679 336.382C314.754 336.457 312.506 337.806 310.109 341.179C308.91 342.903 307.786 345.076 306.887 347.7C305.988 350.323 305.314 353.321 304.864 356.469C304.489 359.692 304.34 362.765 304.265 365.538C304.19 368.311 304.115 370.86 303.965 372.958C303.815 375.057 303.665 376.781 303.515 377.98C303.441 378.58 303.366 379.029 303.291 379.329C303.141 379.704 303.141 379.929 303.141 379.854Z" fill="#192E35"/>
<path d="M284.035 495.504L279.615 520.313L281.787 540.925C281.937 542.424 280.813 543.698 279.315 543.773C278.491 543.773 277.667 543.398 277.217 542.799C273.995 538.601 262.157 522.936 262.607 521.138C263.131 519.039 265.529 494.68 265.529 494.68L284.035 495.504Z" fill="#0A1B1B"/>
<path d="M189.032 495.354L192.479 518.364C192.479 518.364 170.076 527.958 170.301 532.23L215.33 528.858L211.434 492.731L189.032 495.354Z" fill="#0A1B1B"/>
<path d="M190.905 508.246C190.905 508.321 191.804 508.396 193.153 507.946C193.827 507.721 194.651 507.421 195.401 506.972C195.775 506.747 196.225 506.447 196.599 506.147C196.824 505.997 197.049 505.847 197.199 505.548C197.424 505.323 197.499 504.723 197.199 504.348C196.899 504.049 196.525 503.899 196.15 503.974C195.85 503.974 195.551 504.124 195.326 504.199C194.876 504.348 194.427 504.573 193.977 504.873C193.153 505.398 192.554 505.922 192.029 506.447C191.13 507.496 190.83 508.396 190.905 508.396C190.98 508.471 191.43 507.721 192.404 506.822C192.853 506.372 193.528 505.847 194.277 505.473C194.651 505.248 195.101 505.098 195.551 504.948C196 504.798 196.45 504.723 196.525 504.948C196.599 505.023 196.599 505.023 196.525 505.173C196.45 505.323 196.225 505.473 196.075 505.623C195.7 505.922 195.326 506.222 194.951 506.447C194.202 506.897 193.528 507.271 192.853 507.496C191.729 508.021 190.905 508.171 190.905 508.246Z" fill="#192E35"/>
<path d="M191.205 508.546C191.28 508.546 191.655 507.721 191.58 506.297C191.505 505.623 191.355 504.723 190.98 503.899C190.755 503.449 190.531 502.999 190.231 502.625C189.931 502.175 189.557 501.65 188.658 501.65C188.208 501.65 187.908 502.1 187.758 502.4C187.609 502.699 187.609 502.999 187.609 503.224C187.609 503.749 187.684 504.273 187.758 504.723C187.983 505.698 188.508 506.447 188.957 506.972C189.931 508.021 190.905 508.171 190.905 508.096C190.98 507.946 190.156 507.646 189.332 506.597C188.957 506.072 188.583 505.398 188.358 504.573C188.283 504.199 188.208 503.749 188.283 503.299C188.283 502.849 188.433 502.4 188.583 502.4C188.807 502.4 189.257 502.699 189.482 503.074C189.781 503.449 190.006 503.824 190.156 504.199C190.531 504.948 190.755 505.772 190.83 506.372C191.205 507.646 191.13 508.546 191.205 508.546Z" fill="#192E35"/>
<path d="M220.425 394.844C220.425 394.844 220.875 394.844 221.624 394.994C222.373 395.144 223.572 395.294 224.92 395.444C227.693 395.744 231.664 395.969 235.934 395.594C240.205 395.219 244.101 394.47 246.798 393.72C248.147 393.345 249.271 393.046 250.02 392.821C250.769 392.596 251.219 392.446 251.219 392.521C251.219 392.521 250.844 392.746 250.095 393.046C249.346 393.345 248.297 393.72 246.948 394.17C244.251 394.994 240.355 395.894 236.009 396.194C231.664 396.493 227.693 396.269 224.92 395.894C223.497 395.669 222.373 395.519 221.624 395.294C220.8 394.994 220.425 394.844 220.425 394.844Z" fill="#192E35"/>
<path d="M247.098 292.011L269.875 296.733L283.436 384.501C283.436 384.501 293.476 388.399 287.182 395.744L229.791 411.933L185.361 391.547L194.651 385.625L202.443 299.431L218.702 294.26L247.098 292.011Z" fill="#F39222"/>
<path d="M216.379 331.211L219.526 332.785C219.526 332.785 209.861 376.556 207.463 384.426C205.066 392.296 199.222 394.395 192.778 394.245C186.335 394.02 180.266 391.022 179.517 386.9C178.843 382.702 177.869 368.611 182.064 361.416C186.26 354.221 200.495 330.386 200.495 330.386L216.379 331.211Z" fill="#F39222"/>
<path d="M189.482 306.327C186.934 310.224 183.413 326.938 183.188 336.157C182.963 345.451 183.188 379.929 183.188 379.929H201.619L205.365 298.382C205.365 298.382 192.029 302.354 189.482 306.327Z" fill="#F39222"/>
<path d="M224.846 380.903C224.92 380.828 225.82 381.503 227.318 382.477C228.816 383.452 230.989 384.726 233.537 385.775C236.084 386.825 238.482 387.499 240.205 387.874C241.928 388.249 243.052 388.399 243.052 388.473C243.052 388.548 241.928 388.473 240.13 388.249C238.332 387.949 235.859 387.349 233.312 386.3C230.764 385.251 228.592 383.901 227.093 382.852C225.595 381.728 224.771 380.903 224.846 380.903Z" fill="#D67827"/>
<path d="M254.815 334.658C254.815 334.658 254.74 334.209 254.59 333.459C254.44 332.71 254.366 331.51 254.366 330.086C254.291 328.662 254.365 327.013 254.59 325.139C254.815 323.266 255.19 321.242 255.714 319.143C256.314 317.045 256.988 315.096 257.737 313.372C258.486 311.648 259.31 310.149 260.06 308.95C260.809 307.751 261.408 306.776 261.933 306.177C262.382 305.577 262.682 305.202 262.757 305.277C262.832 305.352 261.783 306.701 260.434 309.175C259.76 310.374 259.011 311.873 258.262 313.597C257.587 315.321 256.838 317.195 256.314 319.293C255.789 321.392 255.414 323.341 255.19 325.214C254.965 327.088 254.89 328.737 254.89 330.086C254.665 332.934 254.89 334.658 254.815 334.658Z" fill="#D67827"/>
<path d="M190.755 311.423C190.755 311.423 190.98 311.648 191.355 312.023C191.729 312.473 192.179 313.072 192.703 313.897C193.752 315.471 195.101 317.869 196.225 320.567C197.349 323.341 198.023 325.889 198.323 327.838C198.473 328.812 198.622 329.562 198.622 330.086C198.697 330.611 198.697 330.911 198.622 330.911C198.548 330.911 198.323 329.711 197.873 327.913C197.424 326.039 196.749 323.491 195.625 320.792C194.502 318.094 193.303 315.771 192.254 314.122C191.355 312.473 190.681 311.498 190.755 311.423Z" fill="#D67827"/>
<path d="M192.778 306.851C192.778 306.851 193.003 307.001 193.378 307.301C193.752 307.601 194.277 308.125 194.801 308.8C195.925 310.149 197.349 312.248 198.323 314.796C199.372 317.345 199.746 319.818 199.896 321.542C199.971 322.441 199.971 323.116 199.896 323.64C199.896 324.165 199.821 324.39 199.821 324.39C199.746 324.39 199.746 323.266 199.521 321.542C199.297 319.818 198.847 317.419 197.798 314.946C196.824 312.473 195.476 310.374 194.427 309.025C193.453 307.676 192.703 306.926 192.778 306.851Z" fill="#D67827"/>
<path d="M186.859 356.844C186.859 356.844 186.934 356.619 187.084 356.319C187.309 355.944 187.534 355.42 187.908 354.745C188.658 353.321 189.706 351.297 190.98 348.749C193.677 343.577 197.499 336.307 202.069 327.613L202.144 327.463H202.294C208.138 328.662 214.656 330.011 221.549 331.36L221.774 331.435L221.699 331.66C221.174 334.883 220.5 338.256 219.901 341.629C218.252 350.173 216.529 358.268 214.581 365.538C213.607 369.211 212.633 372.584 211.434 375.732C211.135 376.481 210.835 377.306 210.535 378.055C210.161 378.805 209.861 379.554 209.486 380.229C208.737 381.578 207.988 382.852 207.239 384.051C205.665 386.45 204.017 388.473 202.369 389.972C200.72 391.546 198.997 392.521 197.499 393.12C196 393.72 194.801 393.945 193.977 394.095C193.528 394.17 193.228 394.17 193.003 394.17C192.778 394.17 192.703 394.17 192.703 394.17C192.703 394.095 194.502 394.17 197.424 392.896C198.847 392.296 200.57 391.247 202.144 389.748C203.792 388.249 205.366 386.225 206.939 383.826C207.688 382.627 208.437 381.353 209.187 380.004C209.561 379.329 209.861 378.58 210.161 377.905C210.46 377.156 210.76 376.406 211.06 375.657C212.184 372.509 213.158 369.136 214.132 365.463C216.005 358.193 217.728 350.098 219.376 341.629C220.051 338.181 220.65 334.883 221.174 331.66L221.399 331.96C214.506 330.536 207.988 329.187 202.144 327.988L202.369 327.838C197.723 336.532 193.827 343.802 191.13 348.899C189.781 351.447 188.658 353.396 187.908 354.82C187.534 355.495 187.234 356.019 187.009 356.394C187.009 356.694 186.859 356.844 186.859 356.844Z" fill="#D67827"/>
<path d="M269.575 296.658C269.575 296.658 286.582 301.155 286.957 315.995C287.332 330.836 282.537 377.83 280.289 382.627C278.041 387.424 268.076 394.844 258.411 393.72C248.821 392.596 242.827 381.878 242.827 381.878L228.142 337.507L241.703 328.138L255.414 344.327L269.575 296.658Z" fill="#F39222"/>
<path d="M258.561 345.526C258.561 345.526 258.561 345.376 258.561 345.002C258.561 344.627 258.561 344.177 258.561 343.578C258.561 342.378 258.636 340.58 258.711 338.406C258.786 336.232 258.936 333.609 259.16 330.761C259.385 327.913 259.76 324.765 260.434 321.467C261.108 318.169 261.933 315.096 263.131 312.473C264.33 309.85 265.904 307.676 267.402 306.102C268.975 304.603 270.474 303.554 271.523 303.029C272.047 302.804 272.422 302.579 272.797 302.429C273.096 302.279 273.246 302.204 273.246 302.279C273.321 302.429 270.699 303.329 267.627 306.402C266.203 307.976 264.705 310.074 263.506 312.698C262.307 315.321 261.483 318.394 260.884 321.617C260.209 324.84 259.91 327.988 259.61 330.836C259.31 333.684 259.16 336.307 259.011 338.481C258.861 340.58 258.786 342.303 258.711 343.653C258.636 344.177 258.636 344.702 258.636 345.077C258.561 345.302 258.561 345.526 258.561 345.526Z" fill="#D67827"/>
<path d="M264.93 355.12C264.93 355.12 264.93 355.045 264.855 354.97C264.78 354.82 264.78 354.67 264.705 354.52C264.555 354.146 264.33 353.546 263.956 352.797C263.206 351.297 261.783 349.424 259.76 347.1C255.714 342.453 249.945 335.783 242.902 327.838L243.202 327.913C238.706 330.911 233.687 334.209 228.367 337.806L228.442 337.506C230.69 344.702 232.787 352.572 235.185 360.741C235.934 363.29 236.609 365.838 237.433 368.311C238.257 370.785 239.081 373.183 240.055 375.507C241.928 380.154 244.251 384.501 247.622 387.649C250.919 390.797 255.115 392.821 259.161 392.821C263.206 392.821 266.878 391.397 269.95 389.823C273.021 388.249 275.644 386.45 277.517 384.351C279.39 382.327 280.514 380.154 281.038 378.28C281.563 376.406 281.563 374.907 281.488 373.858C281.413 372.809 281.263 372.284 281.263 372.284C281.263 372.284 281.488 372.809 281.563 373.858C281.713 374.907 281.713 376.406 281.188 378.355C280.664 380.229 279.615 382.477 277.667 384.576C275.794 386.675 273.171 388.548 270.024 390.122C266.953 391.696 263.206 393.195 259.011 393.195C254.815 393.195 250.469 391.172 247.173 387.949C243.726 384.726 241.329 380.304 239.456 375.657C238.482 373.333 237.657 370.935 236.833 368.461C236.084 365.988 235.335 363.44 234.586 360.891C232.263 352.722 230.09 344.777 227.843 337.656L227.768 337.506L227.917 337.431C233.237 333.909 238.257 330.611 242.827 327.613L242.977 327.538L243.127 327.688C250.095 335.708 255.789 342.378 259.835 347.1C261.858 349.424 263.281 351.372 263.956 352.871C264.78 354.221 264.93 355.12 264.93 355.12Z" fill="#D67827"/>
<path d="M285.309 394.095L290.479 398.517C290.479 398.517 307.861 408.86 307.861 418.154C307.861 427.448 285.908 508.546 285.908 508.546C285.908 508.546 271.148 511.694 268.151 508.021C265.155 504.348 261.933 498.577 261.933 498.577L267.852 436.368L238.632 428.198C238.632 428.198 246.049 405.637 260.135 401.14C274.22 396.718 278.266 391.097 285.309 394.095Z" fill="#01443C"/>
<path d="M204.242 395.594C204.242 395.594 188.658 390.048 178.693 395.594C168.728 401.14 160.936 420.028 160.936 420.028L184.087 509.67L214.731 506.297L207.913 448.884L202.743 442.589L208.287 437.417L223.122 430.746C223.122 430.746 220.875 402.265 204.242 395.594Z" fill="#01443C"/>
<path d="M269.875 397.318C269.875 397.318 244.925 405.188 233.837 404.063C222.748 402.939 204.242 395.519 204.242 395.519L220.35 431.945H251.219L269.875 397.318Z" fill="#01443C"/>
<path d="M288.381 411.484C288.381 411.634 286.358 411.559 283.361 412.533C281.862 413.058 280.139 413.882 278.491 415.081C276.768 416.281 275.194 418.004 273.92 420.028C271.373 424.15 270.474 428.573 269.8 431.646C269.5 433.22 269.275 434.494 269.125 435.393C268.976 436.293 268.826 436.742 268.826 436.742C268.826 436.742 268.826 436.218 268.901 435.318C268.976 434.419 269.2 433.145 269.425 431.571C270.024 428.423 270.849 424.001 273.471 419.728C274.82 417.63 276.393 415.906 278.191 414.632C279.914 413.357 281.713 412.608 283.211 412.083C284.784 411.634 286.058 411.409 286.957 411.334C287.407 411.334 287.781 411.334 288.006 411.334C288.306 411.484 288.381 411.484 288.381 411.484Z" fill="#385A65"/>
<path d="M266.728 421.002C266.803 421.002 267.028 421.902 267.327 423.401C267.627 424.9 267.927 426.999 268.152 429.322C268.376 431.646 268.451 433.744 268.451 435.243C268.451 436.742 268.451 437.717 268.376 437.717C268.301 437.717 268.226 436.742 268.077 435.243C268.002 433.744 267.777 431.646 267.627 429.322C267.402 426.999 267.177 424.9 266.953 423.401C266.803 421.977 266.653 421.002 266.728 421.002Z" fill="#385A65"/>
<path d="M274.67 403.464C274.745 403.614 272.647 404.138 269.575 405.712C268.826 406.087 268.001 406.537 267.177 407.136C266.278 407.661 265.454 408.336 264.555 409.01C262.757 410.434 260.959 412.083 259.235 414.107C257.587 416.131 256.238 418.229 255.115 420.178C254.59 421.227 254.141 422.127 253.766 423.101C253.391 424.001 253.092 424.9 252.792 425.724C251.743 429.022 251.593 431.121 251.443 431.121C251.443 431.121 251.443 430.596 251.593 429.622C251.668 429.172 251.743 428.573 251.893 427.898C252.043 427.223 252.193 426.474 252.492 425.649C252.717 424.825 253.017 423.926 253.391 422.951C253.766 421.977 254.216 421.002 254.74 419.953C255.789 417.929 257.212 415.756 258.861 413.732C260.584 411.708 262.457 409.985 264.255 408.635C265.154 407.961 266.053 407.286 266.953 406.837C267.777 406.312 268.676 405.862 269.425 405.488C270.174 405.038 270.923 404.813 271.598 404.513C272.197 404.213 272.797 404.063 273.246 403.914C274.145 403.539 274.67 403.389 274.67 403.464Z" fill="#385A65"/>
<path d="M260.734 405.338C260.809 405.413 259.76 406.612 258.411 408.636C256.988 410.659 255.264 413.657 253.841 417.18C252.492 420.703 251.668 424.075 251.293 426.549C250.919 429.022 250.844 430.596 250.769 430.596C250.769 430.596 250.694 430.222 250.694 429.472C250.694 428.797 250.769 427.748 250.919 426.474C251.219 424.001 251.893 420.553 253.316 416.955C254.74 413.357 256.538 410.359 258.037 408.336C258.786 407.361 259.46 406.537 259.91 406.012C260.434 405.563 260.659 405.263 260.734 405.338Z" fill="#385A65"/>
<path d="M222.748 430.371C222.673 430.371 222.748 429.772 222.748 428.648C222.748 427.523 222.748 425.949 222.448 424.001C221.999 420.103 220.5 414.707 217.128 409.685C213.757 404.663 209.336 401.215 205.89 399.342C204.167 398.367 202.668 397.693 201.694 397.318C200.645 396.943 200.121 396.718 200.121 396.643C200.121 396.643 200.271 396.643 200.57 396.718C200.87 396.793 201.245 396.868 201.769 397.093C202.818 397.468 204.317 398.067 206.115 398.967C209.636 400.841 214.206 404.213 217.653 409.385C221.099 414.482 222.523 420.028 222.898 424.001C223.122 426.024 223.122 427.598 223.047 428.723C223.047 429.247 222.973 429.697 222.898 429.997C222.823 430.222 222.748 430.371 222.748 430.371Z" fill="#385A65"/>
<path d="M210.385 405.413C210.385 405.413 210.76 405.637 211.284 406.162C211.584 406.387 211.884 406.687 212.258 407.136C212.633 407.511 213.082 407.961 213.457 408.486C214.356 409.46 215.255 410.809 216.154 412.308C217.053 413.807 217.878 415.606 218.627 417.48C219.301 419.429 219.751 421.302 220.05 423.026C220.35 424.75 220.425 426.324 220.425 427.673C220.425 428.348 220.35 428.947 220.35 429.472C220.35 429.997 220.275 430.446 220.2 430.821C220.125 431.571 220.05 431.945 219.975 431.945C219.901 431.945 220.125 430.296 220.05 427.673C220.05 426.324 219.901 424.825 219.601 423.101C219.301 421.377 218.852 419.503 218.177 417.63C217.503 415.756 216.679 414.032 215.78 412.533C214.881 411.034 214.056 409.76 213.232 408.71C211.584 406.612 210.31 405.488 210.385 405.413Z" fill="#385A65"/>
<path d="M180.865 423.626C180.865 423.626 181.24 423.851 181.839 424.3C182.439 424.75 183.263 425.425 184.312 426.249C186.41 427.898 189.182 430.221 192.254 432.845C195.251 435.468 197.948 437.941 199.896 439.815C200.87 440.715 201.619 441.464 202.144 441.989C202.668 442.514 202.968 442.813 202.893 442.813C202.893 442.813 202.518 442.588 201.994 442.139C201.395 441.539 200.57 440.865 199.671 440.04C197.573 438.241 194.951 435.843 191.954 433.22C188.957 430.671 186.26 428.273 184.162 426.474C183.263 425.649 182.439 424.975 181.765 424.45C181.165 423.926 180.865 423.626 180.865 423.626Z" fill="#385A65"/>
<path d="M229.041 235.722H227.992C217.278 235.872 208.512 244.267 207.838 254.985C207.238 264.953 206.639 275.896 206.789 281.218C207.089 292.236 218.177 293.735 218.177 293.735V295.459C218.177 303.479 224.845 309.924 232.862 309.7C240.504 309.475 246.573 303.329 246.723 295.684L247.323 257.608C248.072 246.141 240.505 236.247 229.041 235.722Z" fill="#E58779"/>
<path d="M211.06 262.255C211.06 263.079 211.734 263.754 212.633 263.829C213.532 263.829 214.206 263.229 214.206 262.405C214.206 261.58 213.532 260.906 212.633 260.831C211.809 260.756 211.06 261.431 211.06 262.255Z" fill="#192E35"/>
<path d="M210.085 259.782C210.31 260.007 211.434 259.107 213.157 259.032C214.881 258.957 216.079 259.857 216.304 259.632C216.379 259.557 216.154 259.182 215.63 258.807C215.105 258.433 214.206 258.058 213.157 258.058C212.108 258.058 211.209 258.508 210.685 258.882C210.16 259.332 210.011 259.707 210.085 259.782Z" fill="#192E35"/>
<path d="M226.943 262.255C226.943 263.079 227.618 263.754 228.517 263.829C229.416 263.829 230.09 263.229 230.09 262.405C230.09 261.58 229.416 260.906 228.517 260.831C227.618 260.756 226.943 261.431 226.943 262.255Z" fill="#192E35"/>
<path d="M226.943 259.032C227.093 259.257 228.367 258.507 230.09 258.657C231.813 258.807 232.937 259.782 233.162 259.557C233.237 259.482 233.087 259.107 232.563 258.657C232.038 258.208 231.214 257.758 230.165 257.683C229.116 257.608 228.217 257.908 227.618 258.283C227.093 258.582 226.868 258.882 226.943 259.032Z" fill="#192E35"/>
<path d="M221.024 273.048C221.024 272.973 219.975 272.823 218.252 272.598C217.803 272.598 217.428 272.448 217.353 272.224C217.278 271.924 217.428 271.474 217.653 270.949C218.027 269.9 218.477 268.776 218.852 267.652C220.575 262.93 221.774 259.032 221.549 258.957C221.324 258.882 219.826 262.63 218.102 267.352C217.728 268.551 217.278 269.6 216.903 270.65C216.754 271.174 216.454 271.699 216.679 272.373C216.829 272.673 217.128 272.898 217.428 272.973C217.728 273.048 217.952 273.048 218.177 273.048C219.9 273.198 221.024 273.123 221.024 273.048Z" fill="#192E35"/>
<path d="M225.969 274.172C225.67 274.172 225.744 275.971 224.171 277.32C222.598 278.669 220.65 278.52 220.65 278.744C220.65 278.894 221.099 279.119 221.923 279.119C222.748 279.119 223.946 278.819 224.845 278.07C225.819 277.245 226.194 276.196 226.269 275.447C226.344 274.547 226.119 274.097 225.969 274.172Z" fill="#192E35"/>
<path d="M227.093 253.411C227.243 253.861 228.966 253.786 230.914 254.16C232.862 254.46 234.436 255.21 234.735 254.76C234.885 254.535 234.585 254.085 233.986 253.636C233.387 253.186 232.413 252.661 231.214 252.436C230.015 252.212 228.966 252.361 228.217 252.586C227.393 252.886 227.018 253.186 227.093 253.411Z" fill="#E1E0E0"/>
<path d="M210.835 255.435C211.134 255.809 212.333 255.36 213.682 255.36C215.105 255.285 216.304 255.585 216.529 255.135C216.679 254.91 216.454 254.535 215.929 254.235C215.405 253.861 214.581 253.636 213.607 253.636C212.633 253.711 211.809 254.011 211.359 254.46C210.835 254.835 210.685 255.285 210.835 255.435Z" fill="#E1E0E0"/>
<path d="M240.879 240.594C241.404 240.294 243.651 242.843 244.101 243.218C246.648 245.691 247.547 250.113 247.772 253.636C247.997 257.159 247.997 260.232 247.323 263.754C247.248 264.204 246.948 266.003 246.948 266.003C246.498 266.378 245.824 270.275 245.225 270.35C244.326 270.35 243.726 264.354 243.576 263.904C243.501 262.405 243.277 261.131 242.977 259.857C242.527 257.908 242.003 255.285 242.003 253.261C242.003 250.188 240.954 245.616 240.954 242.543C240.879 241.868 240.355 240.819 240.879 240.594Z" fill="#E1E0E0"/>
<path d="M243.127 245.166C239.98 240.744 235.11 237.521 229.79 236.397C228.592 236.097 227.243 235.947 226.119 236.547C225.445 236.847 224.92 237.371 224.321 237.821C223.722 238.271 222.972 238.645 222.298 238.496C221.549 238.421 220.875 237.596 221.099 236.922C225.295 235.273 230.165 235.123 234.436 236.622C238.706 238.121 242.453 241.119 244.775 245.091" fill="#E1E0E0"/>
<path d="M241.029 244.642L247.247 249.513C247.472 250.638 247.697 251.837 247.772 253.111L241.553 248.989L241.029 244.642Z" fill="#FBFBFB"/>
<path d="M245.225 265.778C245.374 265.703 252.792 263.379 252.642 270.949C252.567 278.52 245 276.796 245 276.571C245 276.346 245.225 265.778 245.225 265.778Z" fill="#E58779"/>
<path d="M247.397 273.723C247.397 273.723 247.547 273.798 247.772 273.947C247.997 274.022 248.371 274.097 248.746 273.947C249.57 273.648 250.245 272.448 250.319 271.024C250.319 270.35 250.245 269.675 249.945 269.151C249.72 268.626 249.345 268.176 248.971 268.101C248.596 268.026 248.297 268.251 248.222 268.476C248.147 268.701 248.147 268.851 248.147 268.851C248.147 268.851 247.997 268.701 248.072 268.401C248.072 268.251 248.222 268.101 248.371 267.951C248.521 267.801 248.821 267.726 249.121 267.801C249.72 267.876 250.245 268.401 250.469 269.001C250.769 269.6 250.919 270.35 250.919 271.099C250.844 272.598 250.02 274.022 248.971 274.322C248.446 274.472 247.997 274.322 247.772 274.097C247.397 273.947 247.323 273.798 247.397 273.723Z" fill="#AB6550"/>
<path d="M218.028 293.66C218.028 293.66 225.22 294.11 232.788 289.163C232.788 289.163 229.491 297.557 218.103 296.733L218.028 293.66Z" fill="#AB6550"/>
<path d="M216.229 264.804C216.304 264.879 215.18 265.703 213.457 265.778C211.734 265.853 210.535 265.028 210.61 264.954C210.685 264.804 211.884 265.328 213.457 265.253C215.03 265.253 216.154 264.654 216.229 264.804Z" fill="#AB6550"/>
<path d="M216.604 259.032C216.529 259.107 216.304 258.807 215.93 258.583C215.48 258.283 214.881 258.058 214.131 257.983C213.382 257.908 212.633 257.983 212.109 257.983C211.584 257.983 211.284 257.983 211.209 257.908C211.209 257.833 211.509 257.683 212.034 257.608C212.558 257.458 213.307 257.383 214.131 257.458C214.956 257.533 215.705 257.908 216.079 258.283C216.604 258.658 216.679 258.957 216.604 259.032Z" fill="#AB6550"/>
<path d="M237.882 259.257C237.957 259.332 237.358 260.082 236.234 260.381C235.11 260.681 234.211 260.381 234.286 260.306C234.286 260.157 235.185 260.157 236.159 259.932C237.058 259.557 237.807 259.107 237.882 259.257Z" fill="#AB6550"/>
<path d="M238.332 261.581C238.407 261.731 237.657 262.18 236.608 262.03C235.56 261.881 234.96 261.281 235.035 261.206C235.11 261.056 235.784 261.431 236.683 261.506C237.582 261.656 238.332 261.431 238.332 261.581Z" fill="#AB6550"/>
<path d="M233.537 258.583C233.462 258.733 232.263 257.608 230.465 257.458C228.667 257.308 227.318 258.133 227.243 257.983C227.168 257.908 227.468 257.608 228.067 257.383C228.667 257.084 229.491 256.859 230.54 256.934C231.514 257.009 232.338 257.458 232.862 257.833C233.312 258.208 233.537 258.508 233.537 258.583Z" fill="#AB6550"/>
<path d="M231.888 264.354C231.963 264.429 231.214 265.178 229.865 265.478C228.592 265.703 227.543 265.328 227.618 265.178C227.618 265.028 228.592 265.178 229.791 264.953C230.914 264.729 231.814 264.279 231.888 264.354Z" fill="#AB6550"/>
<path d="M227.393 274.322C227.243 274.397 226.868 274.023 226.269 273.873C225.67 273.723 225.145 273.873 225.07 273.798C224.995 273.723 225.52 273.198 226.419 273.423C227.243 273.498 227.543 274.248 227.393 274.322Z" fill="#AB6550"/>
<path d="M228.742 273.873C228.592 273.948 228.292 273.573 227.842 273.273C227.393 272.973 226.943 272.898 226.943 272.748C226.943 272.598 227.543 272.449 228.142 272.823C228.742 273.198 228.891 273.798 228.742 273.873Z" fill="#AB6550"/>
<path d="M239.156 285.115C239.156 285.115 239.306 285.19 239.381 285.49C239.381 285.79 239.231 286.165 239.081 286.615C238.931 287.064 238.931 287.514 239.456 287.814C239.68 287.964 240.055 288.114 240.28 288.488C240.579 288.863 240.505 289.388 240.355 289.762C240.055 290.587 239.456 290.962 239.231 291.486C238.931 292.011 239.081 292.461 239.306 292.91C239.755 293.66 240.205 294.11 240.13 294.185C240.13 294.185 239.531 293.96 238.931 293.135C238.631 292.761 238.407 292.011 238.781 291.336C239.081 290.662 239.68 290.212 239.83 289.613C239.905 289.313 239.905 289.013 239.83 288.788C239.68 288.563 239.381 288.413 239.156 288.263C238.856 288.114 238.557 287.814 238.557 287.439C238.482 287.064 238.631 286.764 238.706 286.54C238.931 286.09 239.081 285.79 239.156 285.565C239.156 285.265 239.081 285.115 239.156 285.115Z" fill="#AB6550"/>
<path d="M243.576 292.686C243.501 292.686 243.127 292.386 242.752 291.636C242.602 291.262 242.378 290.737 242.527 290.137C242.677 289.463 243.277 289.088 243.202 288.638C243.127 288.188 242.602 287.889 242.153 287.514C241.628 287.064 241.553 286.465 241.628 286.015C241.703 285.565 241.928 285.265 242.153 285.115C242.378 284.966 242.527 284.966 242.527 284.966C242.602 285.041 242.078 285.34 242.003 286.09C242.003 286.465 242.078 286.914 242.453 287.139C242.602 287.289 242.902 287.439 243.127 287.664C243.352 287.889 243.651 288.188 243.726 288.563C243.801 289.013 243.501 289.313 243.352 289.538C243.202 289.762 243.052 289.987 242.977 290.212C242.827 290.662 242.902 291.112 243.052 291.486C243.352 292.236 243.651 292.686 243.576 292.686Z" fill="#AB6550"/>
<path d="M228.891 247.565C228.966 247.64 228.292 248.089 227.168 248.089C226.044 248.164 224.471 247.715 222.972 248.014C222.223 248.164 221.474 248.539 220.8 248.764C220.125 248.989 219.376 249.064 218.777 248.989C218.177 248.914 217.728 248.689 217.503 248.389C217.278 248.164 217.203 248.014 217.203 247.94C217.278 247.865 217.653 248.464 218.777 248.539C219.301 248.539 219.901 248.464 220.575 248.239C221.249 248.015 221.998 247.64 222.823 247.415C223.722 247.19 224.546 247.34 225.22 247.415C225.969 247.49 226.569 247.64 227.093 247.64C228.217 247.79 228.817 247.49 228.891 247.565Z" fill="#AB6550"/>
<path d="M226.419 245.841C226.419 245.991 224.471 245.991 222.148 245.991C219.826 245.991 217.878 245.991 217.878 245.841C217.878 245.691 219.751 245.466 222.148 245.466C224.546 245.541 226.419 245.691 226.419 245.841Z" fill="#AB6550"/>
<path d="M224.995 244.042C224.92 244.192 224.246 244.042 223.347 243.967C222.448 243.892 221.699 243.817 221.699 243.667C221.699 243.517 222.448 243.367 223.422 243.442C224.321 243.517 224.995 243.892 224.995 244.042Z" fill="#AB6550"/>
<path d="M209.861 261.131C209.936 261.281 209.336 261.581 208.662 261.281C207.988 260.981 207.763 260.381 207.913 260.306C208.063 260.231 208.362 260.606 208.887 260.756C209.336 261.056 209.786 260.981 209.861 261.131Z" fill="#AB6550"/>
<path d="M209.186 261.955C209.261 262.105 208.962 262.33 208.737 262.63C208.512 262.93 208.362 263.23 208.212 263.23C208.063 263.23 207.988 262.705 208.362 262.255C208.662 261.88 209.111 261.806 209.186 261.955Z" fill="#AB6550"/>
<path d="M242.228 327.988C242.003 327.463 239.755 323.865 238.182 319.518C236.234 314.197 235.035 308.125 235.035 308.125C235.035 308.125 231.214 298.232 229.416 297.782C227.618 297.332 222.823 299.281 221.924 300.48C221.024 301.68 219.826 309.924 221.924 309.625C224.021 309.325 224.696 307.526 224.696 307.526V302.279C224.696 302.279 227.543 303.478 227.243 305.127C226.943 306.776 227.768 320.867 228.517 323.64C229.266 326.414 231.514 335.033 231.514 335.033L242.228 327.988Z" fill="#E58779"/>
<path d="M235.859 302.429C235.859 302.429 225.07 293.96 224.621 294.259C223.422 294.934 211.809 302.279 212.034 304.078C212.183 305.877 212.034 321.242 212.034 321.242L207.913 328.662L221.399 331.51L223.197 322.816C223.197 322.816 226.194 320.418 225.295 316.22C224.396 312.023 220.65 306.552 220.65 306.552L224.696 300.331C224.696 300.181 230.39 306.701 235.859 302.429Z" fill="#E58779"/>
<path d="M242.453 535.153C244.401 533.43 229.191 329.112 227.168 301.83C227.018 300.106 225.595 298.832 223.946 298.832C222.073 298.832 220.575 300.406 220.725 302.279L237.058 535.153H242.453Z" fill="#D16426"/>
<path d="M227.168 301.83C227.168 301.83 227.318 301.905 227.543 302.129C227.768 302.429 228.067 302.729 228.442 303.104C229.191 303.478 230.24 303.778 231.589 303.778C232.862 303.778 234.511 303.404 235.859 302.279V302.579C232.862 300.331 229.116 297.482 225.07 294.409L224.771 294.185L225.07 293.96C224.771 293.585 225.37 294.484 225.37 294.409L225.295 294.484L225.145 294.559L224.846 294.709L224.321 295.084C223.947 295.309 223.572 295.534 223.272 295.758C222.523 296.208 221.849 296.733 221.099 297.183C219.451 298.232 217.878 299.281 216.304 300.331C215.555 300.855 214.731 301.305 214.057 301.83C213.307 302.354 212.633 302.879 212.333 303.553C211.959 304.303 211.959 305.127 211.959 305.877C211.959 306.701 212.034 307.451 212.034 308.2C212.109 309.699 212.109 311.124 212.184 312.398C212.258 314.946 212.333 316.97 212.408 318.544C212.408 319.218 212.408 319.743 212.408 320.193C212.408 320.567 212.408 320.792 212.408 320.792C212.408 320.792 212.333 320.567 212.333 320.193C212.333 319.743 212.258 319.218 212.184 318.544C212.109 317.045 211.959 314.946 211.809 312.473C211.734 311.198 211.659 309.774 211.584 308.275C211.584 307.526 211.509 306.701 211.434 305.952C211.434 305.127 211.434 304.228 211.809 303.404C212.184 302.579 212.933 301.979 213.682 301.455C214.431 300.93 215.181 300.48 215.93 299.956C217.503 298.906 219.077 297.857 220.725 296.808C221.474 296.283 222.223 295.833 222.898 295.384C223.272 295.159 223.647 294.934 223.947 294.709L224.471 294.334L224.771 294.185L224.921 294.11L224.995 294.035C224.921 293.96 225.52 294.859 225.295 294.484V294.035C229.341 297.183 233.012 299.956 236.009 302.279L236.234 302.429L236.009 302.579C234.511 303.703 232.862 304.078 231.514 304.078C230.165 304.078 229.041 303.628 228.292 303.254C227.918 302.804 227.693 302.504 227.468 302.204C227.243 301.979 227.168 301.83 227.168 301.83Z" fill="#AB6550"/>
<path d="M238.931 323.566C238.856 323.566 238.632 322.441 238.182 320.567C237.733 318.694 237.133 316.22 236.309 313.447C235.485 310.674 234.661 308.2 233.986 306.477C233.312 304.678 232.937 303.628 233.012 303.553C233.087 303.553 233.612 304.603 234.361 306.327C235.11 308.051 236.009 310.524 236.833 313.297C237.658 316.07 238.257 318.619 238.557 320.493C238.856 322.366 238.931 323.566 238.931 323.566Z" fill="#AB6550"/>
<g opacity="0.3">
<g opacity="0.3">
<g opacity="0.3">
<path opacity="0.3" d="M242.153 383.377C243.876 387.649 245.899 392.071 249.645 394.694C253.167 397.168 257.887 397.767 262.008 396.568C266.129 395.369 269.725 392.446 272.048 388.773C266.728 392.296 259.835 393.195 253.841 391.247C247.847 389.298 242.827 384.426 240.58 378.505" fill="#010202"/>
</g>
</g>
</g>
</svg>
